<svg width="105" height="49" viewBox="0 0 105 49" fill="none" xmlns="http://www.w3.org/2000/svg" xmlns:xlink="http://www.w3.org/1999/xlink">
<rect width="105" height="49" rx="24.5" fill="#BC61F5"/>
<path d="M22 31.12H38V15.12H22V31.12Z" fill="url(#pattern0)"/>
<path d="M42.3621 26.528H44.0261C43.9781 28.192 44.9221 28.784 46.5221 28.784C48.0421 28.784 48.7781 28.144 48.7781 27.136C48.7781 26 47.9461 25.632 46.1861 25.296C43.9141 24.88 42.5221 24.16 42.5221 22.144C42.5221 20.144 44.1701 19.088 46.3141 19.088C48.6341 19.088 50.3461 20.272 50.2661 22.576H48.6181C48.6501 21.168 47.8021 20.496 46.2661 20.496C44.9861 20.496 44.1861 21.104 44.1861 22.016C44.1861 23.184 45.0341 23.536 46.7461 23.872C49.1141 24.304 50.4581 25.008 50.4581 26.992C50.4581 28.912 48.9861 30.192 46.4581 30.192C43.8821 30.192 42.2501 28.96 42.3621 26.528ZM54.555 20.752H51.115V19.28H59.659V20.752H56.203V30H54.555V20.752ZM68.2423 20.736H62.9143V23.792H67.5383V25.248H62.9143V28.544H68.2423V30H61.2663V19.28H68.2423V20.736ZM72.4088 22.864C72.2648 22.448 72.0888 21.984 71.9288 21.472H71.8808V30H70.3288V19.28H72.6648L75.3528 26.432C75.5288 26.928 75.7208 27.456 75.8648 28H75.9128C76.0728 27.456 76.2488 26.928 76.4408 26.416L79.1128 19.28H81.4168V30H79.8488V21.472H79.8008C79.6568 21.984 79.4808 22.432 79.3048 22.896L76.6488 30H75.0968L72.4088 22.864Z" fill="white"/>
<rect x="0.5" y="0.5" width="104" height="48" rx="24" stroke="white" stroke-opacity="0.1"/>
<defs>
<pattern id="pattern0" patternContentUnits="objectBoundingBox" width="1" height="1">
<use xlink:href="#image0_1015_21740" transform="scale(0.00625)"/>
</pattern>
</defs>
</svg>
