<svg width="115" height="49" viewBox="0 0 115 49" fill="none" xmlns="http://www.w3.org/2000/svg" xmlns:xlink="http://www.w3.org/1999/xlink">
<rect width="115" height="49" rx="24.5" fill="#212121"/>
<path d="M22 31.12H38V15.12H22V31.12Z" fill="url(#pattern0)"/>
<path d="M48.1643 28.528H53.1403V30H46.5163V19.28H48.1643V28.528ZM59.0331 26.016V24.64H63.2251V30H61.8491L61.7851 28.368C61.2091 29.392 60.1691 30.192 58.5371 30.192C55.6091 30.192 53.7211 27.904 53.7211 24.672C53.7211 21.472 55.7051 19.088 58.7451 19.088C61.5451 19.088 63.0651 20.864 63.2251 22.976H61.5611C61.4171 21.568 60.5211 20.544 58.7611 20.544C56.6811 20.544 55.4331 22.304 55.4331 24.688C55.4331 27.024 56.6011 28.736 58.7451 28.736C60.5851 28.736 61.5771 27.408 61.7211 26.016H59.0331ZM67.5706 20.752H64.1306V19.28H72.6746V20.752H69.2186V30H67.5706V20.752ZM80.1774 29.808C80.4014 30.448 80.8334 30.768 81.8414 30.768C82.2094 30.768 82.5134 30.72 82.7694 30.64V32.064C82.5934 32.144 82.1614 32.224 81.6334 32.224C79.7614 32.224 78.9614 31.328 78.5934 30.176C78.4654 30.192 78.3374 30.192 78.2094 30.192C75.1534 30.192 73.3774 27.76 73.3774 24.672C73.3774 21.472 75.2174 19.088 78.2574 19.088C81.3294 19.088 83.0894 21.504 83.0894 24.608C83.0894 27.056 82.0174 29.008 80.1774 29.808ZM75.0894 24.64C75.0894 26.96 76.2254 28.736 78.2254 28.736C80.2574 28.736 81.3934 26.96 81.3934 24.64C81.3934 22.32 80.2574 20.544 78.2574 20.544C76.2254 20.544 75.0894 22.32 75.0894 24.64ZM91.443 24.224V25.376H88.707V28.192H87.523V25.376H84.787V24.224H87.523V21.408H88.707V24.224H91.443Z" fill="white"/>
<rect x="0.5" y="0.5" width="114" height="48" rx="24" stroke="white" stroke-opacity="0.1"/>
<defs>
<pattern id="pattern0" patternContentUnits="objectBoundingBox" width="1" height="1">
<use xlink:href="#image0_1015_21701" transform="scale(0.00625)"/>
</pattern>
</defs>
</svg>
