<svg width="46" height="46" viewBox="0 0 46 46" fill="none" xmlns="http://www.w3.org/2000/svg">
<path d="M15.3333 3.83301V9.58301" stroke="white" stroke-width="2" stroke-miterlimit="10" stroke-linecap="round" stroke-linejoin="round"/>
<path d="M30.6667 3.83301V9.58301" stroke="white" stroke-width="2" stroke-miterlimit="10" stroke-linecap="round" stroke-linejoin="round"/>
<path d="M6.70831 17.4229H39.2916" stroke="white" stroke-width="2" stroke-miterlimit="10" stroke-linecap="round" stroke-linejoin="round"/>
<path d="M34.5 44.0833C38.7342 44.0833 42.1666 40.6508 42.1666 36.4167C42.1666 32.1825 38.7342 28.75 34.5 28.75C30.2658 28.75 26.8333 32.1825 26.8333 36.4167C26.8333 40.6508 30.2658 44.0833 34.5 44.0833Z" stroke="white" stroke-width="2" stroke-miterlimit="10" stroke-linecap="round" stroke-linejoin="round"/>
<path d="M37.3559 36.5117H31.6442" stroke="white" stroke-width="2" stroke-miterlimit="10" stroke-linecap="round" stroke-linejoin="round"/>
<path d="M34.5 33.7139V39.4447" stroke="white" stroke-width="2" stroke-miterlimit="10" stroke-linecap="round" stroke-linejoin="round"/>
<path d="M40.25 16.2913V31.3563C38.8508 29.7655 36.8 28.7497 34.5 28.7497C30.2642 28.7497 26.8333 32.1805 26.8333 36.4163C26.8333 37.8538 27.2358 39.2147 27.945 40.3647C28.3475 41.0547 28.865 41.668 29.4592 42.1663H15.3333C8.625 42.1663 5.75 38.333 5.75 32.583V16.2913C5.75 10.5413 8.625 6.70801 15.3333 6.70801H30.6667C37.375 6.70801 40.25 10.5413 40.25 16.2913Z" stroke="white" stroke-width="2" stroke-miterlimit="10" stroke-linecap="round" stroke-linejoin="round"/>
<path d="M22.9913 26.2581H23.0085" stroke="white" stroke-width="2" stroke-linecap="round" stroke-linejoin="round"/>
<path d="M15.8975 26.2581H15.9147" stroke="white" stroke-width="2" stroke-linecap="round" stroke-linejoin="round"/>
<path d="M15.8975 32.0081H15.9147" stroke="white" stroke-width="2" stroke-linecap="round" stroke-linejoin="round"/>
</svg>
