<svg width="52" height="50" viewBox="0 0 52 50" fill="none" xmlns="http://www.w3.org/2000/svg">
<circle cx="23" cy="23" r="22" fill="#444444" stroke="#0F0F0F" stroke-width="2"/>
<path d="M40 47.9756C45.5 47.9756 50 43.4756 50 37.9756C50 32.4756 45.5 27.9756 40 27.9756C34.5 27.9756 30 32.4756 30 37.9756C30 43.4756 34.5 47.9756 40 47.9756Z" fill="#BC61F5" stroke="#0F0F0F" stroke-width="1.5" stroke-linecap="round" stroke-linejoin="round"/>
<path d="M36 37.9756H44" stroke="white" stroke-width="1.5" stroke-linecap="round" stroke-linejoin="round"/>
<path d="M40 41.9756V33.9756" stroke="white" stroke-width="1.5" stroke-linecap="round" stroke-linejoin="round"/>
<path d="M25.0682 24.5512H27.6535L28.6875 20.4149H25.0682V18.3467C25.0682 17.2816 25.0682 16.2785 27.1364 16.2785H28.6875V12.804C28.3504 12.7595 27.0775 12.6592 25.7331 12.6592C22.9256 12.6592 20.9319 14.3727 20.9319 17.5194V20.4149H17.8296V24.5512H20.9319V33.341H25.0682V24.5512Z" fill="#0F0F0F"/>
</svg>
