<svg width="34" height="34" viewBox="0 0 34 34" fill="none" xmlns="http://www.w3.org/2000/svg">
<path d="M26.9166 29.75V21.25M22.6666 25.5H31.1666M17 21.25H11.3333C8.69298 21.25 7.37281 21.25 6.33144 21.6813C4.94295 22.2565 3.83979 23.3596 3.26466 24.7481C2.83331 25.7895 2.83331 27.1097 2.83331 29.75M21.9583 4.66191C24.035 5.50254 25.5 7.53852 25.5 9.91667C25.5 12.2948 24.035 14.3308 21.9583 15.1714M19.125 9.91667C19.125 13.0463 16.5879 15.5833 13.4583 15.5833C10.3287 15.5833 7.79165 13.0463 7.79165 9.91667C7.79165 6.78705 10.3287 4.25 13.4583 4.25C16.5879 4.25 19.125 6.78705 19.125 9.91667Z" stroke="white" stroke-width="2" stroke-linecap="round" stroke-linejoin="round"/>
</svg>
