<svg width="44" height="44" viewBox="0 0 44 44" fill="none" xmlns="http://www.w3.org/2000/svg">
<path d="M22.9167 5.50033H14.3C11.2197 5.50033 9.67957 5.50033 8.50305 6.09979C7.46816 6.62709 6.62677 7.46849 6.09946 8.50338C5.5 9.67989 5.5 11.22 5.5 14.3003V29.7003C5.5 32.7806 5.5 34.3208 6.09946 35.4973C6.62677 36.5322 7.46816 37.3736 8.50305 37.9009C9.67957 38.5003 11.2197 38.5003 14.3 38.5003H31.1667C32.8716 38.5003 33.7241 38.5003 34.4235 38.3129C36.3215 37.8043 37.804 36.3218 38.3126 34.4238C38.5 33.7244 38.5 32.8719 38.5 31.167M34.8333 14.667V3.66699M29.3333 9.16699H40.3333M19.25 15.5837C19.25 17.6087 17.6084 19.2503 15.5833 19.2503C13.5583 19.2503 11.9167 17.6087 11.9167 15.5837C11.9167 13.5586 13.5583 11.917 15.5833 11.917C17.6084 11.917 19.25 13.5586 19.25 15.5837ZM27.4817 21.8503L11.9738 35.9484C11.1015 36.7414 10.6654 37.1379 10.6268 37.4813C10.5933 37.7791 10.7075 38.0743 10.9325 38.2721C11.1921 38.5003 11.7815 38.5003 12.9604 38.5003H30.1693C32.8078 38.5003 34.127 38.5003 35.1632 38.0571C36.464 37.5006 37.5003 36.4643 38.0567 35.1635C38.5 34.1273 38.5 32.8081 38.5 30.1696C38.5 29.2819 38.5 28.838 38.4029 28.4246C38.281 27.9051 38.0471 27.4185 37.7176 26.9987C37.4555 26.6647 37.1088 26.3874 36.4156 25.8328L31.2873 21.7302C30.5935 21.1752 30.2466 20.8976 29.8646 20.7997C29.5279 20.7134 29.1736 20.7245 28.843 20.8319C28.4679 20.9538 28.1392 21.2526 27.4817 21.8503Z" stroke="white" stroke-width="2" stroke-linecap="round" stroke-linejoin="round"/>
</svg>
