<svg width="52" height="50" viewBox="0 0 52 50" fill="none" xmlns="http://www.w3.org/2000/svg">
  <circle cx="23" cy="23" r="22" fill="#444444" stroke="#0F0F0F" stroke-width="2"/>
  <path d="M40 47.9756C45.5 47.9756 50 43.4756 50 37.9756C50 32.4756 45.5 27.9756 40 27.9756C34.5 27.9756 30 32.4756 30 37.9756C30 43.4756 34.5 47.9756 40 47.9756Z" fill="#BC61F5" stroke="#0F0F0F" stroke-width="1.5" stroke-linecap="round" stroke-linejoin="round"/>
  <path d="M36 37.9756H44" stroke="white" stroke-width="1.5" stroke-linecap="round" stroke-linejoin="round"/>
  <path d="M40 41.9756V33.9756" stroke="white" stroke-width="1.5" stroke-linecap="round" stroke-linejoin="round"/>
  <path d="M18.3224 11.8643H27.6769C31.2406 11.8643 34.136 14.7597 34.136 18.3234V27.6779C34.136 29.391 33.4555 31.0339 32.2442 32.2452C31.0329 33.4565 29.39 34.137 27.6769 34.137H18.3224C14.7587 34.137 11.8633 31.2415 11.8633 27.6779V18.3234C11.8633 16.6103 12.5438 14.9674 13.7551 13.7561C14.9664 12.5448 16.6093 11.8643 18.3224 11.8643ZM18.0996 14.0915C17.0364 14.0915 16.0166 14.5139 15.2648 15.2658C14.5129 16.0176 14.0906 17.0373 14.0906 18.1006V27.9006C14.0906 30.1168 15.8835 31.9097 18.0996 31.9097H27.8997C28.9629 31.9097 29.9827 31.4873 30.7345 30.7355C31.4864 29.9836 31.9087 28.9639 31.9087 27.9006V18.1006C31.9087 15.8845 30.1158 14.0915 27.8997 14.0915H18.0996ZM28.8462 15.762C29.2154 15.762 29.5695 15.9086 29.8306 16.1697C30.0916 16.4308 30.2383 16.7848 30.2383 17.154C30.2383 17.5232 30.0916 17.8773 29.8306 18.1384C29.5695 18.3994 29.2154 18.5461 28.8462 18.5461C28.477 18.5461 28.123 18.3994 27.8619 18.1384C27.6009 17.8773 27.4542 17.5232 27.4542 17.154C27.4542 16.7848 27.6009 16.4308 27.8619 16.1697C28.123 15.9086 28.477 15.762 28.8462 15.762ZM22.9996 17.4324C24.4764 17.4324 25.8927 18.0191 26.9369 19.0633C27.9812 20.1076 28.5678 21.5239 28.5678 23.0006C28.5678 24.4774 27.9812 25.8937 26.9369 26.9379C25.8927 27.9822 24.4764 28.5688 22.9996 28.5688C21.5229 28.5688 20.1066 27.9822 19.0623 26.9379C18.0181 25.8937 17.4315 24.4774 17.4315 23.0006C17.4315 21.5239 18.0181 20.1076 19.0623 19.0633C20.1066 18.0191 21.5229 17.4324 22.9996 17.4324ZM22.9996 19.6597C22.1136 19.6597 21.2638 20.0117 20.6373 20.6382C20.0107 21.2648 19.6587 22.1146 19.6587 23.0006C19.6587 23.8867 20.0107 24.7365 20.6373 25.363C21.2638 25.9895 22.1136 26.3415 22.9996 26.3415C23.8857 26.3415 24.7355 25.9895 25.362 25.363C25.9886 24.7365 26.3406 23.8867 26.3406 23.0006C26.3406 22.1146 25.9886 21.2648 25.362 20.6382C24.7355 20.0117 23.8857 19.6597 22.9996 19.6597Z" fill="#0F0F0F"/>
</svg>
