<svg width="50" height="48" viewBox="0 0 50 48" fill="none" xmlns="http://www.w3.org/2000/svg">
<g clip-path="url(#clip0_303_8221)">
<path d="M21 0.248047C16.8466 0.248047 12.7865 1.47968 9.33303 3.78718C5.8796 6.09469 3.18798 9.37445 1.59854 13.2117C0.00909892 17.0489 -0.406771 21.2713 0.403519 25.3449C1.21381 29.4185 3.21386 33.1604 6.15077 36.0973C9.08767 39.0342 12.8295 41.0342 16.9031 41.8445C20.9767 42.6548 25.1991 42.239 29.0364 40.6495C32.8736 39.0601 36.1534 36.3685 38.4609 32.915C40.7684 29.4616 42 25.4015 42 21.248C42 15.6785 39.7875 10.3371 35.8492 6.3988C31.911 2.46054 26.5696 0.248047 21 0.248047ZM14.8934 32.3007H10.3121V17.5427H14.8934V32.3007ZM12.6 15.5283C12.0728 15.5305 11.5567 15.3763 11.1171 15.0853C10.6774 14.7942 10.3339 14.3793 10.13 13.8931C9.92612 13.4069 9.87093 12.8711 9.97145 12.3535C10.072 11.836 10.3237 11.3598 10.6948 10.9852C11.0658 10.6107 11.5396 10.3545 12.0563 10.2492C12.5729 10.1439 13.1091 10.194 13.5973 10.3934C14.0854 10.5928 14.5034 10.9324 14.7985 11.3693C15.0937 11.8062 15.2527 12.3208 15.2554 12.848C15.2569 13.555 14.9784 14.2339 14.4808 14.7361C13.9832 15.2384 13.307 15.5232 12.6 15.5283ZM32.0526 32.3007H27.4741V25.1165C27.4741 23.4033 27.4409 21.2066 25.0922 21.2066C22.7436 21.2066 22.3291 23.069 22.3291 24.9921V32.3007H17.7671V17.5427H22.1633V19.5542H22.2269C22.8375 18.3937 24.3324 17.1696 26.5622 17.1696C31.1988 17.1696 32.0526 20.2257 32.0526 24.1936V32.3007Z" fill="#636363"/>
</g>
<path d="M38 45.9756C43.5 45.9756 48 41.4756 48 35.9756C48 30.4756 43.5 25.9756 38 25.9756C32.5 25.9756 28 30.4756 28 35.9756C28 41.4756 32.5 45.9756 38 45.9756Z" fill="#BC61F5" stroke="#0F0F0F" stroke-width="1.5" stroke-linecap="round" stroke-linejoin="round"/>
<path d="M34 35.9756H42" stroke="white" stroke-width="1.5" stroke-linecap="round" stroke-linejoin="round"/>
<path d="M38 39.9756V31.9756" stroke="white" stroke-width="1.5" stroke-linecap="round" stroke-linejoin="round"/>
<defs>
<clipPath id="clip0_303_8221">
<rect width="42" height="42" fill="white" transform="translate(0 0.248047)"/>
</clipPath>
</defs>
</svg>
