<svg width="50" height="48" viewBox="0 0 50 48" fill="none" xmlns="http://www.w3.org/2000/svg">
<g clip-path="url(#clip0_303_8211)">
<path d="M21 0.248047C9.40382 0.248047 0 9.65186 0 21.248C0 32.8442 9.40382 42.248 21 42.248C32.5962 42.248 42 32.8442 42 21.248C42 9.65186 32.5962 0.248047 21 0.248047ZM31.5353 16.3158V19.1592C30.1945 19.1597 28.8917 18.8969 27.6631 18.3786C26.8778 18.0476 26.1385 17.6165 25.4637 17.096L25.4839 25.8481C25.4755 27.8189 24.6958 29.6706 23.2846 31.0654C22.1361 32.2007 20.6809 32.9227 19.1036 33.1564C18.7297 33.2117 18.3523 33.2394 17.9744 33.2394C16.2859 33.2394 14.6829 32.6924 13.3717 31.6832C13.1234 31.492 12.8871 31.2857 12.6642 31.0654C11.1348 29.5538 10.3462 27.5051 10.479 25.3499C10.5803 23.7094 11.2371 22.1448 12.3321 20.9185C13.7808 19.2958 15.8074 18.3951 17.9744 18.3951C18.3558 18.3951 18.733 18.4237 19.1036 18.4786V22.4545C18.7431 22.3354 18.3658 22.2747 17.9861 22.2748C16.0063 22.2748 14.4047 23.89 14.4343 25.8712C14.4531 27.1389 15.1455 28.247 16.1668 28.8578C16.6588 29.1528 17.2153 29.3235 17.7881 29.355C18.2337 29.3798 18.6799 29.3206 19.1036 29.1805C20.5181 28.7133 21.5385 27.3847 21.5385 25.8178L21.5431 19.9569V9.25672H25.459C25.4622 9.63733 25.5012 10.0168 25.5753 10.3901C25.8709 11.875 26.7078 13.1632 27.8727 14.0414C28.8884 14.8075 30.1531 15.2617 31.524 15.2617C31.5249 15.2617 31.5362 15.2617 31.5352 15.2607V16.3158H31.5353Z" fill="#636363"/>
</g>
<path d="M38 45.9756C43.5 45.9756 48 41.4756 48 35.9756C48 30.4756 43.5 25.9756 38 25.9756C32.5 25.9756 28 30.4756 28 35.9756C28 41.4756 32.5 45.9756 38 45.9756Z" fill="#BC61F5" stroke="#0F0F0F" stroke-width="1.5" stroke-linecap="round" stroke-linejoin="round"/>
<path d="M34 35.9756H42" stroke="white" stroke-width="1.5" stroke-linecap="round" stroke-linejoin="round"/>
<path d="M38 39.9756V31.9756" stroke="white" stroke-width="1.5" stroke-linecap="round" stroke-linejoin="round"/>
<defs>
<clipPath id="clip0_303_8211">
<rect width="42" height="42" fill="white" transform="translate(0 0.248047)"/>
</clipPath>
</defs>
</svg>
