<svg width="51" height="48" viewBox="0 0 51 48" fill="none" xmlns="http://www.w3.org/2000/svg">
<g clip-path="url(#clip0_303_8179)">
<path d="M21 0.248047C9.40382 0.248047 0 9.65186 0 21.248C0 32.8442 9.40382 42.248 21 42.248C32.5962 42.248 42 32.8442 42 21.248C42 9.65186 32.5962 0.248047 21 0.248047ZM21.4451 33.4748C21.4448 33.4748 21.4454 33.4748 21.4451 33.4748H21.4399C19.3363 33.474 17.2692 32.9465 15.4334 31.9454L8.77062 33.6928L10.5538 27.1815C9.45377 25.2762 8.87504 23.1146 8.87603 20.9001C8.8789 13.9723 14.5173 8.33616 21.4451 8.33616C24.8071 8.33739 27.9631 9.64604 30.3359 12.0208C32.7091 14.3959 34.0151 17.5528 34.0138 20.91C34.0109 27.8381 28.3719 33.4749 21.445 33.4749L21.4451 33.4748Z" fill="#636363"/>
<path d="M21.4494 10.458C15.687 10.458 11.0007 15.1424 10.998 20.9006C10.9975 22.8738 11.5499 24.7955 12.5954 26.4582L12.8438 26.8533L11.7883 30.7072L15.7422 29.6703L16.1238 29.8965C17.7275 30.8482 19.5662 31.3516 21.4407 31.3523H21.4448C27.2027 31.3523 31.8891 26.6675 31.8917 20.909C31.8926 18.1182 30.807 15.4946 28.8348 13.5207C26.8625 11.5468 24.2394 10.4589 21.4494 10.458ZM27.594 25.3906C27.3322 26.1237 26.0777 26.7931 25.4743 26.8835C24.9331 26.9642 24.2487 26.9979 23.4963 26.7591C23.04 26.6143 22.4552 26.4211 21.7057 26.0978C18.5555 24.7378 16.498 21.5668 16.341 21.3572C16.184 21.1477 15.0586 19.6548 15.0586 18.1093C15.0586 16.5642 15.8699 15.8045 16.1577 15.4904C16.4457 15.176 16.7861 15.0975 16.9953 15.0975C17.2045 15.0975 17.4141 15.0995 17.5971 15.1084C17.79 15.118 18.0489 15.0351 18.3037 15.6474C18.5654 16.2762 19.1935 17.8212 19.272 17.9783C19.3506 18.1356 19.4027 18.3189 19.2983 18.5285C19.1935 18.738 18.8455 19.1902 18.5133 19.6023C18.3738 19.775 18.1922 19.9288 18.3754 20.2431C18.5584 20.5571 19.189 21.5854 20.1225 22.4179C21.3222 23.4875 22.334 23.8188 22.6481 23.9762C22.9618 24.1332 23.1451 24.1069 23.3284 23.8977C23.5113 23.6881 24.1134 22.9809 24.3226 22.6666C24.532 22.3522 24.7415 22.4047 25.0292 22.5095C25.3173 22.614 26.8612 23.3737 27.1752 23.5308C27.4892 23.6881 27.6985 23.7666 27.777 23.8977C27.8558 24.0287 27.8558 24.6571 27.594 25.3906Z" fill="#636363"/>
</g>
<path d="M38.4844 45.9756C43.9844 45.9756 48.4844 41.4756 48.4844 35.9756C48.4844 30.4756 43.9844 25.9756 38.4844 25.9756C32.9844 25.9756 28.4844 30.4756 28.4844 35.9756C28.4844 41.4756 32.9844 45.9756 38.4844 45.9756Z" fill="#BC61F5" stroke="#0F0F0F" stroke-width="1.5" stroke-linecap="round" stroke-linejoin="round"/>
<path d="M34.4844 35.9756H42.4844" stroke="white" stroke-width="1.5" stroke-linecap="round" stroke-linejoin="round"/>
<path d="M38.4844 39.9756V31.9756" stroke="white" stroke-width="1.5" stroke-linecap="round" stroke-linejoin="round"/>
<defs>
<clipPath id="clip0_303_8179">
<rect width="42" height="42" fill="white" transform="translate(0 0.248047)"/>
</clipPath>
</defs>
</svg>
