<svg width="51" height="48" viewBox="0 0 51 48" fill="none" xmlns="http://www.w3.org/2000/svg">
<g clip-path="url(#clip0_303_8190)">
<circle cx="21.4844" cy="21.335" r="21" fill="#636363"/>
<path d="M16.7718 30.9879C16.7393 30.9879 16.696 31.0096 16.6635 31.0096C14.5618 29.9696 12.8501 28.2471 11.7993 26.1454C11.7993 26.1129 11.821 26.0696 11.821 26.0371C13.1426 26.4271 14.5076 26.7196 15.8618 26.9471C16.1002 28.3121 16.3818 29.6663 16.7718 30.9879Z" fill="#0F0F0F"/>
<path d="M31.1693 26.1563C30.0968 28.3121 28.3093 30.0563 26.1318 31.1071C26.5435 29.7313 26.8902 28.3446 27.1177 26.9471C28.4827 26.7196 29.826 26.4271 31.1477 26.0371C31.1368 26.0804 31.1693 26.1238 31.1693 26.1563Z" fill="#0F0F0F"/>
<path d="M31.256 16.6876C29.891 16.276 28.5152 15.9401 27.1177 15.7018C26.8902 14.3043 26.5543 12.9176 26.1318 11.5635C28.3743 12.636 30.1835 14.4451 31.256 16.6876Z" fill="#0F0F0F"/>
<path d="M16.7721 11.6829C16.3821 13.0046 16.1004 14.3479 15.8729 15.7129C14.4754 15.9296 13.0887 16.2762 11.7129 16.6879C12.7637 14.5104 14.5079 12.7229 16.6637 11.6504C16.6962 11.6504 16.7396 11.6829 16.7721 11.6829Z" fill="#0F0F0F"/>
<path d="M25.2653 15.4745C22.7519 15.1928 20.2169 15.1928 17.7036 15.4745C17.9744 13.9903 18.3211 12.5061 18.8086 11.0761C18.8303 10.9895 18.8194 10.9245 18.8303 10.8378C19.6861 10.632 20.5636 10.502 21.4844 10.502C22.3944 10.502 23.2828 10.632 24.1278 10.8378C24.1386 10.9245 24.1386 10.9895 24.1603 11.0761C24.6478 12.517 24.9944 13.9903 25.2653 15.4745Z" fill="#0F0F0F"/>
<path d="M15.6239 25.1154C14.1289 24.8445 12.6555 24.4979 11.2255 24.0104C11.1389 23.9887 11.0739 23.9995 10.9872 23.9887C10.7814 23.1329 10.6514 22.2554 10.6514 21.3345C10.6514 20.4245 10.7814 19.5362 10.9872 18.6912C11.0739 18.6804 11.1389 18.6804 11.2255 18.6587C12.6664 18.182 14.1289 17.8245 15.6239 17.5537C15.353 20.067 15.353 22.602 15.6239 25.1154Z" fill="#0F0F0F"/>
<path d="M32.3177 21.3345C32.3177 22.2554 32.1877 23.1329 31.9819 23.9887C31.8952 23.9995 31.8302 23.9887 31.7435 24.0104C30.3027 24.487 28.8294 24.8445 27.3452 25.1154C27.6269 22.602 27.6269 20.067 27.3452 17.5537C28.8294 17.8245 30.3135 18.1712 31.7435 18.6587C31.8302 18.6804 31.8952 18.6912 31.9819 18.6912C32.1877 19.547 32.3177 20.4245 32.3177 21.3345Z" fill="#0F0F0F"/>
<path d="M25.2653 27.1953C24.9944 28.6903 24.6478 30.1636 24.1603 31.5936C24.1386 31.6803 24.1386 31.7453 24.1278 31.832C23.2828 32.0378 22.3944 32.1678 21.4844 32.1678C20.5636 32.1678 19.6861 32.0378 18.8303 31.832C18.8194 31.7453 18.8303 31.6803 18.8086 31.5936C18.3319 30.1528 17.9744 28.6903 17.7036 27.1953C18.9603 27.3361 20.2169 27.4336 21.4844 27.4336C22.7519 27.4336 24.0194 27.3361 25.2653 27.1953Z" fill="#0F0F0F"/>
<path d="M25.5616 25.4122C22.8521 25.7541 20.1173 25.7541 17.4078 25.4122C17.0659 22.7027 17.0659 19.9679 17.4078 17.2583C20.1173 16.9165 22.8521 16.9165 25.5616 17.2583C25.9035 19.9679 25.9035 22.7027 25.5616 25.4122Z" fill="#0F0F0F"/>
</g>
<path d="M38.9688 45.9756C44.4688 45.9756 48.9688 41.4756 48.9688 35.9756C48.9688 30.4756 44.4688 25.9756 38.9688 25.9756C33.4688 25.9756 28.9688 30.4756 28.9688 35.9756C28.9688 41.4756 33.4688 45.9756 38.9688 45.9756Z" fill="#BC61F5" stroke="#0F0F0F" stroke-width="1.5" stroke-linecap="round" stroke-linejoin="round"/>
<path d="M34.9688 35.9756H42.9688" stroke="white" stroke-width="1.5" stroke-linecap="round" stroke-linejoin="round"/>
<path d="M38.9688 39.9756V31.9756" stroke="white" stroke-width="1.5" stroke-linecap="round" stroke-linejoin="round"/>
<defs>
<clipPath id="clip0_303_8190">
<rect width="42" height="42" fill="white" transform="translate(0.484375 0.248047)"/>
</clipPath>
</defs>
</svg>
