<svg width="49" height="20" viewBox="0 0 49 20" fill="none" xmlns="http://www.w3.org/2000/svg">
<g clip-path="url(#clip0_547_8369)">
<path d="M8.86751 2.569C8.29879 3.24199 7.38864 3.77299 6.4786 3.69706C6.36485 2.78711 6.81035 1.82009 7.33177 1.22284C7.90049 0.5309 8.89594 0.0379147 9.70172 0C9.79651 0.947962 9.42675 1.87697 8.86751 2.569ZM9.69225 3.87725C8.37452 3.80142 7.24646 4.62607 6.62078 4.62607C5.98571 4.62607 5.02817 3.91517 3.98542 3.93412C2.62988 3.95308 1.36902 4.72085 0.676985 5.94379C-0.745005 8.38957 0.307317 12.0109 1.68182 14.0016C2.3549 14.9875 3.16068 16.0682 4.22239 16.0302C5.22732 15.9923 5.62542 15.3762 6.83888 15.3762C8.06172 15.3762 8.41253 16.0302 9.47424 16.0113C10.5739 15.9923 11.2659 15.0255 11.939 14.0395C12.7067 12.9209 13.0196 11.8307 13.0386 11.7738C13.0196 11.7549 10.9152 10.9492 10.8962 8.52227C10.8773 6.49365 12.5552 5.52673 12.631 5.46986C11.683 4.06682 10.2042 3.91517 9.69225 3.87725ZM17.3046 1.12806V15.9071H19.5986V10.8544H22.7743C25.6751 10.8544 27.7133 8.8637 27.7133 5.9818C27.7133 3.1 25.713 1.12815 22.8502 1.12815H17.3045L17.3046 1.12806ZM19.5986 3.06199H22.2434C24.2342 3.06199 25.3718 4.1237 25.3718 5.99118C25.3718 7.85867 24.2342 8.92995 22.234 8.92995H19.5986V3.06199ZM31.9033 16.0208C33.3443 16.0208 34.6809 15.2909 35.2876 14.1343H35.335V15.907H37.4585V8.55071C37.4585 6.41782 35.7521 5.04322 33.1262 5.04322C30.6899 5.04322 28.8887 6.43678 28.8224 8.35166H30.889C31.0596 7.44161 31.9032 6.84436 33.0598 6.84436C34.4629 6.84436 35.2497 7.49848 35.2497 8.70246V9.51763L32.3867 9.68825C29.723 9.84938 28.2821 10.9396 28.2821 12.8356C28.2821 14.7505 29.7703 16.0208 31.9033 16.0208ZM32.5194 14.267C31.2967 14.267 30.5193 13.6793 30.5193 12.7787C30.5193 11.8498 31.2682 11.3094 32.6996 11.2241L35.2497 11.0629V11.8971C35.2497 13.2811 34.0742 14.267 32.5195 14.267H32.5194ZM40.2929 19.9264C42.5302 19.9264 43.5824 19.0734 44.5019 16.4853L48.5308 5.1854H46.1988L43.4971 13.9162H43.4497L40.748 5.1854H38.3496L42.2362 15.9449L42.0277 16.5991C41.677 17.7082 41.1082 18.1348 40.0939 18.1348C39.9138 18.1348 39.563 18.1158 39.4208 18.0969V19.8696C39.5535 19.9075 40.1222 19.9264 40.2929 19.9264Z" fill="white"/>
</g>
<defs>
<clipPath id="clip0_547_8369">
<rect width="48.5308" height="20" fill="white"/>
</clipPath>
</defs>
</svg>
