<svg width="53" height="53" viewBox="0 0 53 53" fill="none" xmlns="http://www.w3.org/2000/svg">
<circle cx="26.5" cy="26.5" r="26.5" fill="#BC61F5"/>
<path d="M36.0832 33.2083V36.0833H16.9165V33.2083C16.9165 32.6813 17.3478 32.25 17.8748 32.25H35.1248C35.6519 32.25 36.0832 32.6813 36.0832 33.2083Z" fill="white" stroke="white" stroke-width="1.5" stroke-miterlimit="10" stroke-linecap="round" stroke-linejoin="round"/>
<path d="M21.7082 25.541H19.7915V32.2493H21.7082V25.541Z" fill="white"/>
<path d="M25.5417 25.541H23.625V32.2493H25.5417V25.541Z" fill="white"/>
<path d="M29.3752 25.541H27.4585V32.2493H29.3752V25.541Z" fill="white"/>
<path d="M33.2082 25.541H31.2915V32.2493H33.2082V25.541Z" fill="white"/>
<path d="M37.0418 36.8027H15.9585C15.5656 36.8027 15.2397 36.4769 15.2397 36.084C15.2397 35.6911 15.5656 35.3652 15.9585 35.3652H37.0418C37.4347 35.3652 37.7606 35.6911 37.7606 36.084C37.7606 36.4769 37.4347 36.8027 37.0418 36.8027Z" fill="white"/>
<path d="M35.4794 20.5095L26.8544 17.0595C26.6628 16.9828 26.3369 16.9828 26.1453 17.0595L17.5203 20.5095C17.1848 20.6436 16.9165 21.0365 16.9165 21.4007V24.5824C16.9165 25.1095 17.3478 25.5407 17.8748 25.5407H35.1248C35.6519 25.5407 36.0832 25.1095 36.0832 24.5824V21.4007C36.0832 21.0365 35.8148 20.6436 35.4794 20.5095ZM26.4998 23.1449C25.7044 23.1449 25.0623 22.5028 25.0623 21.7074C25.0623 20.912 25.7044 20.2699 26.4998 20.2699C27.2953 20.2699 27.9373 20.912 27.9373 21.7074C27.9373 22.5028 27.2953 23.1449 26.4998 23.1449Z" fill="white"/>
</svg>
