<svg width="44" height="44" viewBox="0 0 44 44" fill="none" xmlns="http://www.w3.org/2000/svg">
<path d="M34.832 30.0833V34.8333H3.16528V30.0833C3.16528 29.2125 3.87778 28.5 4.74862 28.5H33.2486C34.1195 28.5 34.832 29.2125 34.832 30.0833Z" fill="white" stroke="white" stroke-width="1.5" stroke-miterlimit="10" stroke-linecap="round" stroke-linejoin="round"/>
<path d="M11.0819 17.4111H7.91528V28.4945H11.0819V17.4111Z" fill="white"/>
<path d="M17.4167 17.4111H14.25V28.4945H17.4167V17.4111Z" fill="white"/>
<path d="M23.7514 17.4111H20.5847V28.4945H23.7514V17.4111Z" fill="white"/>
<path d="M30.0819 17.4111H26.9153V28.4945H30.0819V17.4111Z" fill="white"/>
<path d="M36.418 36.0264H1.58472C0.93555 36.0264 0.397217 35.488 0.397217 34.8389C0.397217 34.1897 0.93555 33.6514 1.58472 33.6514H36.418C37.0672 33.6514 37.6055 34.1897 37.6055 34.8389C37.6055 35.488 37.0672 36.0264 36.418 36.0264Z" fill="white"/>
<path d="M33.8345 9.10067L19.5845 3.40066C19.2678 3.274 18.7295 3.274 18.4128 3.40066L4.16278 9.10067C3.60862 9.32233 3.16528 9.9715 3.16528 10.5732V15.8298C3.16528 16.7007 3.87778 17.4132 4.74862 17.4132H33.2486C34.1195 17.4132 34.832 16.7007 34.832 15.8298V10.5732C34.832 9.9715 34.3886 9.32233 33.8345 9.10067ZM18.9986 13.4548C17.6845 13.4548 16.6236 12.394 16.6236 11.0798C16.6236 9.76567 17.6845 8.70483 18.9986 8.70483C20.3128 8.70483 21.3736 9.76567 21.3736 11.0798C21.3736 12.394 20.3128 13.4548 18.9986 13.4548Z" fill="white"/>
<circle cx="31" cy="31" r="12" fill="white" stroke="#BC61F5" stroke-width="2"/>
<g clip-path="url(#clip0_302_7726)">
<path d="M29.5 27V26M32.5 35V36M27 29.5H26M35 32.5H36M27.4571 27.4571L26.75 26.75M34.5429 34.5429L35.25 35.25M31 33.8284L29.9393 34.8891C29.1583 35.6701 27.892 35.6701 27.1109 34.8891C26.3299 34.108 26.3299 32.8417 27.1109 32.0607L28.1716 31M33.8284 31L34.8891 29.9393C35.6701 29.1583 35.6701 27.892 34.8891 27.1109C34.108 26.3299 32.8417 26.3299 32.0607 27.1109L31 28.1716" stroke="#302735" stroke-linecap="round" stroke-linejoin="round"/>
</g>
<defs>
<clipPath id="clip0_302_7726">
<rect width="12" height="12" fill="white" transform="translate(25 25)"/>
</clipPath>
</defs>
</svg>
