<svg width="26" height="26" viewBox="0 0 26 26" fill="none" xmlns="http://www.w3.org/2000/svg">
<path d="M24.9168 20.5833C24.9168 21.158 24.6886 21.7091 24.2822 22.1154C23.8759 22.5217 23.3248 22.75 22.7502 22.75H3.25016C2.67553 22.75 2.12443 22.5217 1.7181 22.1154C1.31177 21.7091 1.0835 21.158 1.0835 20.5833V8.66667C1.0835 8.09203 1.31177 7.54093 1.7181 7.1346C2.12443 6.72827 2.67553 6.5 3.25016 6.5H7.5835L9.75016 3.25H16.2502L18.4168 6.5H22.7502C23.3248 6.5 23.8759 6.72827 24.2822 7.1346C24.6886 7.54093 24.9168 8.09203 24.9168 8.66667V20.5833Z" stroke="white" stroke-width="1.5" stroke-linecap="round" stroke-linejoin="round"/>
<path d="M12.9998 18.4167C15.3931 18.4167 17.3332 16.4766 17.3332 14.0833C17.3332 11.6901 15.3931 9.75 12.9998 9.75C10.6066 9.75 8.6665 11.6901 8.6665 14.0833C8.6665 16.4766 10.6066 18.4167 12.9998 18.4167Z" stroke="white" stroke-width="1.5" stroke-linecap="round" stroke-linejoin="round"/>
</svg>
