<svg width="28" height="28" viewBox="0 0 28 28" fill="none" xmlns="http://www.w3.org/2000/svg">
<path d="M5.95666 22.0433C4.94997 21.0367 5.61767 18.9232 5.10527 17.6847C4.5741 16.401 2.625 15.3677 2.625 14C2.625 12.6322 4.57411 11.599 5.10528 10.3152C5.61768 9.07684 4.94997 6.96335 5.95666 5.95666C6.96335 4.94997 9.07685 5.61767 10.3153 5.10527C11.599 4.5741 12.6323 2.625 14 2.625C15.3678 2.625 16.401 4.57411 17.6848 5.10528C18.9232 5.61768 21.0367 4.94997 22.0433 5.95666C23.05 6.96335 22.3823 9.07685 22.8947 10.3153C23.4259 11.599 25.375 12.6323 25.375 14C25.375 15.3678 23.4259 16.401 22.8947 17.6848C22.3823 18.9232 23.05 21.0367 22.0433 22.0433C21.0367 23.05 18.9232 22.3823 17.6847 22.8947C16.401 23.4259 15.3677 25.375 14 25.375C12.6322 25.375 11.599 23.4259 10.3152 22.8947C9.07684 22.3823 6.96335 23.05 5.95666 22.0433Z" fill="#7B7B7B"/>
<path d="M14 21C14.5523 21 15 20.5523 15 20C15 19.4477 14.5523 19 14 19C13.4477 19 13 19.4477 13 20C13 20.5523 13.4477 21 14 21Z" fill="#0F0F0F"/>
<path d="M13.9999 16.751V14.876C14.6056 14.876 15.1977 14.6964 15.7013 14.3599C16.2049 14.0233 16.5975 13.545 16.8293 12.9854C17.0611 12.4258 17.1217 11.8101 17.0035 11.216C16.8854 10.6219 16.5937 10.0763 16.1654 9.64796C15.7371 9.21967 15.1914 8.92799 14.5973 8.80982C14.0033 8.69166 13.3875 8.7523 12.8279 8.9841C12.2683 9.21589 11.79 9.60842 11.4535 10.112C11.117 10.6157 10.9374 11.2078 10.9374 11.8135" stroke="#0F0F0F" stroke-width="1.5" stroke-linecap="round" stroke-linejoin="round"/>
</svg>
