<svg width="197" height="197" viewBox="0 0 197 197" fill="none" xmlns="http://www.w3.org/2000/svg">
<g filter="url(#filter0_f_1171_29337)">
<rect x="75" y="75" width="47" height="47" rx="23.5" fill="#BC61F5"/>
</g>
<path d="M71.5719 125.428C68.2642 122.12 70.4581 115.176 68.7745 111.107C67.0292 106.889 60.625 103.494 60.625 98.9999C60.625 94.5058 67.0292 91.111 68.7745 86.8929C70.4581 82.8239 68.2642 75.8796 71.5719 72.5719C74.8796 69.2642 81.8239 71.4581 85.893 69.7745C90.1111 68.0292 93.506 61.625 98.0001 61.625C102.494 61.625 105.889 68.0292 110.107 69.7745C114.176 71.4581 121.12 69.2642 124.428 72.5719C127.736 75.8796 125.542 82.8239 127.226 86.893C128.971 91.1111 135.375 94.506 135.375 99.0001C135.375 103.494 128.971 106.889 127.226 111.107C125.542 115.176 127.736 122.12 124.428 125.428C121.12 128.736 114.176 126.542 110.107 128.226C105.889 129.971 102.494 136.375 97.9999 136.375C93.5058 136.375 90.111 129.971 85.8929 128.226C81.8239 126.542 74.8796 128.736 71.5719 125.428Z" fill="#BC61F5"/>
<path d="M98.0001 121.999C99.8147 121.999 101.286 120.528 101.286 118.713C101.286 116.899 99.8147 115.428 98.0001 115.428C96.1854 115.428 94.7144 116.899 94.7144 118.713C94.7144 120.528 96.1854 121.999 98.0001 121.999Z" fill="white"/>
<path d="M98 108.038V101.877C99.9902 101.877 101.936 101.287 103.59 100.181C105.245 99.0754 106.535 97.5039 107.297 95.6652C108.058 93.8265 108.257 91.8033 107.869 89.8514C107.481 87.8994 106.523 86.1065 105.115 84.6992C103.708 83.2919 101.915 82.3336 99.9631 81.9453C98.0112 81.557 95.9879 81.7563 94.1492 82.5179C92.3106 83.2795 90.739 84.5693 89.6333 86.224C88.5277 87.8788 87.9375 89.8243 87.9375 91.8145" stroke="white" stroke-width="2" stroke-linecap="round" stroke-linejoin="round"/>
<defs>
<filter id="filter0_f_1171_29337" x="0" y="0" width="197" height="197" filterUnits="userSpaceOnUse" color-interpolation-filters="sRGB">
<feFlood flood-opacity="0" result="BackgroundImageFix"/>
<feBlend mode="normal" in="SourceGraphic" in2="BackgroundImageFix" result="shape"/>
<feGaussianBlur stdDeviation="37.5" result="effect1_foregroundBlur_1171_29337"/>
</filter>
</defs>
</svg>
