<svg width="78" height="56" viewBox="0 0 78 56" fill="none" xmlns="http://www.w3.org/2000/svg">
<path d="M48 23C48 18.0294 43.9706 14 39 14C34.0294 14 30 18.0294 30 23C30 27.9706 34.0294 32 39 32C43.9706 32 48 27.9706 48 23Z" fill="#0F0F0F" stroke="white" stroke-width="2" stroke-linecap="round" stroke-linejoin="round"/>
<path d="M43 32C43 29.7909 41.2091 28 39 28C36.7909 28 35 29.7909 35 32C35 34.2091 36.7909 36 39 36C41.2091 36 43 34.2091 43 32Z" fill="#0F0F0F" stroke="white" stroke-width="2" stroke-linecap="round" stroke-linejoin="round"/>
<path d="M34 23C34 20.7909 32.2091 19 30 19C27.7909 19 26 20.7909 26 23C26 25.2091 27.7909 27 30 27C32.2091 27 34 25.2091 34 23Z" fill="#0F0F0F" stroke="white" stroke-width="2" stroke-linecap="round" stroke-linejoin="round"/>
<path d="M52 23C52 20.7909 50.2091 19 48 19C45.7909 19 44 20.7909 44 23C44 25.2091 45.7909 27 48 27C50.2091 27 52 25.2091 52 23Z" fill="#0F0F0F" stroke="white" stroke-width="2" stroke-linecap="round" stroke-linejoin="round"/>
<path d="M43 14C43 11.7909 41.2091 10 39 10C36.7909 10 35 11.7909 35 14C35 16.2091 36.7909 18 39 18C41.2091 18 43 16.2091 43 14Z" fill="#0F0F0F" stroke="white" stroke-width="2" stroke-linecap="round" stroke-linejoin="round"/>
<g opacity="0.5" filter="url(#filter0_f_2339_14175)">
<circle cx="39" cy="23" r="12" fill="#BC61F5"/>
</g>
<path d="M6.73107 49.348C6.73107 47.148 8.02907 45.498 10.1191 45.498C12.0881 45.498 13.1771 46.884 13.2431 48.424H11.8681C11.7911 47.566 11.2631 46.697 10.1301 46.697C8.88707 46.697 8.15007 47.841 8.15007 49.348C8.15007 50.877 8.85407 51.944 10.1081 51.944C11.2081 51.944 11.7251 51.163 11.8791 50.184H13.2431C13.1001 51.834 12.0441 53.132 10.1191 53.132C7.89707 53.132 6.73107 51.592 6.73107 49.348ZM14.1859 49.348C14.1859 47.115 15.4839 45.498 17.6069 45.498C19.7299 45.498 20.9839 47.137 20.9839 49.282C20.9839 51.526 19.6969 53.132 17.5739 53.132C15.4509 53.132 14.1859 51.482 14.1859 49.348ZM19.5649 49.315C19.5649 47.83 18.8609 46.697 17.5959 46.697C16.3199 46.697 15.6049 47.83 15.6049 49.315C15.6049 50.8 16.3199 51.933 17.5849 51.933C18.8499 51.933 19.5649 50.8 19.5649 49.315ZM23.988 48.446C23.867 48.116 23.746 47.764 23.636 47.368H23.592V53H22.305V45.63H24.263L25.836 50.063C25.979 50.448 26.111 50.844 26.221 51.273H26.254C26.375 50.844 26.507 50.448 26.639 50.052L28.201 45.63H30.137V53H28.85V47.368H28.806C28.696 47.764 28.575 48.116 28.443 48.49L26.826 53H25.605L23.988 48.446ZM33.5163 48.446C33.3953 48.116 33.2743 47.764 33.1643 47.368H33.1203V53H31.8333V45.63H33.7913L35.3643 50.063C35.5073 50.448 35.6393 50.844 35.7493 51.273H35.7823C35.9033 50.844 36.0353 50.448 36.1673 50.052L37.7293 45.63H39.6653V53H38.3783V47.368H38.3343C38.2243 47.764 38.1033 48.116 37.9713 48.49L36.3543 53H35.1333L33.5163 48.446ZM41.3176 50.294V45.63H42.6926V50.129C42.6926 51.262 43.2206 51.922 44.2766 51.922C45.2776 51.922 45.8276 51.262 45.8276 50.162V45.63H47.2026V50.316C47.2026 51.999 46.1356 53.132 44.2766 53.132C42.2856 53.132 41.3176 52.021 41.3176 50.294ZM48.849 45.63H50.213L53.447 50.657H53.469V45.63H54.756V53H53.403L50.158 47.907H50.136V53H48.849V45.63ZM56.4544 45.63H57.8294V53H56.4544V45.63ZM61.1437 46.84H58.8447V45.63H64.8177V46.84H62.5187V53H61.1437V46.84ZM71.7375 45.63L69.0975 50.052V53H67.7225V50.052L65.0715 45.63H66.6115L68.4155 48.644H68.4595L70.2415 45.63H71.7375Z" fill="#BDBDBD"/>
<defs>
<filter id="filter0_f_2339_14175" x="17" y="1" width="44" height="44" filterUnits="userSpaceOnUse" color-interpolation-filters="sRGB">
<feFlood flood-opacity="0" result="BackgroundImageFix"/>
<feBlend mode="normal" in="SourceGraphic" in2="BackgroundImageFix" result="shape"/>
<feGaussianBlur stdDeviation="5" result="effect1_foregroundBlur_2339_14175"/>
</filter>
</defs>
</svg>
