<svg width="78" height="56" viewBox="0 0 78 56" fill="none" xmlns="http://www.w3.org/2000/svg">
<path d="M48 23C48 18.0294 43.9706 14 39 14C34.0294 14 30 18.0294 30 23C30 27.9706 34.0294 32 39 32C43.9706 32 48 27.9706 48 23Z" fill="#0F0F0F" stroke="#9B9B9B" stroke-width="2" stroke-linecap="round" stroke-linejoin="round"/>
<path d="M43 32C43 29.7909 41.2091 28 39 28C36.7909 28 35 29.7909 35 32C35 34.2091 36.7909 36 39 36C41.2091 36 43 34.2091 43 32Z" fill="#0F0F0F" stroke="#9B9B9B" stroke-width="2" stroke-linecap="round" stroke-linejoin="round"/>
<path d="M34 23C34 20.7909 32.2091 19 30 19C27.7909 19 26 20.7909 26 23C26 25.2091 27.7909 27 30 27C32.2091 27 34 25.2091 34 23Z" fill="#0F0F0F" stroke="#9B9B9B" stroke-width="2" stroke-linecap="round" stroke-linejoin="round"/>
<path d="M52 23C52 20.7909 50.2091 19 48 19C45.7909 19 44 20.7909 44 23C44 25.2091 45.7909 27 48 27C50.2091 27 52 25.2091 52 23Z" fill="#0F0F0F" stroke="#9B9B9B" stroke-width="2" stroke-linecap="round" stroke-linejoin="round"/>
<path d="M43 14C43 11.7909 41.2091 10 39 10C36.7909 10 35 11.7909 35 14C35 16.2091 36.7909 18 39 18C41.2091 18 43 16.2091 43 14Z" fill="#0F0F0F" stroke="#9B9B9B" stroke-width="2" stroke-linecap="round" stroke-linejoin="round"/>
</svg>
