<svg width="95" height="113" viewBox="0 0 95 113" fill="none" xmlns="http://www.w3.org/2000/svg">
<path d="M0.8 103.547C0.8 100.347 2.656 97.9474 5.648 97.9474C8.448 97.9474 9.968 99.9474 10.08 102.091H8.432C8.288 100.763 7.456 99.4034 5.648 99.4034C3.664 99.4034 2.496 101.195 2.496 103.547C2.496 105.915 3.632 107.611 5.632 107.611C7.376 107.611 8.208 106.411 8.432 104.891H10.08C9.84 107.227 8.384 109.051 5.632 109.051C2.432 109.051 0.8 106.779 0.8 103.547ZM11.851 100.763H13.435V102.667H13.467C13.803 101.499 14.619 100.635 15.803 100.635C16.107 100.635 16.331 100.651 16.603 100.715V102.363C16.267 102.267 15.979 102.235 15.691 102.235C14.571 102.235 13.451 103.099 13.451 105.147V108.859H11.851V100.763ZM24.4274 104.539C24.4274 104.715 24.4114 104.955 24.3954 105.179H18.9074C18.9394 106.811 19.7394 107.659 21.0034 107.659C22.2034 107.659 22.7634 106.907 22.8434 106.139H24.3474C24.2514 107.643 23.0674 109.019 20.9874 109.019C18.7154 109.019 17.2594 107.531 17.2594 104.827C17.2594 102.139 18.8914 100.603 20.9234 100.603C23.0354 100.603 24.4274 102.059 24.4274 104.539ZM20.9234 101.899C19.8834 101.899 19.0994 102.619 18.9394 104.059H22.8434C22.7634 102.571 21.9954 101.899 20.9234 101.899ZM25.5971 106.843C25.5971 104.683 27.7731 104.235 30.5891 104.187V103.563C30.5891 102.443 30.1251 101.899 29.0531 101.899C28.1251 101.899 27.4531 102.395 27.4531 103.275C27.4531 103.387 27.4531 103.483 27.4691 103.611H25.9651C25.9491 103.483 25.9491 103.387 25.9491 103.275C25.9491 101.675 27.2451 100.603 29.1171 100.603C31.1331 100.603 32.1891 101.659 32.1891 103.595V106.459C32.1891 107.387 32.3011 107.643 32.6851 107.643C32.8131 107.643 32.9251 107.627 33.0371 107.563V108.763C32.8771 108.875 32.4771 108.971 32.1091 108.971C31.0371 108.971 30.7331 108.603 30.6531 107.595H30.6211C30.2051 108.459 29.3411 109.019 28.0611 109.019C26.5091 109.019 25.5971 108.219 25.5971 106.843ZM30.5891 106.251V105.259C28.3651 105.291 27.2291 105.627 27.2291 106.683C27.2291 107.387 27.6451 107.771 28.5731 107.771C29.4211 107.771 30.2371 107.275 30.5891 106.251ZM34.5984 106.667V102.107H33.4944V100.811H33.9264C34.5504 100.811 34.7104 100.635 34.7104 99.7874V98.1394H36.1984V100.763H38.3104V102.107H36.1984V106.379C36.1984 107.371 36.5184 107.643 37.2704 107.643C37.6704 107.643 38.0064 107.563 38.3104 107.419V108.747C38.0064 108.891 37.5104 109.019 36.8704 109.019C35.2544 109.019 34.5984 108.363 34.5984 106.667ZM46.3068 104.539C46.3068 104.715 46.2908 104.955 46.2748 105.179H40.7868C40.8188 106.811 41.6188 107.659 42.8828 107.659C44.0828 107.659 44.6428 106.907 44.7228 106.139H46.2268C46.1308 107.643 44.9468 109.019 42.8668 109.019C40.5948 109.019 39.1388 107.531 39.1388 104.827C39.1388 102.139 40.7708 100.603 42.8028 100.603C44.9148 100.603 46.3068 102.059 46.3068 104.539ZM42.8028 101.899C41.7628 101.899 40.9788 102.619 40.8188 104.059H44.7228C44.6428 102.571 43.8748 101.899 42.8028 101.899ZM56.3506 104.875V103.499H60.5426V108.859H59.1666L59.1026 107.227C58.5266 108.251 57.4866 109.051 55.8546 109.051C52.9266 109.051 51.0386 106.763 51.0386 103.531C51.0386 100.331 53.0226 97.9474 56.0626 97.9474C58.8626 97.9474 60.3826 99.7234 60.5426 101.835H58.8786C58.7346 100.427 57.8386 99.4034 56.0786 99.4034C53.9986 99.4034 52.7506 101.163 52.7506 103.547C52.7506 105.883 53.9186 107.595 56.0626 107.595C57.9026 107.595 58.8946 106.267 59.0386 104.875H56.3506ZM62.6685 100.763H64.2525V102.667H64.2845C64.6205 101.499 65.4365 100.635 66.6205 100.635C66.9245 100.635 67.1485 100.651 67.4205 100.715V102.363C67.0845 102.267 66.7965 102.235 66.5085 102.235C65.3885 102.235 64.2685 103.099 64.2685 105.147V108.859H62.6685V100.763ZM68.0769 104.843C68.0769 102.123 69.7569 100.603 71.8849 100.603C74.0449 100.603 75.6449 102.075 75.6449 104.779C75.6449 107.467 73.9649 109.019 71.8689 109.019C69.6929 109.019 68.0769 107.531 68.0769 104.843ZM74.0129 104.811C74.0129 102.971 73.1169 101.947 71.8849 101.947C70.6209 101.947 69.7249 103.003 69.7249 104.811C69.7249 106.651 70.6209 107.675 71.8689 107.675C73.1169 107.675 74.0129 106.619 74.0129 104.811ZM77.2205 106.219V100.763H78.8365V105.867C78.8365 107.035 79.3325 107.611 80.2925 107.611C81.4125 107.611 82.2605 106.523 82.2605 104.955V100.763H83.8605V108.859H82.2765V107.243H82.2445C81.9245 108.155 81.1565 109.019 79.8605 109.019C78.2125 109.019 77.2205 108.123 77.2205 106.219ZM90.0821 100.603C92.0341 100.603 93.4581 102.043 93.4581 104.747C93.4581 107.355 92.0181 109.019 89.9221 109.019C88.4821 109.019 87.7461 108.139 87.6021 107.611H87.5541V112.299H85.9541V100.763H87.5381V102.283H87.5701C87.8101 101.499 88.5941 100.603 90.0821 100.603ZM89.6181 107.707C90.9461 107.707 91.8261 106.571 91.8261 104.795C91.8261 102.955 90.9461 101.915 89.6981 101.915C88.4981 101.915 87.5541 102.923 87.5541 104.731V105.083C87.5541 106.763 88.4661 107.707 89.6181 107.707Z" fill="white"/>
<circle cx="47.5" cy="43.3594" r="42.5" fill="#BC61F5"/>
<path d="M57.3334 54.8594V46.8594M53.3334 50.8594H61.3334M48.0001 46.8594H42.6667C40.1817 46.8594 38.9392 46.8594 37.9591 47.2654C36.6523 47.8067 35.614 48.8449 35.0727 50.1517C34.6667 51.1318 34.6667 52.3744 34.6667 54.8594M52.6667 31.2471C54.6213 32.0382 56.0001 33.9545 56.0001 36.1927C56.0001 38.431 54.6213 40.3472 52.6667 41.1384M50.0001 36.1927C50.0001 39.1382 47.6123 41.526 44.6667 41.526C41.7212 41.526 39.3334 39.1382 39.3334 36.1927C39.3334 33.2472 41.7212 30.8594 44.6667 30.8594C47.6123 30.8594 50.0001 33.2472 50.0001 36.1927Z" stroke="white" stroke-width="2" stroke-linecap="round" stroke-linejoin="round"/>
</svg>
