<svg width="32" height="32" viewBox="0 0 32 32" fill="none" xmlns="http://www.w3.org/2000/svg">
<path d="M16 2.66699C8.65329 2.66699 2.66663 8.65366 2.66663 16.0003C2.66663 23.347 8.65329 29.3337 16 29.3337C23.3466 29.3337 29.3333 23.347 29.3333 16.0003C29.3333 8.65366 23.3466 2.66699 16 2.66699ZM20.48 19.067C20.8666 19.4537 20.8666 20.0937 20.48 20.4803C20.28 20.6803 20.0266 20.7737 19.7733 20.7737C19.52 20.7737 19.2666 20.6803 19.0666 20.4803L16 17.4137L12.9333 20.4803C12.7333 20.6803 12.48 20.7737 12.2266 20.7737C11.9733 20.7737 11.72 20.6803 11.52 20.4803C11.1333 20.0937 11.1333 19.4537 11.52 19.067L14.5866 16.0003L11.52 12.9337C11.1333 12.547 11.1333 11.907 11.52 11.5203C11.9066 11.1337 12.5466 11.1337 12.9333 11.5203L16 14.587L19.0666 11.5203C19.4533 11.1337 20.0933 11.1337 20.48 11.5203C20.8666 11.907 20.8666 12.547 20.48 12.9337L17.4133 16.0003L20.48 19.067Z" fill="#94999E"/>
</svg>
