<svg width="55" height="20" viewBox="0 0 55 20" fill="none" xmlns="http://www.w3.org/2000/svg">
<path d="M33.857 6.157V4.61H26.445V16H33.857V14.453H28.196V10.951H33.109V9.404H28.196V6.157H33.857ZM41.5009 3.76V8.707H41.4669C41.2629 8.112 40.5149 7.228 39.0359 7.228C36.7749 7.228 35.2279 8.962 35.2279 11.75C35.2279 14.606 36.8089 16.17 38.8489 16.17C40.4299 16.17 41.2799 15.201 41.4839 14.368H41.5349V16H43.2179V3.76H41.5009ZM41.5009 11.784C41.5009 13.688 40.4979 14.776 39.2229 14.776C37.9139 14.776 36.9789 13.671 36.9789 11.699C36.9789 9.812 37.8969 8.622 39.3079 8.622C40.5319 8.622 41.5009 9.659 41.5009 11.41V11.784ZM45.5802 4.066V5.8H47.3482V4.066H45.5802ZM45.6142 7.398V16H47.3142V7.398H45.6142ZM50.1224 13.671C50.1224 15.473 50.8194 16.17 52.5364 16.17C53.2164 16.17 53.7434 16.034 54.0664 15.881V14.47C53.7434 14.623 53.3864 14.708 52.9614 14.708C52.1624 14.708 51.8224 14.419 51.8224 13.365V8.826H54.0664V7.398H51.8224V4.61H50.2414V6.361C50.2414 7.262 50.0714 7.449 49.4084 7.449H48.9494V8.826H50.1224V13.671Z" fill="white"/>
<path d="M7.5 16.8739H3.75C3.58424 16.8739 3.42527 16.8081 3.30806 16.6909C3.19085 16.5737 3.125 16.4147 3.125 16.2489V12.7578C3.125 12.6757 3.14117 12.5945 3.17258 12.5186C3.20398 12.4428 3.25002 12.3739 3.30806 12.3159L12.6831 2.94087C12.8003 2.82366 12.9592 2.75781 13.125 2.75781C13.2908 2.75781 13.4497 2.82366 13.5669 2.94087L17.0581 6.43199C17.1753 6.5492 17.2411 6.70817 17.2411 6.87393C17.2411 7.03969 17.1753 7.19866 17.0581 7.31587L7.5 16.8739Z" stroke="white" stroke-width="1.5" stroke-linecap="round" stroke-linejoin="round"/>
<path d="M10.625 5L15 9.375" stroke="white" stroke-width="1.5" stroke-linecap="round" stroke-linejoin="round"/>
<path d="M16.875 16.8743H7.50003L3.16479 12.5391" stroke="white" stroke-width="1.5" stroke-linecap="round" stroke-linejoin="round"/>
</svg>
