<svg width="66" height="20" viewBox="0 0 66 20" fill="none" xmlns="http://www.w3.org/2000/svg">
<path d="M24.556 5.936V4.61H17.297V16H24.556V14.674H18.776V10.815H23.757V9.489H18.776V5.936H24.556ZM25.4331 7.432L28.5781 16H30.2101L33.3381 7.432H31.8591L29.8701 13.093C29.6831 13.603 29.5811 13.994 29.4621 14.453H29.4281C29.2921 13.977 29.1561 13.586 28.9861 13.093L26.9631 7.432H25.4331ZM41.5765 11.41C41.5765 8.826 40.1655 7.262 37.9385 7.262C35.8305 7.262 34.1475 8.894 34.1475 11.733C34.1475 14.572 35.6435 16.17 38.0235 16.17C40.1995 16.17 41.3895 14.725 41.4915 13.195H40.1485C40.0465 14.062 39.4175 14.929 38.0405 14.929C36.5615 14.929 35.6605 13.926 35.6265 12.056H41.5425C41.5595 11.835 41.5765 11.597 41.5765 11.41ZM37.9385 8.469C39.1625 8.469 40.0465 9.268 40.1485 10.968H35.6605C35.8305 9.319 36.7485 8.469 37.9385 8.469ZM43.6875 7.432V16H45.1325V11.614C45.1325 9.795 46.1185 8.537 47.4615 8.537C48.6175 8.537 49.2295 9.132 49.2295 10.611V16H50.6745V10.271C50.6745 8.299 49.5865 7.262 47.9205 7.262C46.3565 7.262 45.4215 8.197 45.1495 9.2H45.1155V7.432H43.6875ZM53.5082 13.79C53.5082 15.507 54.1712 16.17 55.7862 16.17C56.4322 16.17 56.9422 16.034 57.2652 15.881V14.674C56.9252 14.827 56.5682 14.929 56.1262 14.929C55.2932 14.929 54.9532 14.623 54.9532 13.535V8.673H57.2652V7.432H54.9532V4.61H53.6102V6.429C53.6102 7.296 53.4572 7.483 52.8112 7.483H52.3012V8.673H53.5082V13.79ZM58.2991 13.399C58.2991 15.286 59.6251 16.17 61.6651 16.17C63.7051 16.17 65.0141 15.116 65.0141 13.654C65.0141 11.92 63.8241 11.512 61.8351 11.019C60.5771 10.679 59.9141 10.526 59.9141 9.608C59.9141 8.928 60.6621 8.469 61.6651 8.469C62.8041 8.469 63.4501 8.979 63.4671 9.948H64.8951C64.9291 8.231 63.7051 7.262 61.6481 7.262C59.8801 7.262 58.4691 8.18 58.4691 9.71C58.4691 11.512 59.7611 11.835 61.5971 12.328C62.9911 12.719 63.5691 12.855 63.5691 13.756C63.5691 14.419 62.9231 14.963 61.7161 14.963C60.4751 14.963 59.7781 14.504 59.7271 13.399H58.2991Z" fill="white"/>
<rect x="-0.25" y="0.955078" width="5.34029" height="18.089" fill="#BC61F5"/>
</svg>
