<svg width="51" height="20" viewBox="0 0 51 20" fill="none" xmlns="http://www.w3.org/2000/svg">
<g clip-path="url(#clip0_547_8371)">
<path d="M35.5812 5.3982C36.9611 5.3982 38.0275 5.77458 38.843 6.52732C39.6584 7.27997 40.0346 8.2836 40.0346 9.53811V15.5597H38.2784V14.1799H38.2156C37.463 15.309 36.3966 15.8735 35.1421 15.8735C34.0757 15.8735 33.1348 15.5598 32.3822 14.9326C31.6922 14.3054 31.2531 13.4272 31.2531 12.4863C31.2531 11.4827 31.6295 10.6672 32.3822 10.04C33.1348 9.41271 34.2012 9.16183 35.4557 9.16183C36.5847 9.16183 37.463 9.35007 38.1529 9.78909V9.35007C38.1529 8.76458 37.9343 8.17918 37.4972 7.79771L37.4001 7.71919C36.8984 7.28007 36.2711 7.02919 35.5812 7.02919C34.5148 7.02919 33.6994 7.4683 33.1348 8.34644L31.504 7.34262C32.5076 6.02536 33.8248 5.3982 35.5812 5.3982ZM26.7369 1.13291C27.8624 1.13291 28.932 1.52458 29.7872 2.25497L29.9359 2.38732C30.814 3.14007 31.2531 4.26919 31.2531 5.46095C31.2531 6.65271 30.814 7.71909 29.9359 8.53448C29.0577 9.34997 27.9914 9.78899 26.7369 9.78899L23.7261 9.72624V15.5598H21.8442V1.13281L26.7369 1.13291ZM35.832 10.6672C35.0793 10.6672 34.4521 10.8554 33.9503 11.2317C33.4485 11.5454 33.1976 11.9844 33.1976 12.5489C33.1976 13.0508 33.4486 13.4898 33.8248 13.7408C34.2639 14.0544 34.7657 14.2425 35.2676 14.2425C35.97 14.2425 36.6726 13.9693 37.2221 13.4739L37.3375 13.3644C37.9647 12.7999 38.2784 12.1099 38.2784 11.3571C37.7138 10.9181 36.8984 10.6671 35.8321 10.6671L35.832 10.6672ZM26.8624 2.88919H23.7261V7.90732H26.8624C27.5523 7.90732 28.2423 7.65644 28.6814 7.15468C29.6849 6.21379 29.6849 4.64566 28.7441 3.70468L28.6814 3.64193C28.1795 3.14017 27.5523 2.82654 26.8623 2.88928L26.8624 2.88919ZM50.1962 5.71183L43.9864 19.9506H42.1046L44.4254 14.9953L40.3483 5.77458H42.3555L45.3036 12.8625H45.3663L48.2517 5.77458H50.1962V5.71183Z" fill="white"/>
<path d="M16.2614 8.47087C16.2614 7.90636 16.1986 7.34185 16.1359 6.77734H8.29541V9.97636H12.7488C12.5607 10.9799 11.9962 11.9208 11.1181 12.4854V14.5553H13.8152C15.3834 13.1126 16.2615 10.9799 16.2615 8.47097L16.2614 8.47087Z" fill="#4285F4"/>
<path d="M8.29561 16.5632C10.5537 16.5632 12.4354 15.8105 13.8154 14.556L11.1183 12.4861C10.3655 12.9878 9.42463 13.3015 8.29561 13.3015C6.16287 13.3015 4.2811 11.8588 3.65385 9.85156H0.894043V11.9842C2.33669 14.8069 5.15934 16.5632 8.29561 16.5632Z" fill="#34A853"/>
<path d="M3.6537 9.8512C3.27743 8.84757 3.27743 7.71855 3.6537 6.65218V4.51953H0.893897C-0.297966 6.84041 -0.297966 9.60032 0.893897 11.9838L3.6537 9.8512Z" fill="#FBBC04"/>
<path d="M8.29546 3.26513C9.48723 3.26513 10.6162 3.70425 11.4945 4.51964L13.878 2.13611C12.3725 0.756112 10.3654 -0.0592803 8.35811 0.00336671C5.22184 0.00336671 2.33654 1.75974 0.956543 4.58239L3.71644 6.71503C4.28095 4.70778 6.16272 3.26513 8.29546 3.26513Z" fill="#EA4335"/>
</g>
<defs>
<clipPath id="clip0_547_8371">
<rect width="50.1961" height="20" fill="white"/>
</clipPath>
</defs>
</svg>
