<svg width="78" height="56" viewBox="0 0 78 56" fill="none" xmlns="http://www.w3.org/2000/svg">
<g clip-path="url(#clip0_2339_10359)">
<path d="M52.1899 28.0105C52.8656 26.3676 51.1613 24.1096 49.0553 23.2435C46.9493 22.3773 44.1495 22.783 43.4739 24.4259C42.7982 26.0689 44.4131 26.9956 47.0639 28.0857C49.7146 29.1759 51.5143 29.6534 52.1899 28.0105Z" fill="#0F0F0F" stroke="#9B9B9B" stroke-width="1.75" stroke-linecap="round" stroke-linejoin="round"/>
<path d="M47.1794 19.5464C46.5378 21.1064 46.8538 24.0359 48.4584 24.6958C50.063 25.3557 52.3485 23.4961 52.9901 21.9361C53.6317 20.3761 52.851 18.5765 51.2464 17.9166C49.6418 17.2567 47.821 17.9864 47.1794 19.5464Z" fill="#0F0F0F" stroke="#9B9B9B" stroke-width="1.75" stroke-linecap="round" stroke-linejoin="round"/>
<path d="M24.7678 28.6128C23.9485 27.0366 25.4449 24.6357 27.4654 23.5855C29.4859 22.5352 32.3107 22.6899 33.13 24.2661C33.9493 25.8423 32.4234 26.9092 29.8802 28.2311C27.3371 29.553 25.5872 30.189 24.7678 28.6128Z" fill="#0F0F0F" stroke="#9B9B9B" stroke-width="1.75" stroke-linecap="round" stroke-linejoin="round"/>
<path d="M29.005 19.736C29.783 21.2327 29.7292 24.1786 28.1897 24.9788C26.6503 25.779 24.2082 24.1305 23.4302 22.6338C22.6523 21.1371 23.2695 19.2751 24.809 18.4749C26.3484 17.6747 28.227 18.2393 29.005 19.736Z" fill="#0F0F0F" stroke="#9B9B9B" stroke-width="1.75" stroke-linecap="round" stroke-linejoin="round"/>
<path d="M47.7859 30.1165C47.7859 26.5529 42.9012 23.6641 38.3332 23.6641C33.7651 23.6641 28.8804 26.5529 28.8804 30.1165C28.8804 33.68 32.5835 34.1672 38.3332 34.1672C44.0828 34.1672 47.7859 33.68 47.7859 30.1165Z" fill="#0F0F0F"/>
<path d="M27.899 33.5713L28.8104 32.8429L27.899 33.5713C28.6653 34.5301 29.7035 35.1095 30.762 35.4746C32.79 36.1741 35.4999 36.2791 38.3331 36.2791C41.1663 36.2791 43.8763 36.1741 45.9043 35.4746C46.9627 35.1095 48.001 34.5301 48.7672 33.5713L47.8559 32.8429L48.7672 33.5713C49.5568 32.5834 49.8979 31.3935 49.8979 30.1164C49.8979 27.3175 48.0074 25.1408 45.9254 23.7844C43.7896 22.3928 41.0257 21.5521 38.3331 21.5521C35.6405 21.5521 32.8767 22.3928 30.7408 23.7844C28.6589 25.1408 26.7684 27.3175 26.7684 30.1164C26.7684 31.3935 27.1095 32.5834 27.899 33.5713ZM30.9923 30.1164C30.9923 29.348 31.5489 28.2992 33.0466 27.3234C34.4952 26.3796 36.4577 25.776 38.3331 25.776C40.2086 25.776 42.1711 26.3796 43.6197 27.3234C45.1174 28.2992 45.674 29.348 45.674 30.1164C45.674 30.6198 45.5529 30.8276 45.4677 30.9342C45.3596 31.0694 45.1124 31.2797 44.527 31.4816C43.2666 31.9163 41.2513 32.0552 38.3331 32.0552C35.415 32.0552 33.3997 31.9163 32.1393 31.4816C31.5539 31.2797 31.3066 31.0694 31.1986 30.9342C31.1134 30.8276 30.9923 30.6198 30.9923 30.1164Z" fill="#9B9B9B" stroke="#0F0F0F" stroke-width="2.33333" stroke-linecap="round" stroke-linejoin="round"/>
<path d="M32.031 18.2389C32.031 21.6226 34.8525 26.8164 38.3329 26.8164C41.8133 26.8164 44.6348 21.6226 44.6348 18.2389C44.6348 14.8551 41.8133 12.1121 38.3329 12.1121C34.8525 12.1121 32.031 14.8551 32.031 18.2389Z" fill="#0F0F0F"/>
<path d="M38.3334 28.9284C41.1439 28.9284 43.2732 26.8905 44.5502 24.963C45.8733 22.9658 46.7472 20.4224 46.7472 18.2389C46.7472 13.6319 42.9225 10.0002 38.3334 10.0002C33.7443 10.0002 29.9196 13.6319 29.9196 18.2389C29.9196 20.4224 30.7936 22.9658 32.1167 24.963C33.3937 26.8905 35.5229 28.9284 38.3334 28.9284ZM42.5233 18.2389C42.5233 19.4394 41.9864 21.1848 41.0289 22.6302C40.0282 24.1407 39.0068 24.7045 38.3334 24.7045C37.66 24.7045 36.6387 24.1407 35.638 22.6302C34.6804 21.1848 34.1435 19.4394 34.1435 18.2389C34.1435 16.0756 35.9646 14.224 38.3334 14.224C40.7022 14.224 42.5233 16.0756 42.5233 18.2389Z" fill="#9B9B9B" stroke="#0F0F0F" stroke-width="2.33333" stroke-linecap="round" stroke-linejoin="round"/>
</g>
<defs>
<clipPath id="clip0_2339_10359">
<rect width="32.6667" height="28" fill="white" transform="translate(22 9)"/>
</clipPath>
</defs>
</svg>
