<svg width="18" height="16" viewBox="0 0 18 16" fill="none" xmlns="http://www.w3.org/2000/svg">
<path d="M15.784 10.6196C16.1186 9.80597 15.2746 8.68768 14.2316 8.25873C13.1886 7.82978 11.802 8.03069 11.4673 8.84435C11.1327 9.65801 11.9325 10.117 13.2453 10.6569C14.5581 11.1968 15.4494 11.4333 15.784 10.6196Z" fill="#0F0F0F" stroke="white" stroke-width="1.08605" stroke-linecap="round" stroke-linejoin="round"/>
<path d="M13.3022 6.42831C12.9844 7.20091 13.1409 8.65173 13.9356 8.97855C14.7303 9.30537 15.8622 8.38443 16.18 7.61183C16.4977 6.83923 16.1111 5.94797 15.3164 5.62115C14.5217 5.29433 13.6199 5.65571 13.3022 6.42831Z" fill="#0F0F0F" stroke="white" stroke-width="1.08605" stroke-linecap="round" stroke-linejoin="round"/>
<path d="M2.20173 10.9187C1.79596 10.1381 2.53705 8.94905 3.53771 8.4289C4.53837 7.90875 5.93734 7.98536 6.34311 8.76597C6.74888 9.54659 5.99316 10.075 4.73366 10.7297C3.47417 11.3844 2.60751 11.6993 2.20173 10.9187Z" fill="#0F0F0F" stroke="white" stroke-width="1.08605" stroke-linecap="round" stroke-linejoin="round"/>
<path d="M4.30034 6.52184C4.68563 7.26306 4.65898 8.72206 3.89657 9.11837C3.13417 9.51467 1.92471 8.69821 1.53942 7.95698C1.15412 7.21575 1.45983 6.2936 2.22224 5.8973C2.98464 5.50099 3.91504 5.78061 4.30034 6.52184Z" fill="#0F0F0F" stroke="white" stroke-width="1.08605" stroke-linecap="round" stroke-linejoin="round"/>
<path d="M13.6008 11.6643C13.6008 9.89945 11.1817 8.46875 8.91931 8.46875C6.65697 8.46875 4.23779 9.89945 4.23779 11.6643C4.23779 13.4292 6.07178 13.6704 8.91931 13.6704C11.7668 13.6704 13.6008 13.4292 13.6008 11.6643Z" fill="#0F0F0F"/>
<path d="M6.38135 10.404C5.66015 10.8739 5.43036 11.3542 5.43036 11.6647C5.43036 11.7813 5.44515 11.8538 5.45874 11.8966C5.47155 11.9368 5.48633 11.9606 5.50052 11.9784L6.38135 10.404ZM6.38135 10.404C7.07496 9.95207 8.01917 9.66132 8.91969 9.66132C9.82021 9.66132 10.7644 9.95207 11.458 10.404C12.1792 10.8739 12.409 11.3542 12.409 11.6647C12.409 11.7813 12.3942 11.8538 12.3806 11.8966C12.3678 11.9368 12.353 11.9606 12.3389 11.9784C12.3081 12.0169 12.213 12.1082 11.9395 12.2026C11.3419 12.4087 10.368 12.4786 8.91969 12.4786C7.47142 12.4786 6.49746 12.4087 5.89985 12.2025C5.62637 12.1082 5.53127 12.0169 5.50052 11.9784L6.38135 10.404ZM8.91969 7.27694C7.55787 7.27694 6.16132 7.70154 5.07976 8.4062C4.02872 9.09098 3.04598 10.208 3.04598 11.6647C3.04598 12.3239 3.22249 12.9472 3.63793 13.467C4.04024 13.9704 4.58182 14.2702 5.12236 14.4566C6.15327 14.8122 7.51937 14.863 8.91969 14.863C10.32 14.863 11.6861 14.8122 12.717 14.4566C13.2576 14.2702 13.7991 13.9704 14.2015 13.467C14.6169 12.9472 14.7934 12.3239 14.7934 11.6647C14.7934 10.208 13.8107 9.09098 12.7596 8.4062C11.6781 7.70154 10.2815 7.27694 8.91969 7.27694Z" fill="white" stroke="#0F0F0F" stroke-width="1.44807" stroke-linecap="round" stroke-linejoin="round"/>
<path d="M5.7985 5.78125C5.7985 7.45706 7.19583 10.0293 8.91952 10.0293C10.6432 10.0293 12.0405 7.45706 12.0405 5.78125C12.0405 4.10545 10.6432 2.74694 8.91952 2.74694C7.19583 2.74694 5.7985 4.10545 5.7985 5.78125Z" fill="#0F0F0F"/>
<path d="M8.91962 11.2211C10.3857 11.2211 11.4786 10.1605 12.1204 9.19175C12.7883 8.18354 13.2328 6.89629 13.2328 5.78087C13.2328 3.41445 11.2691 1.55437 8.91963 1.55437C6.57017 1.55437 4.60643 3.41445 4.60643 5.78087C4.60643 6.89629 5.05093 8.18354 5.71886 9.19175C6.36067 10.1605 7.45353 11.2211 8.91962 11.2211ZM10.8484 5.78087C10.8484 6.34139 10.5942 7.17817 10.1326 7.8749C9.64681 8.60824 9.17938 8.83673 8.91963 8.83673C8.65987 8.83673 8.19244 8.60824 7.70661 7.8749C7.24504 7.17817 6.9908 6.34139 6.9908 5.78087C6.9908 4.7939 7.82354 3.93874 8.91963 3.93874C10.0157 3.93874 10.8484 4.7939 10.8484 5.78087Z" fill="white" stroke="#0F0F0F" stroke-width="1.44807" stroke-linecap="round" stroke-linejoin="round"/>
</svg>
