<svg width="78" height="56" viewBox="0 0 78 56" fill="none" xmlns="http://www.w3.org/2000/svg">
<g clip-path="url(#clip0_2339_8095)">
<g clip-path="url(#clip1_2339_8095)">
<path d="M52.1904 28.0105C52.8661 26.3676 51.1618 24.1096 49.0558 23.2435C46.9498 22.3773 44.15 22.783 43.4743 24.4259C42.7987 26.0689 44.4136 26.9956 47.0644 28.0857C49.7151 29.1759 51.5148 29.6534 52.1904 28.0105Z" fill="#0F0F0F" stroke="white" stroke-width="1.75" stroke-linecap="round" stroke-linejoin="round"/>
<path d="M47.1795 19.5464C46.5379 21.1064 46.8539 24.0359 48.4585 24.6958C50.0631 25.3557 52.3487 23.4961 52.9902 21.9361C53.6318 20.3761 52.8511 18.5765 51.2465 17.9166C49.642 17.2567 47.8211 17.9864 47.1795 19.5464Z" fill="#0F0F0F" stroke="white" stroke-width="1.75" stroke-linecap="round" stroke-linejoin="round"/>
<path d="M24.7682 28.6128C23.9489 27.0366 25.4453 24.6357 27.4658 23.5855C29.4863 22.5352 32.311 22.6899 33.1304 24.2661C33.9497 25.8423 32.4237 26.9092 29.8806 28.2311C27.3375 29.553 25.5875 30.189 24.7682 28.6128Z" fill="#0F0F0F" stroke="white" stroke-width="1.75" stroke-linecap="round" stroke-linejoin="round"/>
<path d="M29.0054 19.736C29.7834 21.2327 29.7296 24.1786 28.1902 24.9788C26.6507 25.779 24.2086 24.1305 23.4307 22.6338C22.6527 21.1371 23.27 19.2751 24.8094 18.4749C26.3488 17.6747 28.2274 18.2393 29.0054 19.736Z" fill="#0F0F0F" stroke="white" stroke-width="1.75" stroke-linecap="round" stroke-linejoin="round"/>
<path d="M47.7859 30.1165C47.7859 26.5529 42.9012 23.6641 38.3332 23.6641C33.7651 23.6641 28.8804 26.5529 28.8804 30.1165C28.8804 33.68 32.5835 34.1672 38.3332 34.1672C44.0828 34.1672 47.7859 33.68 47.7859 30.1165Z" fill="#0F0F0F"/>
<path d="M27.899 33.5713L28.8104 32.8429L27.899 33.5713C28.6653 34.5301 29.7035 35.1095 30.762 35.4746C32.79 36.1741 35.4999 36.2791 38.3331 36.2791C41.1663 36.2791 43.8763 36.1741 45.9043 35.4746C46.9627 35.1095 48.001 34.5301 48.7672 33.5713L47.8559 32.8429L48.7672 33.5713C49.5568 32.5834 49.8979 31.3935 49.8979 30.1164C49.8979 27.3175 48.0074 25.1408 45.9254 23.7844C43.7896 22.3928 41.0257 21.5521 38.3331 21.5521C35.6405 21.5521 32.8767 22.3928 30.7408 23.7844C28.6589 25.1408 26.7684 27.3175 26.7684 30.1164C26.7684 31.3935 27.1095 32.5834 27.899 33.5713ZM30.9923 30.1164C30.9923 29.348 31.5489 28.2992 33.0466 27.3234C34.4952 26.3796 36.4577 25.776 38.3331 25.776C40.2086 25.776 42.1711 26.3796 43.6197 27.3234C45.1174 28.2992 45.674 29.348 45.674 30.1164C45.674 30.6198 45.5529 30.8276 45.4677 30.9342C45.3596 31.0694 45.1124 31.2797 44.527 31.4816C43.2666 31.9163 41.2513 32.0552 38.3331 32.0552C35.415 32.0552 33.3997 31.9163 32.1393 31.4816C31.5539 31.2797 31.3066 31.0694 31.1986 30.9342C31.1134 30.8276 30.9923 30.6198 30.9923 30.1164Z" fill="white" stroke="#0F0F0F" stroke-width="2.33333" stroke-linecap="round" stroke-linejoin="round"/>
<path d="M32.031 18.2389C32.031 21.6226 34.8525 26.8164 38.3329 26.8164C41.8133 26.8164 44.6348 21.6226 44.6348 18.2389C44.6348 14.8551 41.8133 12.1121 38.3329 12.1121C34.8525 12.1121 32.031 14.8551 32.031 18.2389Z" fill="#0F0F0F"/>
<path d="M38.3334 28.9284C41.1439 28.9284 43.2732 26.8905 44.5502 24.963C45.8733 22.9658 46.7472 20.4224 46.7472 18.2389C46.7472 13.6319 42.9225 10.0002 38.3334 10.0002C33.7443 10.0002 29.9196 13.6319 29.9196 18.2389C29.9196 20.4224 30.7936 22.9658 32.1167 24.963C33.3937 26.8905 35.5229 28.9284 38.3334 28.9284ZM42.5233 18.2389C42.5233 19.4394 41.9864 21.1848 41.0289 22.6302C40.0282 24.1407 39.0068 24.7045 38.3334 24.7045C37.66 24.7045 36.6387 24.1407 35.638 22.6302C34.6804 21.1848 34.1435 19.4394 34.1435 18.2389C34.1435 16.0756 35.9646 14.224 38.3334 14.224C40.7022 14.224 42.5233 16.0756 42.5233 18.2389Z" fill="white" stroke="#0F0F0F" stroke-width="2.33333" stroke-linecap="round" stroke-linejoin="round"/>
</g>
<g opacity="0.5" filter="url(#filter0_f_2339_8095)">
<circle cx="38" cy="21" r="12" fill="#BC61F5"/>
</g>
<path d="M20.4534 49.205H23.4344V53H22.3454L22.2904 51.812C21.9274 52.538 21.2454 53.132 20.0904 53.132C18.0994 53.132 16.7684 51.581 16.7684 49.337C16.7684 47.126 18.1544 45.498 20.2664 45.498C22.2354 45.498 23.3244 46.752 23.4234 48.215H22.0484C21.9604 47.324 21.3884 46.697 20.2884 46.697C18.9794 46.697 18.1764 47.808 18.1764 49.348C18.1764 50.855 18.9244 51.933 20.2884 51.933C21.4324 51.933 22.0814 51.163 22.1804 50.305H20.4534V49.205ZM30.8467 53H29.2737L27.7997 50.393H26.3807V53H25.0057V45.63H28.0527C29.6697 45.63 30.6707 46.521 30.6707 47.885C30.6707 48.974 30.0987 49.788 29.1747 50.151L30.8467 53ZM26.3807 46.829V49.238H27.9317C28.7897 49.238 29.2627 48.754 29.2627 47.984C29.2627 47.236 28.7787 46.829 27.9317 46.829H26.3807ZM31.6034 49.348C31.6034 47.115 32.9014 45.498 35.0244 45.498C37.1474 45.498 38.4014 47.137 38.4014 49.282C38.4014 51.526 37.1144 53.132 34.9914 53.132C32.8684 53.132 31.6034 51.482 31.6034 49.348ZM36.9824 49.315C36.9824 47.83 36.2784 46.697 35.0134 46.697C33.7374 46.697 33.0224 47.83 33.0224 49.315C33.0224 50.8 33.7374 51.933 35.0024 51.933C36.2674 51.933 36.9824 50.8 36.9824 49.315ZM39.6785 50.294V45.63H41.0535V50.129C41.0535 51.262 41.5815 51.922 42.6375 51.922C43.6385 51.922 44.1885 51.262 44.1885 50.162V45.63H45.5635V50.316C45.5635 51.999 44.4965 53.132 42.6375 53.132C40.6465 53.132 39.6785 52.021 39.6785 50.294ZM47.2098 45.63H49.9818C51.5768 45.63 52.6108 46.565 52.6108 48.072C52.6108 49.689 51.5438 50.602 49.8828 50.602H48.5848V53H47.2098V45.63ZM49.8498 49.403C50.6968 49.403 51.1918 48.908 51.1918 48.105C51.1918 47.313 50.7078 46.829 49.8608 46.829H48.5848V49.403H49.8498ZM53.4959 50.602H54.8819C54.8489 51.614 55.4319 51.999 56.4219 51.999C57.3679 51.999 57.8189 51.614 57.8189 50.998C57.8189 50.316 57.3239 50.085 56.1249 49.865C54.6399 49.59 53.6059 49.095 53.6059 47.665C53.6059 46.235 54.7829 45.498 56.3009 45.498C57.9069 45.498 59.1499 46.312 59.0839 47.907H57.7199C57.7419 47.049 57.2139 46.631 56.2569 46.631C55.4539 46.631 54.9809 47.005 54.9809 47.566C54.9809 48.27 55.5089 48.49 56.6199 48.699C58.2589 48.996 59.2159 49.458 59.2159 50.855C59.2159 52.241 58.1599 53.132 56.3669 53.132C54.5629 53.132 53.4189 52.252 53.4959 50.602Z" fill="#BDBDBD"/>
</g>
<defs>
<filter id="filter0_f_2339_8095" x="16" y="-1" width="44" height="44" filterUnits="userSpaceOnUse" color-interpolation-filters="sRGB">
<feFlood flood-opacity="0" result="BackgroundImageFix"/>
<feBlend mode="normal" in="SourceGraphic" in2="BackgroundImageFix" result="shape"/>
<feGaussianBlur stdDeviation="5" result="effect1_foregroundBlur_2339_8095"/>
</filter>
<clipPath id="clip0_2339_8095">
<rect width="78" height="56" fill="white"/>
</clipPath>
<clipPath id="clip1_2339_8095">
<rect width="32.6667" height="28" fill="white" transform="translate(22 9)"/>
</clipPath>
</defs>
</svg>
