<svg width="72" height="20" viewBox="0 0 72 20" fill="none" xmlns="http://www.w3.org/2000/svg">
<path d="M22.244 11.716H25.219C25.1 13.314 23.978 14.878 21.887 14.878C19.473 14.878 18.164 12.94 18.164 10.356C18.164 7.704 19.575 5.732 21.921 5.732C23.91 5.732 24.93 6.888 25.083 8.486H26.579C26.409 6.242 24.845 4.406 21.921 4.406C18.708 4.406 16.634 6.939 16.634 10.339C16.634 13.739 18.606 16.204 21.734 16.204C23.434 16.204 24.573 15.405 25.219 14.351L25.27 16H26.579V10.424H22.244V11.716ZM29.1777 7.432V16H30.6227V12.022C30.6227 9.727 31.8637 8.741 33.0877 8.741C33.3937 8.741 33.6827 8.758 34.0397 8.86V7.398C33.7507 7.33 33.5127 7.313 33.1897 7.313C31.8977 7.313 30.9967 8.282 30.6397 9.557H30.6057V7.432H29.1777ZM34.9941 11.767C34.9941 14.572 36.6771 16.17 38.9211 16.17C41.1141 16.17 42.8481 14.521 42.8481 11.699C42.8481 8.843 41.1821 7.262 38.9381 7.262C36.7451 7.262 34.9941 8.877 34.9941 11.767ZM41.3691 11.733C41.3691 13.756 40.3491 14.929 38.9211 14.929C37.5101 14.929 36.4731 13.79 36.4731 11.733C36.4731 9.71 37.5101 8.503 38.9381 8.503C40.3491 8.503 41.3691 9.659 41.3691 11.733ZM44.8132 13.178C44.8132 15.184 45.8502 16.17 47.6182 16.17C49.0462 16.17 49.8962 15.201 50.2022 14.215H50.2362V16H51.6642V7.432H50.2192V11.835C50.2192 13.637 49.2502 14.895 47.9412 14.895C46.8362 14.895 46.2582 14.249 46.2582 12.889V7.432H44.8132V13.178ZM58.3775 7.262C56.7965 7.262 55.9295 8.265 55.6915 9.132H55.6575V7.432H54.2295V19.655H55.6745V14.572H55.7085C55.8785 15.167 56.6775 16.17 58.2245 16.17C60.4685 16.17 62.0155 14.402 62.0155 11.648C62.0155 8.826 60.4855 7.262 58.3775 7.262ZM58.0205 14.963C56.7115 14.963 55.6745 13.875 55.6745 11.988V11.648C55.6745 9.608 56.7455 8.469 58.1055 8.469C59.5165 8.469 60.5365 9.642 60.5365 11.699C60.5365 13.688 59.5165 14.963 58.0205 14.963ZM63.4954 13.399C63.4954 15.286 64.8214 16.17 66.8614 16.17C68.9014 16.17 70.2104 15.116 70.2104 13.654C70.2104 11.92 69.0204 11.512 67.0314 11.019C65.7734 10.679 65.1104 10.526 65.1104 9.608C65.1104 8.928 65.8584 8.469 66.8614 8.469C68.0004 8.469 68.6464 8.979 68.6634 9.948H70.0914C70.1254 8.231 68.9014 7.262 66.8444 7.262C65.0764 7.262 63.6654 8.18 63.6654 9.71C63.6654 11.512 64.9574 11.835 66.7934 12.328C68.1874 12.719 68.7654 12.855 68.7654 13.756C68.7654 14.419 68.1194 14.963 66.9124 14.963C65.6714 14.963 64.9744 14.504 64.9234 13.399H63.4954Z" fill="white"/>
<rect x="-0.25" y="0.955078" width="5.34029" height="18.089" fill="#BC61F5"/>
</svg>
