<svg width="44" height="44" viewBox="0 0 44 44" fill="none" xmlns="http://www.w3.org/2000/svg">
<path d="M21.9998 40.3337C32.1251 40.3337 40.3332 32.1255 40.3332 22.0003C40.3332 11.8751 32.1251 3.66699 21.9998 3.66699C11.8746 3.66699 3.6665 11.8751 3.6665 22.0003C3.6665 32.1255 11.8746 40.3337 21.9998 40.3337Z" stroke="white" stroke-width="2" stroke-linecap="round" stroke-linejoin="round"/>
<path d="M16.665 16.5001C17.0961 15.2748 17.9468 14.2416 19.0666 13.5835C20.1864 12.9254 21.503 12.6848 22.7832 12.9044C24.0634 13.124 25.2245 13.7895 26.061 14.7832C26.8975 15.7769 27.3553 17.0345 27.3534 18.3334C27.3534 22.0001 21.8534 23.8334 21.8534 23.8334" stroke="white" stroke-width="2" stroke-linecap="round" stroke-linejoin="round"/>
<path d="M22 31.167H22.01" stroke="white" stroke-width="2" stroke-linecap="round" stroke-linejoin="round"/>
</svg>
