<svg width="24" height="25" viewBox="0 0 24 25" fill="none" xmlns="http://www.w3.org/2000/svg">
<path d="M9.5 7.0028C9.72025 6.3767 10.155 5.84876 10.7272 5.51247C11.2994 5.17618 11.9721 5.05325 12.6263 5.16546C13.2804 5.27766 13.8738 5.61776 14.3012 6.12551C14.7286 6.63326 14.9625 7.27589 14.9616 7.9396C14.9616 9.8132 12.1511 10.75 12.1511 10.75L12.1999 12M12.1874 14.5H12.1999M5.75 19.5V22.4194C5.75 23.0854 5.75 23.4185 5.88654 23.5895C6.00528 23.7383 6.18534 23.8248 6.37567 23.8246C6.59453 23.8244 6.85459 23.6163 7.3747 23.2002L10.3565 20.8148C10.9656 20.3275 11.2702 20.0838 11.6094 19.9106C11.9102 19.7568 12.2305 19.6445 12.5615 19.5766C12.9346 19.5 13.3246 19.5 14.1047 19.5H17.25C19.3502 19.5 20.4003 19.5 21.2025 19.0913C21.9081 18.7317 22.4817 18.1581 22.8413 17.4525C23.25 16.6503 23.25 15.6002 23.25 13.5V6.75C23.25 4.6498 23.25 3.5997 22.8413 2.79754C22.4817 2.09193 21.9081 1.51825 21.2025 1.15873C20.4003 0.75 19.3502 0.75 17.25 0.75H6.75C4.6498 0.75 3.5997 0.75 2.79754 1.15873C2.09193 1.51825 1.51825 2.09193 1.15873 2.79754C0.75 3.5997 0.75 4.6498 0.75 6.75V14.5C0.75 15.6625 0.75 16.2437 0.877778 16.7206C1.22453 18.0147 2.23533 19.0255 3.52943 19.3722C4.0063 19.5 4.58754 19.5 5.75 19.5Z" stroke="#BC61F5" stroke-width="1.5" stroke-linecap="round" stroke-linejoin="round"/>
</svg>
