<svg width="104" height="104" viewBox="0 0 104 104" fill="none" xmlns="http://www.w3.org/2000/svg">
<rect x="1" y="1" width="94" height="94" rx="17" fill="#4E305F" stroke="#BC61F5" stroke-width="2"/>
<path d="M63.5919 52C65.1235 49.4505 66 46.4905 66 43.3333C66 33.7604 57.9411 26 48 26C38.0589 26 30 33.7604 30 43.3333C30 46.4905 30.8765 49.4505 32.4081 52" stroke="#212121" stroke-width="4" stroke-linecap="round" stroke-linejoin="round" stroke-dasharray="0.2 8"/>
<path fill-rule="evenodd" clip-rule="evenodd" d="M54.6448 53.4956C52.9227 56.3971 50.6006 58.2857 48.0033 58.2857C45.406 58.2857 43.0838 56.397 41.3617 53.4954C39.4593 50.29 38.2891 45.8486 38.2891 41.352C38.2891 37.3559 42.5661 34 48.0033 34C53.4406 34 57.7176 37.3559 57.7176 41.352C57.7176 45.8487 56.5474 50.2902 54.6448 53.4956ZM48 61.625C51.4089 61.625 54.4567 59.1462 56.717 55.338C56.8882 55.0496 57.0548 54.7535 57.2168 54.4503C59.5703 55.4627 62.5725 57.2621 62.5725 60.0971C62.5725 63.0627 61.1521 65.7587 58.3105 66.6072C55.8553 67.3403 52.3899 68 48.0011 68C43.6121 68 40.1468 67.3403 37.6918 66.6073C34.8502 65.7588 33.4297 63.0627 33.4297 60.0971C33.4297 57.2585 36.4294 55.4599 38.7824 54.4488C38.9445 54.7524 39.1114 55.0488 39.2828 55.3377C41.5432 59.146 44.591 61.625 48 61.625Z" fill="#212121"/>
<circle cx="88" cy="88" r="16" fill="#BC61F5"/>
<path d="M88 88.0013V82.668M88 88.0013V93.3346M88 88.0013H93.3333M88 88.0013H82.6666" stroke="white" stroke-width="1.33333" stroke-linecap="round" stroke-linejoin="round"/>
</svg>
