<svg width="52" height="52" viewBox="0 0 52 52" fill="none" xmlns="http://www.w3.org/2000/svg">
<circle cx="26" cy="26" r="25" fill="#0F0F0F" stroke="#BC61F5"/>
<path d="M26 33C26.3978 33 26.7794 33.158 27.0607 33.4393C27.342 33.7206 27.5 34.1022 27.5 34.5C27.5 34.8978 27.342 35.2794 27.0607 35.5607C26.7794 35.842 26.3978 36 26 36C25.6022 36 25.2206 35.842 24.9393 35.5607C24.658 35.2794 24.5 34.8978 24.5 34.5C24.5 34.1022 24.658 33.7206 24.9393 33.4393C25.2206 33.158 25.6022 33 26 33ZM26 16C27.5913 16 29.1174 16.6321 30.2426 17.7574C31.3679 18.8826 32 20.4087 32 22C32 24.165 31.247 25.29 29.326 26.923C27.399 28.56 27 29.297 27 31H25C25 28.526 25.787 27.305 28.031 25.399C29.548 24.11 30 23.434 30 22C30 20.9391 29.5786 19.9217 28.8284 19.1716C28.0783 18.4214 27.0609 18 26 18C24.9391 18 23.9217 18.4214 23.1716 19.1716C22.4214 19.9217 22 20.9391 22 22V23H20V22C20 20.4087 20.6321 18.8826 21.7574 17.7574C22.8826 16.6321 24.4087 16 26 16Z" fill="#BC61F5"/>
</svg>
