<svg width="46" height="47" viewBox="0 0 46 47" fill="none" xmlns="http://www.w3.org/2000/svg">
<circle cx="23" cy="23.913" r="22" fill="url(#paint0_linear_168_3166)" stroke="#0F0F0F" stroke-width="2"/>
<path d="M18.3227 12.7766H27.6773C31.2409 12.7766 34.1364 15.6721 34.1364 19.2357V28.5902C34.1364 30.3033 33.4559 31.9462 32.2446 33.1575C31.0332 34.3688 29.3903 35.0493 27.6773 35.0493H18.3227C14.7591 35.0493 11.8636 32.1539 11.8636 28.5902V19.2357C11.8636 17.5226 12.5442 15.8797 13.7555 14.6684C14.9668 13.4571 16.6097 12.7766 18.3227 12.7766ZM18.1 15.0039C17.0367 15.0039 16.017 15.4263 15.2652 16.1781C14.5133 16.93 14.0909 17.9497 14.0909 19.013V28.813C14.0909 31.0291 15.8839 32.8221 18.1 32.8221H27.9C28.9633 32.8221 29.983 32.3997 30.7349 31.6478C31.4867 30.896 31.9091 29.8762 31.9091 28.813V19.013C31.9091 16.7968 30.1162 15.0039 27.9 15.0039H18.1ZM28.8466 16.6743C29.2158 16.6743 29.5699 16.821 29.8309 17.082C30.092 17.3431 30.2387 17.6972 30.2387 18.0664C30.2387 18.4356 30.092 18.7896 29.8309 19.0507C29.5699 19.3118 29.2158 19.4584 28.8466 19.4584C28.4774 19.4584 28.1233 19.3118 27.8623 19.0507C27.6012 18.7896 27.4546 18.4356 27.4546 18.0664C27.4546 17.6972 27.6012 17.3431 27.8623 17.082C28.1233 16.821 28.4774 16.6743 28.8466 16.6743ZM23 18.3448C24.4768 18.3448 25.8931 18.9314 26.9373 19.9757C27.9816 21.0199 28.5682 22.4362 28.5682 23.913C28.5682 25.3897 27.9816 26.806 26.9373 27.8503C25.8931 28.8945 24.4768 29.4811 23 29.4811C21.5232 29.4811 20.107 28.8945 19.0627 27.8503C18.0185 26.806 17.4318 25.3897 17.4318 23.913C17.4318 22.4362 18.0185 21.0199 19.0627 19.9757C20.107 18.9314 21.5232 18.3448 23 18.3448ZM23 20.5721C22.114 20.5721 21.2642 20.924 20.6376 21.5506C20.0111 22.1771 19.6591 23.0269 19.6591 23.913C19.6591 24.799 20.0111 25.6488 20.6376 26.2753C21.2642 26.9019 22.114 27.2539 23 27.2539C23.8861 27.2539 24.7359 26.9019 25.3624 26.2753C25.9889 25.6488 26.3409 24.799 26.3409 23.913C26.3409 23.0269 25.9889 22.1771 25.3624 21.5506C24.7359 20.924 23.8861 20.5721 23 20.5721Z" fill="white"/>
<defs>
<linearGradient id="paint0_linear_168_3166" x1="38.5455" y1="2.91296" x2="9.32031" y2="41.4113" gradientUnits="userSpaceOnUse">
<stop stop-color="#C93CA3"/>
<stop offset="0.536458" stop-color="#FB5146"/>
<stop offset="1" stop-color="#FFD662"/>
</linearGradient>
</defs>
</svg>
