<svg width="50" height="49" viewBox="0 0 50 49" fill="none" xmlns="http://www.w3.org/2000/svg">
<g clip-path="url(#clip0_168_3216)">
<path d="M21 0.912964C16.8466 0.912964 12.7865 2.14459 9.33303 4.4521C5.8796 6.75961 3.18798 10.0394 1.59854 13.8766C0.00909892 17.7139 -0.406771 21.9363 0.403519 26.0099C1.21381 30.0835 3.21386 33.8253 6.15077 36.7622C9.08767 39.6991 12.8295 41.6992 16.9031 42.5095C20.9767 43.3197 25.1991 42.9039 29.0364 41.3144C32.8736 39.725 36.1534 37.0334 38.4609 33.5799C40.7684 30.1265 42 26.0664 42 21.913C42 16.3434 39.7875 11.002 35.8492 7.06372C31.911 3.12546 26.5696 0.912964 21 0.912964ZM14.8934 32.9656H10.3121V18.2076H14.8934V32.9656ZM12.6 16.1932C12.0728 16.1954 11.5567 16.0412 11.1171 15.7502C10.6774 15.4591 10.3339 15.0443 10.13 14.558C9.92612 14.0718 9.87093 13.536 9.97145 13.0185C10.072 12.5009 10.3237 12.0247 10.6948 11.6501C11.0658 11.2756 11.5396 11.0195 12.0563 10.9141C12.5729 10.8088 13.1091 10.859 13.5973 11.0583C14.0854 11.2577 14.5034 11.5973 14.7985 12.0342C15.0937 12.4711 15.2527 12.9857 15.2554 13.513C15.2569 14.22 14.9784 14.8988 14.4808 15.401C13.9832 15.9033 13.307 16.1881 12.6 16.1932ZM32.0526 32.9656H27.4741V25.7814C27.4741 24.0682 27.4409 21.8715 25.0922 21.8715C22.7436 21.8715 22.3291 23.7339 22.3291 25.657V32.9656H17.7671V18.2076H22.1633V20.2191H22.2269C22.8375 19.0586 24.3324 17.8345 26.5622 17.8345C31.1988 17.8345 32.0526 20.8906 32.0526 24.8585V32.9656Z" fill="#636363"/>
</g>
<path d="M38 46.6407C43.5 46.6407 48 42.1407 48 36.6407C48 31.1407 43.5 26.6407 38 26.6407C32.5 26.6407 28 31.1407 28 36.6407C28 42.1407 32.5 46.6407 38 46.6407Z" fill="#BC61F5" stroke="#0F0F0F" stroke-width="1.5" stroke-linecap="round" stroke-linejoin="round"/>
<path d="M34 36.6407H42" stroke="white" stroke-width="1.5" stroke-linecap="round" stroke-linejoin="round"/>
<path d="M38 40.6407V32.6407" stroke="white" stroke-width="1.5" stroke-linecap="round" stroke-linejoin="round"/>
<defs>
<clipPath id="clip0_168_3216">
<rect width="42" height="42" fill="white" transform="translate(0 0.912964)"/>
</clipPath>
</defs>
</svg>
