<svg width="78" height="56" viewBox="0 0 78 56" fill="none" xmlns="http://www.w3.org/2000/svg">
<path d="M24.9073 45.0595H21.3543V46.8965H24.4783V48.0735H21.3543V50.0315H24.9073V51.2305H19.9793V43.8605H24.9073V45.0595ZM25.4186 43.8605H26.8706L28.4326 48.4035C28.5426 48.7335 28.6746 49.1625 28.7846 49.5695H28.8066C28.9166 49.1735 29.0486 48.7225 29.1586 48.4035L30.7206 43.8605H32.1286L29.5436 51.2305H28.0146L25.4186 43.8605ZM37.9913 45.0595H34.4383V46.8965H37.5623V48.0735H34.4383V50.0315H37.9913V51.2305H33.0633V43.8605H37.9913V45.0595ZM39.3045 43.8605H40.6685L43.9025 48.8875H43.9245V43.8605H45.2115V51.2305H43.8585L40.6135 46.1375H40.5915V51.2305H39.3045V43.8605ZM48.527 45.0705H46.228V43.8605H52.201V45.0705H49.902V51.2305H48.527V45.0705ZM52.659 48.8325H54.045C54.012 49.8445 54.595 50.2295 55.585 50.2295C56.531 50.2295 56.982 49.8445 56.982 49.2285C56.982 48.5465 56.487 48.3155 55.288 48.0955C53.803 47.8205 52.769 47.3255 52.769 45.8955C52.769 44.4655 53.946 43.7285 55.464 43.7285C57.07 43.7285 58.313 44.5425 58.247 46.1375H56.883C56.905 45.2795 56.377 44.8615 55.42 44.8615C54.617 44.8615 54.144 45.2355 54.144 45.7965C54.144 46.5005 54.672 46.7205 55.783 46.9295C57.422 47.2265 58.379 47.6885 58.379 49.0855C58.379 50.4715 57.323 51.3625 55.53 51.3625C53.726 51.3625 52.582 50.4825 52.659 48.8325Z" fill="#BDBDBD"/>
<g opacity="0.5" filter="url(#filter0_f_2339_4196)">
<circle cx="39" cy="23" r="12" fill="#BC61F5"/>
</g>
<path d="M39 22.2222C35.4101 22.2222 32.5 19.4862 32.5 16.1111C32.5 12.736 35.4101 10 39 10C42.5899 10 45.5 12.736 45.5 16.1111C45.5 19.4862 42.5899 22.2222 39 22.2222ZM39 22.2222V32" stroke="white" stroke-width="2" stroke-linecap="round" stroke-linejoin="round"/>
<path fill-rule="evenodd" clip-rule="evenodd" d="M36.2046 27.559C36.3037 28.032 36.0006 28.4957 35.5277 28.5949C33.996 28.9158 32.7521 29.4325 31.9142 30.0348C31.0647 30.6454 30.75 31.2487 30.75 31.7494C30.75 32.4283 31.3532 33.3001 32.9252 34.0541C34.4338 34.7776 36.5795 35.2494 38.997 35.2494C41.4145 35.2494 43.5602 34.7776 45.0688 34.0541C46.6408 33.3001 47.244 32.4283 47.244 31.7494C47.244 31.2487 46.9293 30.6454 46.0798 30.0348C45.2419 29.4325 43.998 28.9158 42.4663 28.5949C41.9934 28.4957 41.6903 28.032 41.7894 27.559C41.8885 27.086 42.3523 26.7829 42.8253 26.8821C44.5154 27.2362 46.008 27.828 47.1013 28.6139C48.183 29.3915 48.994 30.4561 48.994 31.7494C48.994 33.4867 47.5552 34.8024 45.8256 35.632C44.0328 36.4918 41.6174 36.9994 38.997 36.9994C36.3766 36.9994 33.9612 36.4918 32.1684 35.632C30.4388 34.8024 29 33.4867 29 31.7494C29 30.4561 29.811 29.3915 30.8927 28.6139C31.986 27.828 33.4787 27.2362 35.1687 26.8821C35.6417 26.7829 36.1055 27.086 36.2046 27.559Z" fill="white"/>
<defs>
<filter id="filter0_f_2339_4196" x="17" y="1" width="44" height="44" filterUnits="userSpaceOnUse" color-interpolation-filters="sRGB">
<feFlood flood-opacity="0" result="BackgroundImageFix"/>
<feBlend mode="normal" in="SourceGraphic" in2="BackgroundImageFix" result="shape"/>
<feGaussianBlur stdDeviation="5" result="effect1_foregroundBlur_2339_4196"/>
</filter>
</defs>
</svg>
