<svg width="78" height="56" viewBox="0 0 78 56" fill="none" xmlns="http://www.w3.org/2000/svg">
<path d="M39 22.2222C35.4101 22.2222 32.5 19.4862 32.5 16.1111C32.5 12.736 35.4101 10 39 10C42.5899 10 45.5 12.736 45.5 16.1111C45.5 19.4862 42.5899 22.2222 39 22.2222ZM39 22.2222V32" stroke="#9B9B9B" stroke-width="2" stroke-linecap="round" stroke-linejoin="round"/>
<path fill-rule="evenodd" clip-rule="evenodd" d="M36.2046 27.559C36.3037 28.032 36.0006 28.4957 35.5277 28.5949C33.996 28.9158 32.7521 29.4325 31.9142 30.0348C31.0647 30.6454 30.75 31.2487 30.75 31.7494C30.75 32.4283 31.3532 33.3002 32.9252 34.0541C34.4338 34.7776 36.5795 35.2494 38.997 35.2494C41.4145 35.2494 43.5602 34.7776 45.0688 34.0541C46.6408 33.3002 47.244 32.4283 47.244 31.7494C47.244 31.2487 46.9293 30.6454 46.0798 30.0348C45.2419 29.4325 43.998 28.9158 42.4663 28.5949C41.9934 28.4957 41.6903 28.032 41.7894 27.559C41.8885 27.086 42.3523 26.7829 42.8253 26.8821C44.5154 27.2362 46.008 27.828 47.1013 28.6139C48.183 29.3915 48.994 30.4561 48.994 31.7494C48.994 33.4867 47.5552 34.8024 45.8256 35.632C44.0328 36.4918 41.6174 36.9994 38.997 36.9994C36.3766 36.9994 33.9612 36.4918 32.1684 35.632C30.4388 34.8024 29 33.4867 29 31.7494C29 30.4561 29.811 29.3915 30.8927 28.6139C31.986 27.828 33.4787 27.2362 35.1687 26.8821C35.6417 26.7829 36.1055 27.086 36.2046 27.559Z" fill="#9B9B9B"/>
</svg>
