<svg width="144" height="67" viewBox="0 0 144 67" fill="none" xmlns="http://www.w3.org/2000/svg">
<path d="M45.6928 4.90044L41.7064 19.034C40.3086 24.004 38.0824 28.5081 35.2868 32.4427C33.889 34.4618 32.2841 36.3255 30.5756 38.034C28.2459 40.3637 25.6574 42.4345 22.9135 44.1947C21.5157 45.0748 20.1179 45.8514 18.6165 46.5762C17.4775 47.1457 16.3386 47.6116 15.1478 48.0776L9.91895 34.41C10.9544 33.9958 11.9898 33.5299 12.9734 33.0122C15.4585 31.7179 17.7882 30.0612 19.8072 28.0421C23.3794 24.5735 26.1233 20.1212 27.5729 14.9958L31.5593 0.914062L45.6928 4.90044Z" fill="white"/>
<path d="M10.9547 21.052C16.5017 21.052 20.9983 16.5554 20.9983 11.0084C20.9983 5.46152 16.5017 0.964844 10.9547 0.964844C5.4078 0.964844 0.911133 5.46152 0.911133 11.0084C0.911133 16.5554 5.4078 21.052 10.9547 21.052Z" fill="white"/>
<path d="M58.0002 39.938C66.4582 39.938 71.9058 35.0639 71.9058 26.9881C71.9058 18.9602 66.4582 14.0383 58.0002 14.0383C49.4466 14.0383 44.0469 18.9124 44.0469 26.9881C44.0469 35.0161 49.4944 39.938 58.0002 39.938ZM58.0002 32.4357C55.0375 32.4357 53.0305 30.1898 53.0305 26.9881C53.0305 23.7865 55.0375 21.5406 58.0002 21.5406C60.9151 21.5406 62.9699 23.7865 62.9699 26.9881C62.9699 30.1898 60.9151 32.4357 58.0002 32.4357Z" fill="white"/>
<path d="M99.8102 14.6595H90.8743V28.2305C90.8743 30.7154 89.2496 32.4357 87.1471 32.4357C85.0445 32.4357 83.7065 30.7632 83.7065 28.3739V14.6595H74.7707V30.0464C74.7707 35.7806 78.3546 39.8902 83.4676 39.8902C86.3825 39.8902 88.4373 38.6 90.3965 35.6851H90.8743V39.3168H99.8102V14.6595Z" fill="white"/>
<path d="M104.037 39.3168H112.972V25.7457C112.972 23.3087 114.597 21.5884 116.7 21.5884C118.802 21.5884 120.14 23.2131 120.14 25.6024V39.3168H129.076V23.9299C129.076 18.2434 125.492 14.0861 120.379 14.0861C117.464 14.0861 115.41 15.4241 113.45 18.2912H112.972V14.6595H104.037V39.3168Z" fill="white"/>
<path d="M137.603 11.9835C140.614 11.9835 142.716 9.92874 142.716 7.06161C142.716 4.19449 140.614 2.1875 137.603 2.1875C134.688 2.1875 132.538 4.19449 132.538 7.06161C132.538 9.92874 134.688 11.9835 137.603 11.9835ZM133.159 39.3168H142.095V14.6595H133.159V39.3168Z" fill="white"/>
<path d="M108.916 62.6094V61.4494H109.836V56.7694H108.916V55.6094H112.516C112.943 55.6094 113.313 55.6827 113.626 55.8294C113.946 55.9694 114.193 56.1727 114.366 56.4394C114.546 56.6994 114.636 57.0127 114.636 57.3794V57.4794C114.636 57.7994 114.576 58.0627 114.456 58.2694C114.336 58.4694 114.193 58.626 114.026 58.7394C113.866 58.846 113.713 58.9227 113.566 58.9694V59.1494C113.713 59.1894 113.873 59.266 114.046 59.3794C114.219 59.486 114.366 59.6427 114.486 59.8494C114.613 60.056 114.676 60.326 114.676 60.6594V60.7594C114.676 61.146 114.586 61.4794 114.406 61.7594C114.226 62.0327 113.976 62.2427 113.656 62.3894C113.343 62.536 112.976 62.6094 112.556 62.6094H108.916ZM111.156 61.4094H112.396C112.683 61.4094 112.913 61.3394 113.086 61.1994C113.266 61.0594 113.356 60.8594 113.356 60.5994V60.4994C113.356 60.2394 113.269 60.0394 113.096 59.8994C112.923 59.7594 112.689 59.6894 112.396 59.6894H111.156V61.4094ZM111.156 58.4894H112.376C112.649 58.4894 112.873 58.4194 113.046 58.2794C113.226 58.1394 113.316 57.946 113.316 57.6994V57.5994C113.316 57.346 113.229 57.1527 113.056 57.0194C112.883 56.8794 112.656 56.8094 112.376 56.8094H111.156V58.4894ZM117.67 62.6094V60.1994L115.29 55.6094H116.76L118.24 58.6094H118.42L119.9 55.6094H121.37L118.99 60.1994V62.6094H117.67ZM126.369 62.6094V56.8094H124.329V55.6094H129.729V56.8094H127.689V62.6094H126.369ZM130.678 62.6094V61.4494H131.598V56.7694H130.678V55.6094H134.278C134.704 55.6094 135.074 55.6827 135.388 55.8294C135.708 55.9694 135.954 56.1727 136.128 56.4394C136.308 56.6994 136.398 57.0127 136.398 57.3794V57.4794C136.398 57.7994 136.338 58.0627 136.218 58.2694C136.098 58.4694 135.954 58.626 135.788 58.7394C135.628 58.846 135.474 58.9227 135.328 58.9694V59.1494C135.474 59.1894 135.634 59.266 135.808 59.3794C135.981 59.486 136.128 59.6427 136.248 59.8494C136.374 60.056 136.438 60.326 136.438 60.6594V60.7594C136.438 61.146 136.348 61.4794 136.168 61.7594C135.988 62.0327 135.738 62.2427 135.418 62.3894C135.104 62.536 134.738 62.6094 134.318 62.6094H130.678ZM132.918 61.4094H134.158C134.444 61.4094 134.674 61.3394 134.848 61.1994C135.028 61.0594 135.118 60.8594 135.118 60.5994V60.4994C135.118 60.2394 135.031 60.0394 134.858 59.8994C134.684 59.7594 134.451 59.6894 134.158 59.6894H132.918V61.4094ZM132.918 58.4894H134.138C134.411 58.4894 134.634 58.4194 134.808 58.2794C134.988 58.1394 135.078 57.946 135.078 57.6994V57.5994C135.078 57.346 134.991 57.1527 134.818 57.0194C134.644 56.8794 134.418 56.8094 134.138 56.8094H132.918V58.4894ZM140.428 62.7494C139.562 62.7494 138.875 62.5094 138.368 62.0294C137.862 61.5427 137.608 60.8494 137.608 59.9494V58.2694C137.608 57.3694 137.862 56.6794 138.368 56.1994C138.875 55.7127 139.562 55.4694 140.428 55.4694C141.288 55.4694 141.952 55.706 142.418 56.1794C142.892 56.646 143.128 57.2894 143.128 58.1094V58.1694H141.828V58.0694C141.828 57.656 141.712 57.316 141.478 57.0494C141.252 56.7827 140.902 56.6494 140.428 56.6494C139.962 56.6494 139.595 56.7927 139.328 57.0794C139.062 57.366 138.928 57.756 138.928 58.2494V59.9694C138.928 60.456 139.062 60.846 139.328 61.1394C139.595 61.426 139.962 61.5694 140.428 61.5694C140.902 61.5694 141.252 61.436 141.478 61.1694C141.712 60.896 141.828 60.556 141.828 60.1494V59.9694H143.128V60.1094C143.128 60.9294 142.892 61.576 142.418 62.0494C141.952 62.516 141.288 62.7494 140.428 62.7494Z" fill="white"/>
</svg>
