<svg width="22" height="22" viewBox="0 0 22 22" fill="none" xmlns="http://www.w3.org/2000/svg">
<path d="M11 13.75H7.33337C5.62492 13.75 4.7707 13.75 4.09687 14.0291C3.19843 14.4013 2.48463 15.1151 2.11248 16.0135C1.83337 16.6873 1.83337 17.5415 1.83337 19.25M14.2084 3.01653C15.5521 3.56047 16.5 4.87787 16.5 6.41667C16.5 7.95547 15.5521 9.27287 14.2084 9.8168M12.375 6.41667C12.375 8.44171 10.7334 10.0833 8.70837 10.0833C6.68333 10.0833 5.04171 8.44171 5.04171 6.41667C5.04171 4.39162 6.68333 2.75 8.70837 2.75C10.7334 2.75 12.375 4.39162 12.375 6.41667Z" stroke="#BC61F5" stroke-width="1.5" stroke-linecap="round" stroke-linejoin="round"/>
<path d="M16.2601 20.0853C16.3362 20.1279 16.3742 20.1492 16.4279 20.1602C16.4696 20.1688 16.5304 20.1688 16.5721 20.1602C16.6258 20.1492 16.6638 20.1279 16.7399 20.0853C17.4096 19.7107 19.25 18.5338 19.25 16.9157V15.663C19.25 15.309 19.25 15.132 19.1931 15.0064C19.1353 14.8786 19.0776 14.8107 18.959 14.7304C18.8423 14.6514 18.6136 14.6058 18.1561 14.5145C17.6518 14.4139 17.2646 14.2323 16.9106 13.9697C16.7408 13.8437 16.6559 13.7808 16.5895 13.7636C16.5194 13.7455 16.4806 13.7455 16.4105 13.7636C16.3441 13.7808 16.2592 13.8437 16.0894 13.9697C15.7354 14.2323 15.3482 14.4139 14.8439 14.5145C14.3864 14.6058 14.1577 14.6514 14.041 14.7304C13.9224 14.8107 13.8647 14.8786 13.8069 15.0064C13.75 15.132 13.75 15.309 13.75 15.663V16.9157C13.75 18.5338 15.5904 19.7107 16.2601 20.0853Z" stroke="#BC61F5" stroke-width="1.5" stroke-linecap="round" stroke-linejoin="round"/>
</svg>
