<svg width="318" height="120" viewBox="0 0 318 120" fill="none" xmlns="http://www.w3.org/2000/svg">
<path d="M172.333 29.3333V21.3333C172.333 13.9695 166.364 8 159 8C151.636 8 145.667 13.9695 145.667 21.3333V29.3333M147.8 56H170.2C174.68 56 176.921 56 178.632 55.1281C180.137 54.3611 181.361 53.1372 182.128 51.6319C183 49.9206 183 47.6804 183 43.2V42.1333C183 37.6529 183 35.4127 182.128 33.7014C181.361 32.1961 180.137 30.9723 178.632 30.2053C176.921 29.3333 174.68 29.3333 170.2 29.3333H147.8C143.32 29.3333 141.079 29.3333 139.368 30.2053C137.863 30.9723 136.639 32.1961 135.872 33.7014C135 35.4127 135 37.6529 135 42.1333V43.2C135 47.6804 135 49.9206 135.872 51.6319C136.639 53.1372 137.863 54.3611 139.368 55.1281C141.079 56 143.32 56 147.8 56Z" stroke="white" stroke-width="2" stroke-linecap="round" stroke-linejoin="round"/>
<path d="M62.928 80.68V93H65.678V80.68H70.276V78.26H58.33V80.68H62.928ZM78.1573 81.56C76.2213 81.56 75.1213 82.616 74.7033 83.848H74.6593C74.6813 83.166 74.7033 82.484 74.7033 81.78V77.16H72.0193V93H74.7033V87.17C74.7033 85.19 75.7153 83.87 77.1453 83.87C78.3773 83.87 79.0373 84.596 79.0373 86.07V93H81.6993V85.41C81.6993 82.836 80.2693 81.56 78.1573 81.56ZM84.3294 77.358V79.998H87.0574V77.358H84.3294ZM84.3514 81.78V93H87.0354V81.78H84.3514ZM89.1479 89.546C89.1479 92.01 90.9299 93.22 93.7239 93.22C96.5399 93.22 98.3879 91.834 98.3879 89.7C98.3879 87.434 96.7159 86.862 94.0319 86.224C92.6239 85.872 91.9419 85.652 91.9419 84.706C91.9419 84.002 92.7119 83.518 93.8119 83.518C95.0219 83.518 95.7039 84.09 95.7039 85.168H98.2119C98.3219 82.88 96.6279 81.56 93.7679 81.56C91.2159 81.56 89.3239 82.858 89.3239 84.926C89.3239 87.324 91.0619 87.764 93.6139 88.446C95.1539 88.886 95.7919 89.04 95.7919 90.008C95.7919 90.712 95.0879 91.24 93.8119 91.24C92.4919 91.24 91.7879 90.668 91.7439 89.546H89.1479ZM112.293 85.41V87.61H115.747C115.549 89.326 114.251 90.866 111.963 90.866C109.235 90.866 107.739 88.71 107.739 85.696C107.739 82.616 109.345 80.394 111.963 80.394C114.163 80.394 115.307 81.648 115.483 83.43H118.233C118.035 80.504 115.857 77.996 111.919 77.996C107.695 77.996 104.923 81.252 104.923 85.674C104.923 90.162 107.585 93.264 111.567 93.264C113.877 93.264 115.241 92.076 115.967 90.624L116.077 93H118.255V85.41H112.293ZM121.111 81.78V93H123.795V87.94C123.795 85.344 125.181 84.288 126.677 84.288C127.117 84.288 127.513 84.332 127.997 84.464V81.736C127.623 81.648 127.293 81.626 126.897 81.626C125.291 81.626 124.235 82.726 123.795 84.266H123.729V81.78H121.111ZM128.962 87.434C128.962 91.196 131.25 93.22 134.33 93.22C137.3 93.22 139.698 91.086 139.698 87.346C139.698 83.584 137.41 81.56 134.352 81.56C131.338 81.56 128.962 83.672 128.962 87.434ZM136.97 87.39C136.97 89.7 135.892 91.02 134.33 91.02C132.79 91.02 131.69 89.722 131.69 87.39C131.69 85.08 132.79 83.76 134.352 83.76C135.892 83.76 136.97 85.058 136.97 87.39ZM141.84 89.392C141.84 92.076 143.204 93.22 145.47 93.22C147.164 93.22 148.154 92.12 148.616 90.91H148.682V93H151.322V81.78H148.638V87.632C148.638 89.59 147.626 90.932 146.262 90.932C145.096 90.932 144.502 90.184 144.502 88.776V81.78H141.84V89.392ZM160.205 81.56C158.225 81.56 157.169 82.726 156.839 83.782H156.773V81.78H154.133V97.73H156.817V91.438H156.861C157.059 92.12 158.049 93.22 159.985 93.22C162.845 93.22 164.781 90.91 164.781 87.302C164.781 83.518 162.845 81.56 160.205 81.56ZM159.347 91.086C157.917 91.086 156.817 89.92 156.817 87.83V87.258C156.817 84.992 157.961 83.738 159.457 83.738C161.019 83.738 162.097 85.036 162.097 87.412C162.097 89.656 161.019 91.086 159.347 91.086ZM171.857 77.358V79.998H174.585V77.358H171.857ZM171.879 81.78V93H174.563V81.78H171.879ZM176.675 89.546C176.675 92.01 178.457 93.22 181.251 93.22C184.067 93.22 185.915 91.834 185.915 89.7C185.915 87.434 184.243 86.862 181.559 86.224C180.151 85.872 179.469 85.652 179.469 84.706C179.469 84.002 180.239 83.518 181.339 83.518C182.549 83.518 183.231 84.09 183.231 85.168H185.739C185.849 82.88 184.155 81.56 181.295 81.56C178.743 81.56 176.851 82.858 176.851 84.926C176.851 87.324 178.589 87.764 181.141 88.446C182.681 88.886 183.319 89.04 183.319 90.008C183.319 90.712 182.615 91.24 181.339 91.24C180.019 91.24 179.315 90.668 179.271 89.546H176.675ZM193.198 78.26V93H195.948V88.204H198.544C201.866 88.204 204 86.378 204 83.144C204 80.13 201.932 78.26 198.742 78.26H193.198ZM198.478 85.806H195.948V80.658H198.5C200.194 80.658 201.162 81.626 201.162 83.21C201.162 84.816 200.172 85.806 198.478 85.806ZM206.189 81.78V93H208.873V87.94C208.873 85.344 210.259 84.288 211.755 84.288C212.195 84.288 212.591 84.332 213.075 84.464V81.736C212.701 81.648 212.371 81.626 211.975 81.626C210.369 81.626 209.313 82.726 208.873 84.266H208.807V81.78H206.189ZM214.825 77.358V79.998H217.553V77.358H214.825ZM214.847 81.78V93H217.531V81.78H214.847ZM219.116 81.78L223.032 93H226.09L230.006 81.78H227.278L225.232 88.138C224.968 88.908 224.814 89.48 224.682 90.206H224.616C224.44 89.48 224.264 88.886 224.022 88.138L221.932 81.78H219.116ZM230.58 90.162C230.58 92.12 231.834 93.22 234.012 93.22C235.728 93.22 236.85 92.45 237.422 91.35H237.466C237.598 92.626 238.038 93.176 239.644 93.176C240.216 93.176 240.854 93 241.074 92.846V90.888C240.942 90.976 240.788 91.02 240.612 91.02C240.15 91.02 239.996 90.69 239.996 89.546V85.74C239.996 83.078 238.478 81.56 235.574 81.56C232.912 81.56 231.042 83.078 231.042 85.3C231.042 85.454 231.042 85.63 231.064 85.828H233.572C233.528 85.608 233.528 85.476 233.528 85.322C233.528 84.222 234.342 83.606 235.486 83.606C236.784 83.606 237.378 84.288 237.378 85.674V86.488C233.638 86.532 230.58 87.148 230.58 90.162ZM237.378 89.392C236.938 90.58 235.948 91.218 234.892 91.218C233.748 91.218 233.264 90.756 233.264 89.898C233.264 88.622 234.672 88.226 237.378 88.16V89.392ZM243.262 89.766C243.262 92.252 244.23 93.242 246.628 93.242C247.574 93.242 248.256 93.044 248.718 92.846V90.646C248.322 90.844 247.86 90.976 247.31 90.976C246.342 90.976 245.924 90.58 245.924 89.304V83.98H248.718V81.78H245.924V78.26H243.438V80.416C243.438 81.604 243.218 81.89 242.338 81.89H241.788V83.98H243.262V89.766ZM260.104 87.038C260.104 83.584 258.124 81.56 255.154 81.56C252.272 81.56 249.962 83.672 249.962 87.434C249.962 91.174 252.052 93.22 255.22 93.22C258.146 93.22 259.862 91.284 259.994 89.128H257.53C257.398 90.118 256.738 90.998 255.242 90.998C253.746 90.998 252.734 90.008 252.69 87.984H260.06C260.082 87.654 260.104 87.302 260.104 87.038ZM255.154 83.65C256.452 83.65 257.398 84.464 257.53 86.268H252.734C252.932 84.508 253.922 83.65 255.154 83.65Z" fill="white"/>
<path opacity="0.6" d="M62.6846 107.712V106.62H56.8326V116H58.0506V111.982H62.0686V110.89H58.0506V107.712H62.6846ZM63.5454 112.514C63.5454 114.824 64.9314 116.14 66.7794 116.14C68.5854 116.14 70.0134 114.782 70.0134 112.458C70.0134 110.106 68.6414 108.804 66.7934 108.804C64.9874 108.804 63.5454 110.134 63.5454 112.514ZM68.7954 112.486C68.7954 114.152 67.9554 115.118 66.7794 115.118C65.6174 115.118 64.7634 114.18 64.7634 112.486C64.7634 110.82 65.6174 109.826 66.7934 109.826C67.9554 109.826 68.7954 110.778 68.7954 112.486ZM71.7437 105.92V116H72.9337V105.92H71.7437ZM75.0523 105.92V116H76.2423V105.92H75.0523ZM77.9829 112.514C77.9829 114.824 79.3689 116.14 81.2169 116.14C83.0229 116.14 84.4509 114.782 84.4509 112.458C84.4509 110.106 83.0789 108.804 81.2309 108.804C79.4249 108.804 77.9829 110.134 77.9829 112.514ZM83.2329 112.486C83.2329 114.152 82.3929 115.118 81.2169 115.118C80.0549 115.118 79.2009 114.18 79.2009 112.486C79.2009 110.82 80.0549 109.826 81.2309 109.826C82.3929 109.826 83.2329 110.778 83.2329 112.486ZM95.6488 108.944H94.4588L93.1148 113.62C93.0028 113.984 92.9048 114.306 92.8208 114.684H92.7928C92.7088 114.32 92.6108 113.97 92.4988 113.606L91.0988 108.944H89.8108L88.4528 113.62C88.3408 113.984 88.2428 114.306 88.1588 114.684H88.1168C88.0468 114.32 87.9488 113.97 87.8368 113.606L86.4508 108.944H85.2468L87.4308 116H88.7888L90.1188 111.45C90.2168 111.114 90.3288 110.708 90.4128 110.344H90.4408C90.5248 110.722 90.6368 111.114 90.7348 111.436L92.1208 116H93.4788L95.6488 108.944ZM100.49 114.18C100.49 115.594 101.036 116.14 102.366 116.14C102.898 116.14 103.318 116.028 103.584 115.902V114.908C103.304 115.034 103.01 115.118 102.646 115.118C101.96 115.118 101.68 114.866 101.68 113.97V109.966H103.584V108.944H101.68V106.62H100.574V108.118C100.574 108.832 100.448 108.986 99.9155 108.986H99.4955V109.966H100.49V114.18ZM108.508 108.804C107.178 108.804 106.394 109.574 106.17 110.4H106.142C106.156 109.91 106.17 109.434 106.17 108.944V105.92H104.98V116H106.17V112.388C106.17 110.89 106.982 109.854 108.088 109.854C109.04 109.854 109.544 110.344 109.544 111.562V116H110.734V111.282C110.734 109.658 109.852 108.804 108.508 108.804ZM112.718 106.256V107.516H113.964V106.256H112.718ZM112.746 108.944V116H113.936V108.944H112.746ZM115.55 113.858C115.55 115.412 116.642 116.14 118.322 116.14C120.002 116.14 121.08 115.272 121.08 114.068C121.08 112.64 120.1 112.304 118.462 111.898C117.426 111.618 116.88 111.492 116.88 110.736C116.88 110.176 117.496 109.798 118.322 109.798C119.26 109.798 119.792 110.218 119.806 111.016H120.982C121.01 109.602 120.002 108.804 118.308 108.804C116.852 108.804 115.69 109.56 115.69 110.82C115.69 112.304 116.754 112.57 118.266 112.976C119.414 113.298 119.89 113.41 119.89 114.152C119.89 114.698 119.358 115.146 118.364 115.146C117.342 115.146 116.768 114.768 116.726 113.858H115.55ZM132.003 109.042V107.978C131.947 107.964 131.863 107.964 131.807 107.964C131.023 107.95 130.463 108.426 130.085 109.14C129.665 108.93 129.147 108.804 128.531 108.804C126.781 108.804 125.661 109.798 125.661 111.338C125.661 112.108 125.955 112.766 126.501 113.2C125.983 113.452 125.605 113.858 125.605 114.474C125.605 115.09 125.913 115.468 126.361 115.622V115.65C125.605 115.944 125.087 116.406 125.087 117.26C125.087 118.422 126.277 119.178 128.363 119.178C130.533 119.178 131.989 118.142 131.989 116.672C131.989 115.496 131.135 114.852 129.693 114.852H127.453C126.907 114.852 126.655 114.684 126.655 114.236C126.655 113.97 126.837 113.718 127.075 113.536C127.467 113.704 127.929 113.788 128.461 113.788C130.211 113.788 131.317 112.808 131.317 111.282C131.317 110.582 131.079 109.966 130.631 109.532C131.023 109.056 131.457 109 132.003 109.042ZM128.475 112.836C127.453 112.836 126.823 112.248 126.823 111.31C126.823 110.372 127.495 109.756 128.517 109.756C129.525 109.756 130.155 110.372 130.155 111.31C130.155 112.248 129.483 112.836 128.475 112.836ZM127.117 115.944H129.623C130.547 115.944 130.771 116.378 130.771 116.826C130.771 117.54 129.959 118.17 128.349 118.17C126.837 118.17 126.277 117.736 126.277 117.022C126.277 116.56 126.599 116.154 127.117 115.944ZM133.322 108.944V116H134.512V112.724C134.512 110.834 135.534 110.022 136.542 110.022C136.794 110.022 137.032 110.036 137.326 110.12V108.916C137.088 108.86 136.892 108.846 136.626 108.846C135.562 108.846 134.82 109.644 134.526 110.694H134.498V108.944H133.322ZM138.112 112.514C138.112 114.824 139.498 116.14 141.346 116.14C143.152 116.14 144.58 114.782 144.58 112.458C144.58 110.106 143.208 108.804 141.36 108.804C139.554 108.804 138.112 110.134 138.112 112.514ZM143.362 112.486C143.362 114.152 142.522 115.118 141.346 115.118C140.184 115.118 139.33 114.18 139.33 112.486C139.33 110.82 140.184 109.826 141.36 109.826C142.522 109.826 143.362 110.778 143.362 112.486ZM146.198 113.676C146.198 115.328 147.052 116.14 148.508 116.14C149.684 116.14 150.384 115.342 150.636 114.53H150.664V116H151.84V108.944H150.65V112.57C150.65 114.054 149.852 115.09 148.774 115.09C147.864 115.09 147.388 114.558 147.388 113.438V108.944H146.198V113.676ZM157.369 108.804C156.067 108.804 155.353 109.63 155.157 110.344H155.129V108.944H153.953V119.01H155.143V114.824H155.171C155.311 115.314 155.969 116.14 157.243 116.14C159.091 116.14 160.365 114.684 160.365 112.416C160.365 110.092 159.105 108.804 157.369 108.804ZM157.075 115.146C155.997 115.146 155.143 114.25 155.143 112.696V112.416C155.143 110.736 156.025 109.798 157.145 109.798C158.307 109.798 159.147 110.764 159.147 112.458C159.147 114.096 158.307 115.146 157.075 115.146ZM165.581 114.18C165.581 115.594 166.127 116.14 167.457 116.14C167.989 116.14 168.409 116.028 168.675 115.902V114.908C168.395 115.034 168.101 115.118 167.737 115.118C167.051 115.118 166.771 114.866 166.771 113.97V109.966H168.675V108.944H166.771V106.62H165.665V108.118C165.665 108.832 165.539 108.986 165.007 108.986H164.587V109.966H165.581V114.18ZM169.598 112.514C169.598 114.824 170.984 116.14 172.832 116.14C174.638 116.14 176.066 114.782 176.066 112.458C176.066 110.106 174.694 108.804 172.846 108.804C171.04 108.804 169.598 110.134 169.598 112.514ZM174.848 112.486C174.848 114.152 174.008 115.118 172.832 115.118C171.67 115.118 170.816 114.18 170.816 112.486C170.816 110.82 171.67 109.826 172.846 109.826C174.008 109.826 174.848 110.778 174.848 112.486ZM180.464 113.858C180.464 115.412 181.556 116.14 183.236 116.14C184.916 116.14 185.994 115.272 185.994 114.068C185.994 112.64 185.014 112.304 183.376 111.898C182.34 111.618 181.794 111.492 181.794 110.736C181.794 110.176 182.41 109.798 183.236 109.798C184.174 109.798 184.706 110.218 184.72 111.016H185.896C185.924 109.602 184.916 108.804 183.222 108.804C181.766 108.804 180.604 109.56 180.604 110.82C180.604 112.304 181.668 112.57 183.18 112.976C184.328 113.298 184.804 113.41 184.804 114.152C184.804 114.698 184.272 115.146 183.278 115.146C182.256 115.146 181.682 114.768 181.64 113.858H180.464ZM193.353 112.22C193.353 110.092 192.191 108.804 190.357 108.804C188.621 108.804 187.235 110.148 187.235 112.486C187.235 114.824 188.467 116.14 190.427 116.14C192.219 116.14 193.199 114.95 193.283 113.69H192.177C192.093 114.404 191.575 115.118 190.441 115.118C189.223 115.118 188.481 114.292 188.453 112.752H193.325C193.339 112.57 193.353 112.374 193.353 112.22ZM190.357 109.798C191.365 109.798 192.093 110.456 192.177 111.856H188.481C188.621 110.498 189.377 109.798 190.357 109.798ZM200.831 112.22C200.831 110.092 199.669 108.804 197.835 108.804C196.099 108.804 194.713 110.148 194.713 112.486C194.713 114.824 195.945 116.14 197.905 116.14C199.697 116.14 200.677 114.95 200.761 113.69H199.655C199.571 114.404 199.053 115.118 197.919 115.118C196.701 115.118 195.959 114.292 195.931 112.752H200.803C200.817 112.57 200.831 112.374 200.831 112.22ZM197.835 109.798C198.843 109.798 199.571 110.456 199.655 111.856H195.959C196.099 110.498 196.855 109.798 197.835 109.798ZM206.064 114.18C206.064 115.594 206.61 116.14 207.94 116.14C208.472 116.14 208.892 116.028 209.158 115.902V114.908C208.878 115.034 208.584 115.118 208.22 115.118C207.534 115.118 207.254 114.866 207.254 113.97V109.966H209.158V108.944H207.254V106.62H206.148V108.118C206.148 108.832 206.022 108.986 205.49 108.986H205.07V109.966H206.064V114.18ZM214.082 108.804C212.752 108.804 211.968 109.574 211.744 110.4H211.716C211.73 109.91 211.744 109.434 211.744 108.944V105.92H210.554V116H211.744V112.388C211.744 110.89 212.556 109.854 213.662 109.854C214.614 109.854 215.118 110.344 215.118 111.562V116H216.308V111.282C216.308 109.658 215.426 108.804 214.082 108.804ZM224.06 112.22C224.06 110.092 222.898 108.804 221.064 108.804C219.328 108.804 217.942 110.148 217.942 112.486C217.942 114.824 219.174 116.14 221.134 116.14C222.926 116.14 223.906 114.95 223.99 113.69H222.884C222.8 114.404 222.282 115.118 221.148 115.118C219.93 115.118 219.188 114.292 219.16 112.752H224.032C224.046 112.57 224.06 112.374 224.06 112.22ZM221.064 109.798C222.072 109.798 222.8 110.456 222.884 111.856H219.188C219.328 110.498 220.084 109.798 221.064 109.798ZM225.77 106.256V107.516H227.016V106.256H225.77ZM225.798 108.944V116H226.988V108.944H225.798ZM229.107 108.944V116H230.297V112.724C230.297 110.834 231.319 110.022 232.327 110.022C232.579 110.022 232.817 110.036 233.111 110.12V108.916C232.873 108.86 232.677 108.846 232.411 108.846C231.347 108.846 230.605 109.644 230.311 110.694H230.283V108.944H229.107ZM241.068 108.804C239.766 108.804 239.052 109.63 238.856 110.344H238.828V108.944H237.652V119.01H238.842V114.824H238.87C239.01 115.314 239.668 116.14 240.942 116.14C242.79 116.14 244.064 114.684 244.064 112.416C244.064 110.092 242.804 108.804 241.068 108.804ZM240.774 115.146C239.696 115.146 238.842 114.25 238.842 112.696V112.416C238.842 110.736 239.724 109.798 240.844 109.798C242.006 109.798 242.846 110.764 242.846 112.458C242.846 114.096 242.006 115.146 240.774 115.146ZM245.759 106.256V107.516H247.005V106.256H245.759ZM245.787 108.944V116H246.977V108.944H245.787ZM249.095 108.944V116H250.285V112.388C250.285 110.89 251.097 109.854 252.203 109.854C253.155 109.854 253.659 110.344 253.659 111.562V116H254.849V111.282C254.849 109.658 253.953 108.804 252.581 108.804C251.293 108.804 250.523 109.574 250.299 110.4H250.271V108.944H249.095ZM256.357 113.858C256.357 115.412 257.449 116.14 259.129 116.14C260.809 116.14 261.887 115.272 261.887 114.068C261.887 112.64 260.907 112.304 259.269 111.898C258.233 111.618 257.687 111.492 257.687 110.736C257.687 110.176 258.303 109.798 259.129 109.798C260.067 109.798 260.599 110.218 260.613 111.016H261.789C261.817 109.602 260.809 108.804 259.115 108.804C257.659 108.804 256.497 109.56 256.497 110.82C256.497 112.304 257.561 112.57 259.073 112.976C260.221 113.298 260.697 113.41 260.697 114.152C260.697 114.698 260.165 115.146 259.171 115.146C258.149 115.146 257.575 114.768 257.533 113.858H256.357Z" fill="white"/>
</svg>
