<svg width="79" height="57" viewBox="0 0 79 57" fill="none" xmlns="http://www.w3.org/2000/svg">
<circle cx="39.1304" cy="23.9744" r="11.8333" stroke="white" stroke-width="2"/>
<path fill-rule="evenodd" clip-rule="evenodd" d="M44.8764 26.1054C46.4595 27.1368 47.797 28.7281 47.797 30.7028C47.797 32.6306 46.6381 34.1872 45.059 35.2082C43.4791 36.2298 41.3751 36.8005 39.1306 36.8005C36.8246 36.8005 34.7173 36.0531 33.1668 34.9685C31.6712 33.9221 30.4641 32.3828 30.4641 30.7028C30.4641 28.7281 31.8017 27.1368 33.3847 26.1054C33.6442 25.9363 33.9162 25.778 34.1985 25.6312C33.4371 24.2498 32.964 22.6526 32.964 21.2785C32.964 17.9188 35.756 15.2509 39.1305 15.2509C42.5049 15.2509 45.297 17.9188 45.297 21.2785C45.297 22.6525 44.8238 24.2498 44.0625 25.6311C44.3448 25.7779 44.6169 25.9363 44.8764 26.1054ZM42.6718 27.5467C41.7442 28.5111 40.5441 29.2505 39.1305 29.2505C37.7169 29.2505 36.5168 28.5112 35.5892 27.5468C35.2599 27.6999 34.9476 27.872 34.6585 28.0604C33.3977 28.8818 32.7975 29.8501 32.7975 30.7028C32.7975 31.2739 33.2802 32.2001 34.5044 33.0565C35.6738 33.8746 37.3164 34.4672 39.1306 34.4672C41.0062 34.4672 42.6521 33.986 43.792 33.2489C44.9328 32.5112 45.4637 31.6023 45.4637 30.7028C45.4637 29.8501 44.8634 28.8818 43.6027 28.0604C43.3135 27.872 43.0011 27.6998 42.6718 27.5467ZM42.9636 21.2785C42.9636 22.3493 42.4971 23.8302 41.6933 25.0436C40.8647 26.2944 39.9207 26.9172 39.1305 26.9172C38.3402 26.9172 37.3963 26.2944 36.5676 25.0436C35.7638 23.8302 35.2973 22.3493 35.2973 21.2785C35.2973 19.269 36.9823 17.5842 39.1305 17.5842C41.2787 17.5842 42.9636 19.269 42.9636 21.2785Z" fill="white"/>
<g opacity="0.5" filter="url(#filter0_f_2339_8823)">
<circle cx="39.1304" cy="23.9744" r="12" fill="#BC61F5"/>
</g>
<path d="M18.283 46.6044H21.055C22.65 46.6044 23.684 47.5394 23.684 49.0464C23.684 50.6634 22.617 51.5764 20.956 51.5764H19.658V53.9744H18.283V46.6044ZM20.923 50.3774C21.77 50.3774 22.265 49.8824 22.265 49.0794C22.265 48.2874 21.781 47.8034 20.934 47.8034H19.658V50.3774H20.923ZM30.7842 53.9744H29.2112L27.7372 51.3674H26.3182V53.9744H24.9432V46.6044H27.9902C29.6072 46.6044 30.6082 47.4954 30.6082 48.8594C30.6082 49.9484 30.0362 50.7624 29.1122 51.1254L30.7842 53.9744ZM26.3182 47.8034V50.2124H27.8692C28.7272 50.2124 29.2002 49.7284 29.2002 48.9584C29.2002 48.2104 28.7162 47.8034 27.8692 47.8034H26.3182ZM31.5409 50.3224C31.5409 48.0894 32.8389 46.4724 34.9619 46.4724C37.0849 46.4724 38.3389 48.1114 38.3389 50.2564C38.3389 52.5004 37.0519 54.1064 34.9289 54.1064C32.8059 54.1064 31.5409 52.4564 31.5409 50.3224ZM36.9199 50.2894C36.9199 48.8044 36.2159 47.6714 34.9509 47.6714C33.6749 47.6714 32.9599 48.8044 32.9599 50.2894C32.9599 51.7744 33.6749 52.9074 34.9399 52.9074C36.2049 52.9074 36.9199 51.7744 36.9199 50.2894ZM44.489 47.8034H41.035V49.8934H44.071V51.0704H41.035V53.9744H39.66V46.6044H44.489V47.8034ZM45.6434 46.6044H47.0184V53.9744H45.6434V46.6044ZM50.0907 52.7644H53.3687V53.9744H48.7157V46.6044H50.0907V52.7644ZM59.3585 47.8034H55.8055V49.6404H58.9295V50.8174H55.8055V52.7754H59.3585V53.9744H54.4305V46.6044H59.3585V47.8034Z" fill="#BDBDBD"/>
<defs>
<filter id="filter0_f_2339_8823" x="17.1304" y="1.97437" width="44" height="44" filterUnits="userSpaceOnUse" color-interpolation-filters="sRGB">
<feFlood flood-opacity="0" result="BackgroundImageFix"/>
<feBlend mode="normal" in="SourceGraphic" in2="BackgroundImageFix" result="shape"/>
<feGaussianBlur stdDeviation="5" result="effect1_foregroundBlur_2339_8823"/>
</filter>
</defs>
</svg>
