<svg width="78" height="56" viewBox="0 0 78 56" fill="none" xmlns="http://www.w3.org/2000/svg">
<circle cx="39" cy="22.9993" r="11.8333" stroke="#9B9B9B" stroke-width="2"/>
<path fill-rule="evenodd" clip-rule="evenodd" d="M44.746 25.131C46.3291 26.1624 47.6666 27.7537 47.6666 29.7284C47.6666 31.6562 46.5077 33.2128 44.9286 34.2339C43.3488 35.2555 41.2448 35.8262 39.0002 35.8262C36.6942 35.8262 34.5869 35.0788 33.0365 33.9941C31.5408 32.9478 30.3338 31.4084 30.3338 29.7284C30.3338 27.7537 31.6713 26.1624 33.2543 25.131C33.5138 24.962 33.7858 24.8036 34.0682 24.6568C33.3068 23.2755 32.8336 21.6782 32.8336 20.3041C32.8336 16.9444 35.6256 14.2765 39.0001 14.2765C42.3746 14.2765 45.1666 16.9444 45.1666 20.3041C45.1666 21.6782 44.6934 23.2754 43.9321 24.6567C44.2145 24.8035 44.4865 24.9619 44.746 25.131ZM42.5414 26.5723C41.6138 27.5368 40.4137 28.2761 39.0001 28.2761C37.5865 28.2761 36.3864 27.5368 35.4588 26.5724C35.1296 26.7255 34.8172 26.8976 34.5281 27.086C33.2673 27.9074 32.6671 28.8758 32.6671 29.7284C32.6671 30.2995 33.1498 31.2257 34.374 32.0822C35.5434 32.9003 37.186 33.4928 39.0002 33.4928C40.8758 33.4928 42.5217 33.0116 43.6617 32.2745C44.8024 31.5368 45.3333 30.6279 45.3333 29.7284C45.3333 28.8758 44.7331 27.9074 43.4723 27.086C43.1831 26.8976 42.8707 26.7255 42.5414 26.5723ZM42.8333 20.3041C42.8333 21.3749 42.3667 22.8559 41.5629 24.0692C40.7343 25.32 39.7903 25.9428 39.0001 25.9428C38.2099 25.9428 37.2659 25.32 36.4373 24.0692C35.6334 22.8559 35.1669 21.3749 35.1669 20.3041C35.1669 18.2946 36.8519 16.6098 39.0001 16.6098C41.1483 16.6098 42.8333 18.2946 42.8333 20.3041Z" fill="#9B9B9B"/>
</svg>
