<svg width="40" height="40" viewBox="0 0 40 40" fill="none" xmlns="http://www.w3.org/2000/svg">
<rect width="40" height="40" rx="8" fill="#BC61F5" fill-opacity="0.2"/>
<path d="M14 24H11M14 24C14 25.6569 15.3431 27 17 27C18.6569 27 20 25.6569 20 24M14 24C14 22.3431 15.3431 21 17 21C18.6569 21 20 22.3431 20 24M29 24H20M20 16H11M20 16C20 17.6569 21.3431 19 23 19C24.6569 19 26 17.6569 26 16M20 16C20 14.3431 21.3431 13 23 13C24.6569 13 26 14.3431 26 16M29 16H26" stroke="white" stroke-width="2" stroke-linecap="round"/>
</svg>
