<svg width="38" height="39" viewBox="0 0 38 39" fill="none" xmlns="http://www.w3.org/2000/svg">
<path opacity="0.5" d="M0.636 33.408C0.564 35.244 1.764 36.144 3.66 36.144C5.52 36.144 6.588 35.184 6.588 33.804C6.588 32.34 5.604 31.8 3.84 31.464C2.508 31.2 1.824 30.924 1.824 29.976C1.824 29.232 2.472 28.752 3.504 28.752C4.74 28.752 5.424 29.268 5.4 30.42H6.456C6.504 28.692 5.256 27.816 3.54 27.816C1.956 27.816 0.756 28.608 0.756 30.06C0.756 31.524 1.74 32.064 3.504 32.4C4.836 32.664 5.52 32.94 5.52 33.888C5.52 34.692 4.932 35.208 3.696 35.208C2.424 35.208 1.668 34.752 1.692 33.408H0.636ZM9.72234 28.896V36H10.7663V28.896H13.4063V27.96H7.08234V28.896H9.72234ZM19.798 28.896V27.96H14.674V36H19.798V35.064H15.718V32.34H19.234V31.404H15.718V28.896H19.798ZM21.4592 27.96V36H22.5032V33.12H24.2072C25.9112 33.12 26.9912 32.136 26.9912 30.504C26.9912 28.884 25.9472 27.96 24.2672 27.96H21.4592ZM24.1832 32.184H22.5032V28.896H24.1832C25.2752 28.896 25.9112 29.496 25.9112 30.528C25.9112 31.56 25.2752 32.184 24.1832 32.184ZM34.5184 34.14V36H35.5744V34.14H36.8104V33.204H35.5744V27.96H34.4344L30.5464 33.228V34.14H34.5184ZM32.1664 33.204C31.9864 33.204 31.8424 33.216 31.6984 33.216V33.192L32.0704 32.7L34.2424 29.736L34.5064 29.352H34.5304C34.5304 29.472 34.5184 29.628 34.5184 29.748V33.204H32.1664Z" fill="white"/>
<circle cx="19" cy="10" r="9" fill="#0F0F0F" stroke="#565656"/>
</svg>
