<svg width="38" height="39" viewBox="0 0 38 39" fill="none" xmlns="http://www.w3.org/2000/svg">
<path d="M0.588 33.396C0.504 35.22 1.728 36.144 3.66 36.144C5.556 36.144 6.66 35.184 6.66 33.744C6.66 32.256 5.652 31.728 3.876 31.404C2.592 31.152 1.956 30.888 1.956 30.012C1.956 29.328 2.556 28.872 3.516 28.872C4.668 28.872 5.304 29.376 5.28 30.432H6.516C6.576 28.704 5.292 27.816 3.552 27.816C1.944 27.816 0.708 28.608 0.708 30.108C0.708 31.62 1.752 32.16 3.456 32.472C4.776 32.724 5.4 33 5.4 33.852C5.4 34.608 4.848 35.088 3.708 35.088C2.508 35.088 1.8 34.644 1.836 33.396H0.588ZM9.73266 29.064V36H10.9687V29.064H13.5607V27.96H7.15266V29.064H9.73266ZM19.9981 29.052V27.96H14.7661V36H19.9981V34.908H16.0021V32.436H19.4701V31.344H16.0021V29.052H19.9981ZM21.563 27.96V36H22.799V33.228H24.383C26.135 33.228 27.251 32.244 27.251 30.552C27.251 28.92 26.171 27.96 24.467 27.96H21.563ZM24.359 32.136H22.799V29.052H24.359C25.379 29.052 25.967 29.616 25.967 30.588C25.967 31.548 25.367 32.136 24.359 32.136ZM30.9139 35.7V36H36.6499V34.884H32.2939C32.4019 34.188 33.0739 33.708 34.3579 32.952C36.0259 31.992 36.6379 31.344 36.6379 30.096C36.6379 28.704 35.6899 27.816 33.9499 27.816C32.2099 27.816 31.0699 28.776 31.0699 30.396C31.0699 30.492 31.0699 30.6 31.0819 30.696H32.3179C32.3059 30.6 32.3059 30.504 32.3059 30.42C32.3059 29.4 32.9179 28.872 33.9379 28.872C34.8619 28.872 35.3659 29.376 35.3659 30.168C35.3659 31.056 34.8859 31.452 33.6619 32.184C31.7659 33.24 30.9139 34.284 30.9139 35.7Z" fill="#BC61F5"/>
<circle cx="19" cy="10" r="9" fill="#0F0F0F" stroke="#BC61F5"/>
<circle cx="19" cy="10" r="5" fill="#BC61F5" stroke="#BC61F5"/>
</svg>
