<svg width="38" height="39" viewBox="0 0 38 39" fill="none" xmlns="http://www.w3.org/2000/svg">
<path opacity="0.5" d="M0.636 33.408C0.564 35.244 1.764 36.144 3.66 36.144C5.52 36.144 6.588 35.184 6.588 33.804C6.588 32.34 5.604 31.8 3.84 31.464C2.508 31.2 1.824 30.924 1.824 29.976C1.824 29.232 2.472 28.752 3.504 28.752C4.74 28.752 5.424 29.268 5.4 30.42H6.456C6.504 28.692 5.256 27.816 3.54 27.816C1.956 27.816 0.756 28.608 0.756 30.06C0.756 31.524 1.74 32.064 3.504 32.4C4.836 32.664 5.52 32.94 5.52 33.888C5.52 34.692 4.932 35.208 3.696 35.208C2.424 35.208 1.668 34.752 1.692 33.408H0.636ZM9.72234 28.896V36H10.7663V28.896H13.4063V27.96H7.08234V28.896H9.72234ZM19.798 28.896V27.96H14.674V36H19.798V35.064H15.718V32.34H19.234V31.404H15.718V28.896H19.798ZM21.4592 27.96V36H22.5032V33.12H24.2072C25.9112 33.12 26.9912 32.136 26.9912 30.504C26.9912 28.884 25.9472 27.96 24.2672 27.96H21.4592ZM24.1832 32.184H22.5032V28.896H24.1832C25.2752 28.896 25.9112 29.496 25.9112 30.528C25.9112 31.56 25.2752 32.184 24.1832 32.184ZM30.7624 33.576C30.8224 35.088 31.7224 36.144 33.6544 36.144C35.3824 36.144 36.5224 35.232 36.5224 33.756C36.5224 32.592 35.8624 32.016 34.9024 31.848V31.824C35.7904 31.644 36.3664 31.032 36.3664 30C36.3664 28.752 35.4424 27.816 33.7624 27.816C32.1304 27.816 31.0024 28.74 31.0024 30.204C31.0024 30.276 31.0024 30.324 31.0144 30.432H32.0584C32.0464 30.336 32.0464 30.288 32.0464 30.228C32.0464 29.292 32.7064 28.728 33.7264 28.728C34.7824 28.728 35.2984 29.28 35.2984 30.048C35.2984 30.912 34.6984 31.452 33.4384 31.452H32.7904V32.34H33.4504C34.7344 32.34 35.4424 32.712 35.4424 33.708C35.4424 34.68 34.6984 35.232 33.6424 35.232C32.5264 35.232 31.8904 34.596 31.8064 33.576H30.7624Z" fill="white"/>
<circle cx="19" cy="10" r="9" fill="#0F0F0F" stroke="#565656"/>
</svg>
