<svg width="38" height="39" viewBox="0 0 38 39" fill="none" xmlns="http://www.w3.org/2000/svg">
<path d="M0.588 33.396C0.504 35.22 1.728 36.144 3.66 36.144C5.556 36.144 6.66 35.184 6.66 33.744C6.66 32.256 5.652 31.728 3.876 31.404C2.592 31.152 1.956 30.888 1.956 30.012C1.956 29.328 2.556 28.872 3.516 28.872C4.668 28.872 5.304 29.376 5.28 30.432H6.516C6.576 28.704 5.292 27.816 3.552 27.816C1.944 27.816 0.708 28.608 0.708 30.108C0.708 31.62 1.752 32.16 3.456 32.472C4.776 32.724 5.4 33 5.4 33.852C5.4 34.608 4.848 35.088 3.708 35.088C2.508 35.088 1.8 34.644 1.836 33.396H0.588ZM9.73266 29.064V36H10.9687V29.064H13.5607V27.96H7.15266V29.064H9.73266ZM19.9981 29.052V27.96H14.7661V36H19.9981V34.908H16.0021V32.436H19.4701V31.344H16.0021V29.052H19.9981ZM21.563 27.96V36H22.799V33.228H24.383C26.135 33.228 27.251 32.244 27.251 30.552C27.251 28.92 26.171 27.96 24.467 27.96H21.563ZM24.359 32.136H22.799V29.052H24.359C25.379 29.052 25.967 29.616 25.967 30.588C25.967 31.548 25.367 32.136 24.359 32.136ZM30.9139 33.54C30.9619 35.064 31.8619 36.144 33.8659 36.144C35.6299 36.144 36.7939 35.22 36.7939 33.756C36.7939 32.616 36.1459 32.028 35.1499 31.86V31.836C36.0499 31.656 36.6259 31.044 36.6259 30.012C36.6259 28.74 35.6899 27.816 33.9619 27.816C32.2699 27.816 31.1419 28.764 31.1419 30.24C31.1419 30.312 31.1419 30.36 31.1539 30.468H32.3659C32.3539 30.372 32.3539 30.336 32.3539 30.276C32.3539 29.4 32.9659 28.872 33.9139 28.872C34.8859 28.872 35.3779 29.388 35.3779 30.108C35.3779 30.924 34.8259 31.404 33.6379 31.404H32.9779V32.412H33.6499C34.8619 32.412 35.5219 32.748 35.5219 33.672C35.5219 34.572 34.8259 35.088 33.8419 35.088C32.7979 35.088 32.2099 34.5 32.1379 33.54H30.9139Z" fill="#BC61F5"/>
<circle cx="19" cy="10" r="9" fill="#0F0F0F" stroke="#BC61F5"/>
<circle cx="19" cy="10" r="5" fill="#BC61F5" stroke="#BC61F5"/>
</svg>
