<svg width="38" height="39" viewBox="0 0 38 39" fill="none" xmlns="http://www.w3.org/2000/svg">
<path opacity="0.5" d="M0.636 33.408C0.564 35.244 1.764 36.144 3.66 36.144C5.52 36.144 6.588 35.184 6.588 33.804C6.588 32.34 5.604 31.8 3.84 31.464C2.508 31.2 1.824 30.924 1.824 29.976C1.824 29.232 2.472 28.752 3.504 28.752C4.74 28.752 5.424 29.268 5.4 30.42H6.456C6.504 28.692 5.256 27.816 3.54 27.816C1.956 27.816 0.756 28.608 0.756 30.06C0.756 31.524 1.74 32.064 3.504 32.4C4.836 32.664 5.52 32.94 5.52 33.888C5.52 34.692 4.932 35.208 3.696 35.208C2.424 35.208 1.668 34.752 1.692 33.408H0.636ZM9.72234 28.896V36H10.7663V28.896H13.4063V27.96H7.08234V28.896H9.72234ZM19.798 28.896V27.96H14.674V36H19.798V35.064H15.718V32.34H19.234V31.404H15.718V28.896H19.798ZM21.4592 27.96V36H22.5032V33.12H24.2072C25.9112 33.12 26.9912 32.136 26.9912 30.504C26.9912 28.884 25.9472 27.96 24.2672 27.96H21.4592ZM24.1832 32.184H22.5032V28.896H24.1832C25.2752 28.896 25.9112 29.496 25.9112 30.528C25.9112 31.56 25.2752 32.184 24.1832 32.184ZM30.7624 35.712V36H36.3784V35.04H31.9264C32.0224 34.296 32.7424 33.744 34.0744 32.94C35.7544 31.944 36.3664 31.296 36.3664 30.048C36.3664 28.692 35.4424 27.816 33.7504 27.816C32.0584 27.816 30.9304 28.74 30.9304 30.348C30.9304 30.444 30.9304 30.552 30.9424 30.66H31.9864C31.9744 30.552 31.9744 30.456 31.9744 30.372C31.9744 29.292 32.6344 28.728 33.7384 28.728C34.7464 28.728 35.2864 29.256 35.2864 30.108C35.2864 31.056 34.7704 31.464 33.4864 32.256C31.6624 33.3 30.7624 34.332 30.7624 35.712Z" fill="white"/>
<circle cx="19" cy="10" r="9" fill="#0F0F0F" stroke="#565656"/>
</svg>
