<svg width="16" height="22" viewBox="0 0 16 22" fill="none" xmlns="http://www.w3.org/2000/svg">
<path fill-rule="evenodd" clip-rule="evenodd" d="M6.0939 6.54448C6.0939 5.60265 6.86467 5.24041 8.14126 5.24041C9.97184 5.24041 12.2842 5.79585 14.1147 6.78597V1.11087C12.1155 0.313941 10.1404 0 8.14126 0C3.25169 0 0 2.55983 0 6.83427C0 13.4995 9.1529 12.4369 9.1529 15.3107C9.1529 16.4216 8.18943 16.7838 6.84059 16.7838C4.8414 16.7838 2.28822 15.9627 0.264952 14.8519V20.5994C2.505 21.5654 4.76914 21.9759 6.84059 21.9759C11.8506 21.9759 15.295 19.4885 15.295 15.1658C15.2709 7.96929 6.0939 9.2492 6.0939 6.54448Z" fill="#BC61F5"/>
</svg>
