<svg width="54" height="54" viewBox="0 0 54 54" fill="none" xmlns="http://www.w3.org/2000/svg">
<path d="M36 40.5L40.5 45L49.5 36M27 33.75H18C13.8065 33.75 11.7098 33.75 10.0558 34.4351C7.8506 35.3485 6.09853 37.1006 5.18508 39.3058C4.5 40.9598 4.5 43.0565 4.5 47.25M34.875 7.40421C38.1733 8.73933 40.5 11.9729 40.5 15.75C40.5 19.5271 38.1733 22.7607 34.875 24.0958M30.375 15.75C30.375 20.7206 26.3456 24.75 21.375 24.75C16.4044 24.75 12.375 20.7206 12.375 15.75C12.375 10.7794 16.4044 6.75 21.375 6.75C26.3456 6.75 30.375 10.7794 30.375 15.75Z" stroke="white" stroke-width="3" stroke-linecap="round" stroke-linejoin="round"/>
</svg>
