<svg width="32" height="30" viewBox="0 0 32 30" fill="none" xmlns="http://www.w3.org/2000/svg">
<path d="M26.5 28.5L31 24M31 24L26.5 19.5M31 24H22M16 20.25H9.25001C7.15666 20.25 6.10998 20.25 5.25829 20.5084C3.34068 21.0901 1.84006 22.5907 1.25836 24.5083C1 25.36 1 26.4067 1 28.5M19.75 8.25C19.75 11.9779 16.7279 15 13 15C9.27208 15 6.25 11.9779 6.25 8.25C6.25 4.52208 9.27208 1.5 13 1.5C16.7279 1.5 19.75 4.52208 19.75 8.25Z" stroke="white" stroke-width="2" stroke-linecap="round" stroke-linejoin="round"/>
</svg>
