<svg width="40" height="40" viewBox="0 0 40 40" fill="none" xmlns="http://www.w3.org/2000/svg">
<rect width="40" height="40" rx="8" fill="#BC61F5" fill-opacity="0.2"/>
<path fill-rule="evenodd" clip-rule="evenodd" d="M19.3714 25.3712C18.9809 25.7617 18.3477 25.7617 17.9572 25.3712L15.7072 23.1212C15.3166 22.7306 15.3166 22.0975 15.7072 21.707C16.0977 21.3164 16.7309 21.3164 17.1214 21.707L19.3714 23.957C19.7619 24.3475 19.7619 24.9806 19.3714 25.3712Z" fill="white"/>
<path d="M14.1384 27.4077C14.7141 27.9631 14.8682 28.6676 14.6701 29.4491C14.4694 30.0892 14.7649 30.7911 15.2687 31.2771L16.78 32.7351C17.2118 33.1517 17.7774 33.1416 18.194 32.7098L32.4966 17.8842C32.9132 17.4524 32.903 16.8868 32.4712 16.4703L30.9599 15.0122C30.4561 14.5262 29.744 14.2561 29.1116 14.4796C28.4791 14.7031 27.6281 14.577 27.0524 14.0215C26.4766 13.4661 26.3225 12.7616 26.5207 11.9801C26.7214 11.34 26.4259 10.6381 25.9221 10.1521L24.4108 8.69409C23.979 8.27751 23.4134 8.28766 22.9968 8.71947L8.69418 23.545C8.2776 23.9768 8.28775 24.5424 8.71956 24.959L10.2309 26.417C10.7347 26.903 11.4467 27.1731 12.0792 26.9496C12.8531 26.7235 13.5626 26.8522 14.1384 27.4077Z" stroke="white" stroke-width="2" stroke-miterlimit="10" stroke-linecap="round"/>
</svg>
