<svg width="22" height="22" viewBox="0 0 22 22" fill="none" xmlns="http://www.w3.org/2000/svg">
<path d="M15.5787 3.66602H6.41206C2.90122 3.66602 1.92039 4.50935 1.83789 7.79102C3.60706 7.79102 5.03706 9.23018 5.03706 10.9993C5.03706 12.7685 3.60706 14.1985 1.83789 14.2077C1.92039 17.4893 2.90122 18.3327 6.41206 18.3327H15.5787C19.2454 18.3327 20.1621 17.416 20.1621 13.7493V8.24935C20.1621 4.58268 19.2454 3.66602 15.5787 3.66602Z" stroke="#A9A9A9" stroke-width="1.5" stroke-linecap="round" stroke-linejoin="round"/>
<path d="M8.24365 3.66602V6.87435" stroke="#A9A9A9" stroke-width="1.5" stroke-linecap="round" stroke-linejoin="round"/>
<path d="M8.24365 15.125V18.3333" stroke="#A9A9A9" stroke-width="1.5" stroke-linecap="round" stroke-linejoin="round"/>
<path d="M13.773 8.55297L14.3413 9.6988C14.3963 9.8088 14.5063 9.8913 14.6255 9.90964L15.8905 10.093C16.2022 10.1388 16.3305 10.5238 16.1013 10.7438L15.1847 11.633C15.093 11.7155 15.0563 11.8438 15.0747 11.9721L15.2947 13.228C15.3497 13.5396 15.0197 13.778 14.7447 13.6313L13.6172 13.0355C13.5072 12.9805 13.3697 12.9805 13.2597 13.0355L12.1322 13.6313C11.848 13.778 11.5272 13.5396 11.5822 13.228L11.8022 11.9721C11.8205 11.8438 11.7838 11.7246 11.6922 11.633L10.7847 10.7438C10.5555 10.5238 10.6838 10.1388 10.9955 10.093L12.2605 9.90964C12.3888 9.8913 12.4897 9.81797 12.5447 9.6988L13.1038 8.55297C13.2322 8.2688 13.6355 8.2688 13.773 8.55297Z" stroke="#A9A9A9" stroke-width="1.5" stroke-linecap="round" stroke-linejoin="round"/>
</svg>
