<svg width="22" height="22" viewBox="0 0 22 22" fill="none" xmlns="http://www.w3.org/2000/svg">
<path d="M17.8749 11.4577C17.8749 10.1927 18.9016 9.16602 20.1666 9.16602V8.24935C20.1666 4.58268 19.2499 3.66602 15.5833 3.66602H6.41659C2.74992 3.66602 1.83325 4.58268 1.83325 8.24935V8.70768C3.09825 8.70768 4.12492 9.73435 4.12492 10.9993C4.12492 12.2643 3.09825 13.291 1.83325 13.291V13.7493C1.83325 17.416 2.74992 18.3327 6.41659 18.3327H15.5833C19.2499 18.3327 20.1666 17.416 20.1666 13.7493C18.9016 13.7493 17.8749 12.7227 17.8749 11.4577Z" stroke="#BC61F5" stroke-width="1.5" stroke-linecap="round" stroke-linejoin="round"/>
<path d="M9.16675 3.66602L9.16675 18.3327" stroke="#BC61F5" stroke-width="1.5" stroke-linecap="round" stroke-linejoin="round" stroke-dasharray="5 5"/>
</svg>
