<svg width="50" height="49" viewBox="0 0 50 49" fill="none" xmlns="http://www.w3.org/2000/svg">
<g clip-path="url(#clip0_168_3206)">
<path d="M21 0.912964C9.40382 0.912964 0 10.3168 0 21.913C0 33.5091 9.40382 42.913 21 42.913C32.5962 42.913 42 33.5091 42 21.913C42 10.3168 32.5962 0.912964 21 0.912964ZM31.5353 16.9807V19.8241C30.1945 19.8246 28.8917 19.5619 27.6631 19.0435C26.8778 18.7125 26.1385 18.2814 25.4637 17.7609L25.4839 26.513C25.4755 28.4838 24.6958 30.3355 23.2846 31.7303C22.1361 32.8656 20.6809 33.5876 19.1036 33.8213C18.7297 33.8766 18.3523 33.9043 17.9744 33.9043C16.2859 33.9043 14.6829 33.3573 13.3717 32.3482C13.1234 32.1569 12.8871 31.9506 12.6642 31.7303C11.1348 30.2187 10.3462 28.1701 10.479 26.0149C10.5803 24.3743 11.2371 22.8097 12.3321 21.5834C13.7808 19.9607 15.8074 19.06 17.9744 19.06C18.3558 19.06 18.733 19.0886 19.1036 19.1435V23.1194C18.7431 23.0003 18.3658 22.9397 17.9861 22.9397C16.0063 22.9397 14.4047 24.5549 14.4343 26.5362C14.4531 27.8038 15.1455 28.9119 16.1668 29.5227C16.6588 29.8177 17.2153 29.9884 17.7881 30.0199C18.2337 30.0447 18.6799 29.9855 19.1036 29.8455C20.5181 29.3782 21.5385 28.0496 21.5385 26.4827L21.5431 20.6218V9.92164H25.459C25.4622 10.3022 25.5012 10.6817 25.5753 11.0551C25.8709 12.5399 26.7078 13.8281 27.8727 14.7064C28.8884 15.4724 30.1531 15.9266 31.524 15.9266C31.5249 15.9266 31.5362 15.9266 31.5352 15.9257V16.9807H31.5353Z" fill="#636363"/>
</g>
<path d="M38 46.6407C43.5 46.6407 48 42.1407 48 36.6407C48 31.1407 43.5 26.6407 38 26.6407C32.5 26.6407 28 31.1407 28 36.6407C28 42.1407 32.5 46.6407 38 46.6407Z" fill="#BC61F5" stroke="#0F0F0F" stroke-width="1.5" stroke-linecap="round" stroke-linejoin="round"/>
<path d="M34 36.6407H42" stroke="white" stroke-width="1.5" stroke-linecap="round" stroke-linejoin="round"/>
<path d="M38 40.6407V32.6407" stroke="white" stroke-width="1.5" stroke-linecap="round" stroke-linejoin="round"/>
<defs>
<clipPath id="clip0_168_3206">
<rect width="42" height="42" fill="white" transform="translate(0 0.912964)"/>
</clipPath>
</defs>
</svg>
