<svg width="19" height="19" viewBox="0 0 19 19" fill="none" xmlns="http://www.w3.org/2000/svg">
<path d="M13.855 16.8983C13.195 17.0933 12.415 17.1833 11.5 17.1833H7.00002C6.08502 17.1833 5.30502 17.0933 4.64502 16.8983C4.81002 14.9483 6.81252 13.4108 9.25002 13.4108C11.6875 13.4108 13.69 14.9483 13.855 16.8983Z" stroke="#9F9F9F" stroke-width="1.2" stroke-linecap="round" stroke-linejoin="round"/>
<path d="M11.4999 2.18326H6.99994C3.24994 2.18326 1.74994 3.68326 1.74994 7.43326V11.9333C1.74994 14.7683 2.60494 16.3208 4.64494 16.8983C4.80994 14.9483 6.81244 13.4107 9.24994 13.4107C11.6874 13.4107 13.6899 14.9483 13.8549 16.8983C15.8949 16.3208 16.7499 14.7683 16.7499 11.9333V7.43326C16.7499 3.68326 15.2499 2.18326 11.4999 2.18326ZM9.24994 11.3107C7.76494 11.3107 6.56494 10.1033 6.56494 8.61827C6.56494 7.13327 7.76494 5.93326 9.24994 5.93326C10.7349 5.93326 11.9349 7.13327 11.9349 8.61827C11.9349 10.1033 10.7349 11.3107 9.24994 11.3107Z" stroke="#9F9F9F" stroke-width="1.2" stroke-linecap="round" stroke-linejoin="round"/>
<path d="M11.9351 8.61845C11.9351 10.1035 10.7351 11.3109 9.25006 11.3109C7.76506 11.3109 6.56506 10.1035 6.56506 8.61845C6.56506 7.13345 7.76506 5.93344 9.25006 5.93344C10.7351 5.93344 11.9351 7.13345 11.9351 8.61845Z" stroke="#9F9F9F" stroke-width="1.2" stroke-linecap="round" stroke-linejoin="round"/>
</svg>
