<svg width="14" height="14" viewBox="0 0 14 14" fill="none" xmlns="http://www.w3.org/2000/svg">
<path d="M13.5057 9.61203L9.23901 1.93203C8.66568 0.898698 7.87234 0.332031 6.99901 0.332031C6.12568 0.332031 5.33234 0.898698 4.75901 1.93203L0.492342 9.61203C-0.0476582 10.592 -0.107658 11.532 0.325675 12.272C0.759009 13.012 1.61234 13.4187 2.73234 13.4187H11.2657C12.3857 13.4187 13.239 13.012 13.6723 12.272C14.1057 11.532 14.0457 10.5854 13.5057 9.61203ZM6.49901 4.9987C6.49901 4.72536 6.72568 4.4987 6.99901 4.4987C7.27234 4.4987 7.49901 4.72536 7.49901 4.9987V8.33203C7.49901 8.60536 7.27234 8.83203 6.99901 8.83203C6.72568 8.83203 6.49901 8.60536 6.49901 8.33203V4.9987ZM7.47234 10.8054C7.43901 10.832 7.40568 10.8587 7.37234 10.8854C7.33234 10.912 7.29234 10.932 7.25234 10.9454C7.21234 10.9654 7.17234 10.9787 7.12567 10.9854C7.08567 10.992 7.03901 10.9987 6.99901 10.9987C6.95901 10.9987 6.91234 10.992 6.86567 10.9854C6.82568 10.9787 6.78568 10.9654 6.74568 10.9454C6.70568 10.932 6.66567 10.912 6.62567 10.8854C6.59234 10.8587 6.55901 10.832 6.52567 10.8054C6.40567 10.6787 6.33234 10.5054 6.33234 10.332C6.33234 10.1587 6.40567 9.98537 6.52567 9.8587C6.55901 9.83203 6.59234 9.80536 6.62567 9.7787C6.66567 9.75203 6.70568 9.73203 6.74568 9.7187C6.78568 9.6987 6.82568 9.68536 6.86567 9.6787C6.95234 9.6587 7.04567 9.6587 7.12567 9.6787C7.17234 9.68536 7.21234 9.6987 7.25234 9.7187C7.29234 9.73203 7.33234 9.75203 7.37234 9.7787C7.40568 9.80536 7.43901 9.83203 7.47234 9.8587C7.59234 9.98537 7.66568 10.1587 7.66568 10.332C7.66568 10.5054 7.59234 10.6787 7.47234 10.8054Z" fill="#FB5146"/>
</svg>
