<svg width="51" height="49" viewBox="0 0 51 49" fill="none" xmlns="http://www.w3.org/2000/svg">
<g clip-path="url(#clip0_168_3185)">
<circle cx="21.25" cy="22" r="21" fill="#636363"/>
<path d="M16.5375 31.6525C16.505 31.6525 16.4617 31.6742 16.4292 31.6742C14.3275 30.6342 12.6158 28.9117 11.565 26.81C11.565 26.7775 11.5867 26.7342 11.5867 26.7017C12.9083 27.0917 14.2733 27.3842 15.6275 27.6117C15.8658 28.9767 16.1475 30.3308 16.5375 31.6525Z" fill="#0F0F0F"/>
<path d="M30.935 26.8208C29.8625 28.9767 28.075 30.7208 25.8975 31.7717C26.3092 30.3958 26.6558 29.0092 26.8833 27.6117C28.2483 27.3842 29.5917 27.0917 30.9133 26.7017C30.9025 26.745 30.935 26.7883 30.935 26.8208Z" fill="#0F0F0F"/>
<path d="M31.0217 17.3525C29.6567 16.9408 28.2808 16.605 26.8833 16.3667C26.6558 14.9692 26.32 13.5825 25.8975 12.2283C28.14 13.3008 29.9492 15.11 31.0217 17.3525Z" fill="#0F0F0F"/>
<path d="M16.5375 12.3475C16.1475 13.6692 15.8658 15.0125 15.6383 16.3775C14.2408 16.5942 12.8542 16.9408 11.4783 17.3525C12.5292 15.175 14.2733 13.3875 16.4292 12.315C16.4617 12.315 16.505 12.3475 16.5375 12.3475Z" fill="#0F0F0F"/>
<path d="M25.0308 16.1392C22.5175 15.8575 19.9825 15.8575 17.4692 16.1392C17.74 14.655 18.0867 13.1708 18.5742 11.7408C18.5958 11.6542 18.585 11.5892 18.5958 11.5025C19.4517 11.2967 20.3292 11.1667 21.25 11.1667C22.16 11.1667 23.0483 11.2967 23.8933 11.5025C23.9042 11.5892 23.9042 11.6542 23.9258 11.7408C24.4133 13.1817 24.76 14.655 25.0308 16.1392Z" fill="#0F0F0F"/>
<path d="M15.3892 25.7808C13.8942 25.51 12.4208 25.1633 10.9908 24.6758C10.9042 24.6542 10.8392 24.665 10.7525 24.6542C10.5467 23.7983 10.4167 22.9208 10.4167 22C10.4167 21.09 10.5467 20.2017 10.7525 19.3567C10.8392 19.3458 10.9042 19.3458 10.9908 19.3242C12.4317 18.8475 13.8942 18.49 15.3892 18.2192C15.1183 20.7325 15.1183 23.2675 15.3892 25.7808Z" fill="#0F0F0F"/>
<path d="M32.0833 22C32.0833 22.9208 31.9533 23.7983 31.7475 24.6542C31.6608 24.665 31.5958 24.6542 31.5092 24.6758C30.0683 25.1525 28.595 25.51 27.1108 25.7808C27.3925 23.2675 27.3925 20.7325 27.1108 18.2192C28.595 18.49 30.0792 18.8367 31.5092 19.3242C31.5958 19.3458 31.6608 19.3567 31.7475 19.3567C31.9533 20.2125 32.0833 21.09 32.0833 22Z" fill="#0F0F0F"/>
<path d="M25.0308 27.8608C24.76 29.3558 24.4133 30.8292 23.9258 32.2592C23.9042 32.3458 23.9042 32.4108 23.8933 32.4975C23.0483 32.7033 22.16 32.8333 21.25 32.8333C20.3292 32.8333 19.4517 32.7033 18.5958 32.4975C18.585 32.4108 18.5958 32.3458 18.5742 32.2592C18.0975 30.8183 17.74 29.3558 17.4692 27.8608C18.7258 28.0017 19.9825 28.0992 21.25 28.0992C22.5175 28.0992 23.785 28.0017 25.0308 27.8608Z" fill="#0F0F0F"/>
<path d="M25.3269 26.0769C22.6174 26.4188 19.8826 26.4188 17.173 26.0769C16.8312 23.3674 16.8312 20.6326 17.173 17.9231C19.8826 17.5812 22.6174 17.5812 25.3269 17.9231C25.6688 20.6326 25.6688 23.3674 25.3269 26.0769Z" fill="#0F0F0F"/>
</g>
<path d="M38.7345 46.6407C44.2345 46.6407 48.7345 42.1407 48.7345 36.6407C48.7345 31.1407 44.2345 26.6407 38.7345 26.6407C33.2345 26.6407 28.7345 31.1407 28.7345 36.6407C28.7345 42.1407 33.2345 46.6407 38.7345 46.6407Z" fill="#BC61F5" stroke="#0F0F0F" stroke-width="1.5" stroke-linecap="round" stroke-linejoin="round"/>
<path d="M34.7345 36.6407H42.7345" stroke="white" stroke-width="1.5" stroke-linecap="round" stroke-linejoin="round"/>
<path d="M38.7345 40.6407V32.6407" stroke="white" stroke-width="1.5" stroke-linecap="round" stroke-linejoin="round"/>
<defs>
<clipPath id="clip0_168_3185">
<rect width="42" height="42" fill="white" transform="translate(0.25 0.912964)"/>
</clipPath>
</defs>
</svg>
