<svg width="276" height="216" viewBox="0 0 276 216" fill="none" xmlns="http://www.w3.org/2000/svg">
<g clip-path="url(#clip0_2380_35255)">
<path d="M189.479 127.5C189.121 127.5 188.776 127.371 188.504 127.138C188.233 126.905 188.054 126.583 187.999 126.229C183.891 99.6934 174.233 65.0384 166.406 55.7464C162.906 51.5934 159.731 49.5934 153.332 47.5174C151.415 47.0658 149.475 46.7196 147.52 46.4804C142.858 45.7864 139.936 45.3124 138.643 44.5804C137.866 44.1603 137.219 43.5337 136.775 42.7697C136.331 42.0057 136.106 41.1339 136.126 40.2504C136.133 39.3314 136.383 38.4306 136.851 37.6393C137.318 36.848 137.987 36.1943 138.788 35.7444C140.939 34.5964 143.719 34.4054 147.28 35.1634C148.99 35.5264 150.448 35.3844 150.82 35.0454C150.951 34.9254 151.553 34.1374 150.496 30.3514C149.598 28.2047 148.514 26.1408 147.256 24.1834C146.474 22.8594 145.798 21.7164 145.415 20.9274C143.909 17.6782 142.641 14.3236 141.622 10.8904C141.333 9.98878 141.039 9.08877 140.74 8.19038C140.537 7.63569 140.446 7.04638 140.471 6.45625C140.496 5.86612 140.637 5.28676 140.887 4.75138C141.136 4.216 141.489 3.73514 141.925 3.33634C142.361 2.93754 142.871 2.62865 143.426 2.42739C143.951 2.24807 144.508 2.17902 145.061 2.22454C145.614 2.27005 146.152 2.42917 146.641 2.69194C147.13 2.95471 147.56 3.3155 147.903 3.75174C148.246 4.18799 148.496 4.69033 148.636 5.22739C149.951 8.69561 151.53 12.0584 153.357 15.2864C153.506 15.5194 155.931 19.5454 156.818 19.8214C157.704 19.8514 158.582 19.6421 159.359 19.2154C160.669 18.5705 162.12 18.2668 163.578 18.3324C165.158 18.5565 166.654 19.1791 167.927 20.1414C168.014 20.1994 168.113 20.2384 168.216 20.2556C168.32 20.2728 168.426 20.268 168.527 20.2414C169.221 20.0533 169.945 20.0102 170.656 20.1149C171.367 20.2195 172.049 20.4695 172.659 20.8494C175.118 22.4274 175.837 25.9024 176.266 27.9784L176.32 28.2384C177.164 32.2784 184.27 46.5074 186.17 49.4484C190.358 55.9344 196.687 65.7354 201.385 77.2164C201.46 77.3988 201.498 77.5941 201.497 77.7912C201.496 77.9882 201.456 78.1832 201.38 78.3649C201.304 78.5466 201.192 78.7116 201.052 78.8503C200.912 78.989 200.746 79.0988 200.564 79.1734C200.382 79.248 200.186 79.2859 199.989 79.285C199.792 79.2841 199.597 79.2444 199.415 79.1682C199.234 79.092 199.069 78.9807 198.93 78.8407C198.791 78.7007 198.682 78.5348 198.607 78.3524C194.017 67.1294 187.777 57.4684 183.649 51.0764C181.7 48.0464 174.3 33.1914 173.387 28.8464L173.332 28.5804C173.021 27.0714 172.439 24.2644 171.043 23.3674C170.769 23.2026 170.463 23.0987 170.145 23.0629C169.828 23.027 169.506 23.0599 169.202 23.1594C168.686 23.2805 168.151 23.2911 167.631 23.1905C167.11 23.0898 166.617 22.8802 166.184 22.5754C165.318 21.904 164.294 21.4651 163.211 21.3004C162.256 21.3262 161.319 21.5654 160.469 22.0004C159.083 22.5514 157.512 23.1744 155.93 22.6834C154.102 22.1164 152.691 19.9834 151.289 17.6514C151.118 17.3674 146.732 8.78239 145.815 6.24539C145.6 5.64539 145.185 4.99539 144.41 5.26339C144.223 5.33542 144.052 5.44467 143.909 5.58452C143.765 5.72437 143.651 5.89192 143.574 6.07702C143.497 6.26212 143.459 6.46093 143.461 6.66141C143.463 6.86189 143.505 7.05988 143.586 7.24339C143.896 8.17339 144.186 9.08139 144.477 9.97439C145.83 14.3729 147.626 18.6225 149.839 22.6574C151.185 25.1574 152.917 27.8694 153.385 29.5454C154.134 32.2264 154.749 35.5264 152.839 37.2644C151.111 38.8344 147.939 38.3644 146.657 38.0974C143.812 37.4974 141.703 37.5904 140.2 38.3914C139.874 38.5903 139.604 38.8693 139.416 39.2018C139.228 39.5343 139.128 39.9094 139.126 40.2914C139.116 40.6377 139.205 40.9798 139.382 41.2776C139.559 41.5755 139.817 41.8168 140.126 41.9734C141.026 42.4854 145.198 43.1074 147.96 43.5184C150.082 43.7698 152.186 44.1542 154.26 44.6694C161.19 46.9174 164.835 49.2264 168.703 53.8184C177.119 63.8104 186.813 98.9494 190.966 125.776C191.027 126.169 190.929 126.57 190.694 126.891C190.459 127.212 190.106 127.427 189.713 127.487C189.635 127.498 189.557 127.502 189.479 127.5ZM133.3 77.3574C132.98 77.3577 132.669 77.2559 132.411 77.0668C132.154 76.8777 131.963 76.6113 131.867 76.3064C131.772 76.0014 131.776 75.6739 131.88 75.3715C131.983 75.0691 132.181 74.8077 132.443 74.6254C137.072 71.4457 142.669 69.9905 148.26 70.5134C148.656 70.5532 149.02 70.7486 149.272 71.0567C149.524 71.3649 149.643 71.7604 149.603 72.1564C149.563 72.5524 149.368 72.9163 149.06 73.1682C148.752 73.42 148.356 73.5392 147.96 73.4994C143.079 73.0436 138.194 74.314 134.153 77.0894C133.903 77.2643 133.605 77.3579 133.3 77.3574Z" fill="#BC61F5"/>
<path d="M135.583 127.438C135.454 127.438 135.326 127.422 135.202 127.389C134.817 127.289 134.488 127.039 134.287 126.696C134.086 126.352 134.03 125.943 134.131 125.558C136.231 117.52 137.038 107.058 137.089 99.9473C137.101 98.2403 133.38 94.4473 130.021 93.2983C126.389 92.0573 122.236 92.5263 120.241 92.7513C119.76 92.8306 119.272 92.8617 118.785 92.8443C117.966 92.8128 117.175 92.5396 116.511 92.0591C115.847 91.5786 115.341 90.9124 115.055 90.1443C114.869 89.4256 114.877 88.6704 115.079 87.9558C115.28 87.2412 115.667 86.5927 116.2 86.0763C117.568 84.8355 119.325 84.1102 121.17 84.0253C123.858 83.8955 126.537 83.6137 129.193 83.1813C129.424 83.1019 129.618 82.9409 129.738 82.7285C129.858 82.5161 129.897 82.2671 129.846 82.0283C129.325 78.4373 127.426 75.8653 124.855 73.2283C121.498 69.7823 118.11 65.0673 118.555 63.0803C118.66 62.5518 118.888 62.0555 119.222 61.6321C119.555 61.2087 119.984 60.8703 120.473 60.6443C121.058 60.3954 121.691 60.2839 122.326 60.3186C122.96 60.3533 123.578 60.5331 124.132 60.8443C125.27 61.5299 126.263 62.4323 127.053 63.5003C127.472 64.0003 128.474 65.4453 128.875 65.9103C127.988 64.2103 126.548 61.5463 125.846 59.9423C125.256 58.8501 125.009 57.605 125.139 56.3703C125.287 55.4696 125.787 54.6646 126.529 54.1323C127.123 53.6839 127.827 53.4055 128.567 53.3269C129.307 53.2483 130.054 53.3726 130.729 53.6863C132.002 54.2253 133.407 55.9503 134.521 57.5863C134.313 56.7396 134.413 55.8467 134.802 55.0665C135.191 54.2863 135.844 53.6693 136.645 53.3253C139.288 52.1153 141.64 54.5383 142.851 56.9833C143.169 57.6273 143.782 59.3983 144.658 62.0553C144.715 60.9607 145.078 59.9041 145.707 59.0063C145.908 58.7741 146.156 58.587 146.435 58.4573C146.713 58.3275 147.016 58.258 147.323 58.2533H147.361C150.861 58.2533 151.711 62.0643 152.17 64.1153C152.17 64.1153 154.721 79.2713 154.922 80.6233C155.325 83.4391 155.384 86.2933 155.099 89.1233C155.009 90.4443 154.916 91.8113 154.899 93.4593C154.848 97.3003 156.824 120.371 156.129 126.12C156.081 126.515 155.878 126.875 155.565 127.121C155.252 127.366 154.854 127.477 154.459 127.429C154.064 127.381 153.704 127.179 153.459 126.865C153.213 126.552 153.102 126.154 153.15 125.759C153.809 120.318 151.85 97.4083 151.899 93.4193C151.922 91.6893 152.022 90.2193 152.11 88.9193C152.38 86.3056 152.329 83.6687 151.959 81.0673C151.234 76.2093 150.226 67.4813 149.733 65.4603C149.472 64.3913 148.973 61.1903 147.81 61.3713C146.677 61.5473 146.71 65.1873 147.171 69.6713C147.263 70.5813 147.231 71.5013 146.337 71.6923C145.443 71.8833 144.937 71.3923 144.65 70.5253C144.31 69.5003 140.565 59.1303 140.161 58.3143C139.545 57.0713 138.771 55.6673 137.895 56.0523C135.563 57.0763 140.775 67.0333 141.295 71.1523C141.347 71.33 141.361 71.5168 141.336 71.7003C141.311 71.8839 141.247 72.0599 141.148 72.2168C141.05 72.3736 140.919 72.5078 140.764 72.6103C140.61 72.7128 140.436 72.7813 140.253 72.8113C139.38 73.0533 138.728 72.9833 138.359 72.1563C137.859 71.0263 134.892 64.2143 133.829 62.2293C132.362 59.4883 130.369 56.7843 129.564 56.4433C129.373 56.3433 129.159 56.2948 128.944 56.3027C128.729 56.3106 128.519 56.3746 128.336 56.4883C128.222 56.5815 128.141 56.7082 128.103 56.8503C128.098 57.511 128.269 58.1611 128.597 58.7343C129.648 61.1343 134.258 70.6343 135.17 72.5193C135.57 73.3393 135.565 73.9673 134.803 74.4713C134.041 74.9753 133.389 74.5383 132.784 73.8423C131.715 72.6063 126.644 67.2763 124.984 65.2953C124.391 64.4941 123.673 63.7926 122.859 63.2173C122.744 63.1233 122.606 63.061 122.46 63.0367C122.313 63.0124 122.163 63.0269 122.023 63.0787C121.884 63.1306 121.761 63.2181 121.666 63.3324C121.571 63.4467 121.507 63.5839 121.482 63.7303C121.312 65.4043 126.02 69.9723 127.135 71.2713C129.61 74.1583 132.171 77.1433 132.816 81.5953C132.976 82.4115 132.873 83.2573 132.523 84.0116C132.173 84.766 131.593 85.3903 130.867 85.7953C128.375 86.9343 118.75 85.7253 118.267 88.2503C118 89.6283 119.5 89.8163 119.9 89.7703C122.114 89.5213 126.717 89.0023 130.986 90.4593C135.101 91.8643 140.109 96.5283 140.086 99.9693C140.034 107.261 139.204 118.012 137.03 126.317C136.946 126.638 136.759 126.921 136.497 127.124C136.236 127.327 135.914 127.437 135.583 127.438Z" fill="#BC61F5"/>
<path d="M141.03 22.2097C140.626 21.9058 140.163 21.6902 139.67 21.5769C139.177 21.4635 138.666 21.455 138.17 21.5517C136.92 21.9213 135.843 22.7262 135.135 23.8207C133.503 25.7358 131.624 27.4256 129.547 28.8457C129.323 27.8089 128.89 26.8288 128.274 25.9657C127.657 25.1026 126.871 24.3747 125.963 23.8267C125.876 22.906 125.604 22.0122 125.165 21.1984C124.726 20.3847 124.127 19.6676 123.405 19.0897C122.85 18.6294 122.191 18.3121 121.485 18.1657C124.129 13.6047 126.23 7.50871 125.237 3.97271C125.009 3.02284 124.445 2.18783 123.648 1.62268C122.851 1.05754 121.877 0.800655 120.905 0.899712C119.113 0.973712 117.705 3.01171 115.239 7.55071C114.873 8.22471 108.706 18.7267 105.659 21.7637C105.235 22.2143 104.68 22.5209 104.073 22.6407C103.507 22.721 102.93 22.6611 102.392 22.4663C101.855 22.2716 101.373 21.9479 100.99 21.5237C100.505 20.9757 99.19 18.1597 98.784 17.5237C96.926 14.6297 91.443 12.3287 88.835 13.3527C88.1229 13.5507 87.4692 13.9177 86.9294 14.4226C86.3897 14.9275 85.9799 15.5554 85.735 16.2527C85.193 18.3177 86.759 20.2437 88.141 21.9427C88.593 22.4987 89.021 23.0247 89.329 23.4957C91.2654 26.3871 92.9048 29.4667 94.222 32.6877C96.88 39.3667 96.73 44.2557 93.702 49.5647C92.3616 51.9454 91.0319 54.3321 89.713 56.7247C85.352 64.6047 78.762 76.4997 74.869 83.0057C74.7093 83.2544 74.6262 83.5445 74.6301 83.84C74.634 84.1355 74.7248 84.4234 74.891 84.6677C75.0318 84.8663 75.218 85.0284 75.4339 85.1408C75.6499 85.2531 75.8895 85.3124 76.133 85.3137C76.3925 85.3138 76.6476 85.2466 76.8733 85.1187C77.0991 84.9907 77.2878 84.8064 77.421 84.5837C81.336 78.0407 87.958 66.0917 92.341 58.1837C94.155 54.9117 95.593 52.3157 96.312 51.0557C99.801 44.9377 100.012 39.1147 97.012 31.5837C95.6213 28.1752 93.8891 24.9163 91.842 21.8567C91.448 21.2567 90.951 20.6457 90.471 20.0567C89.728 19.1427 88.485 17.6137 88.64 17.0217C88.7608 16.7763 88.9434 16.5666 89.17 16.4133C89.3966 16.26 89.6592 16.1685 89.932 16.1477C91.0378 16.0483 92.1511 16.2212 93.1747 16.6512C94.1983 17.0813 95.101 17.7554 95.804 18.6147C96.749 19.7087 97.97 22.6387 98.745 23.5147C99.4617 24.3146 100.366 24.9239 101.376 25.2879C102.387 25.6518 103.472 25.759 104.534 25.5997C105.771 25.387 106.907 24.7856 107.779 23.8827C111.113 20.5577 117.418 9.81971 117.879 8.98271C118.558 7.73471 120.192 4.19571 121.188 3.89171C121.334 3.84985 121.487 3.84 121.637 3.86282C121.788 3.88565 121.931 3.94063 122.058 4.02399C122.185 4.10735 122.292 4.21713 122.373 4.34583C122.454 4.47453 122.505 4.61912 122.525 4.76971C123.679 8.86971 118.034 19.6587 115.325 21.1627C115.112 21.2815 114.931 21.4504 114.797 21.6547C114.664 21.8591 114.582 22.0928 114.558 22.3357C114.535 22.5787 114.571 22.8237 114.664 23.0496C114.756 23.2756 114.902 23.4757 115.089 23.6327C115.334 23.8145 115.625 23.9238 115.929 23.9482C116.233 23.9726 116.538 23.9111 116.809 23.7707C117.626 23.2508 118.351 22.5981 118.954 21.8397C119.234 21.4895 119.627 21.2464 120.065 21.1513C120.504 21.0563 120.962 21.115 121.362 21.3177C121.427 21.3536 121.489 21.3944 121.547 21.4397C123.514 22.9977 122.628 25.4137 122.447 25.8597C121.436 28.2259 119.833 30.2922 117.793 31.8597C117.462 32.1908 117.056 32.4379 116.61 32.5805C116.164 32.7232 115.69 32.7572 115.228 32.6797C114.974 32.5565 114.776 32.3427 114.673 32.0805C114.569 31.8183 114.568 31.5269 114.669 31.2637C115.131 30.3004 115.789 29.4436 116.6 28.7477C116.788 28.5808 116.931 28.3696 117.016 28.1333C117.101 27.8971 117.126 27.6432 117.089 27.3949C117.051 27.1465 116.952 26.9115 116.8 26.7112C116.649 26.5108 116.45 26.3515 116.221 26.2477C115.943 26.1273 115.635 26.0924 115.336 26.1474C115.038 26.2024 114.763 26.3449 114.546 26.5567C113.425 27.5387 112.523 28.7459 111.9 30.0997C111.569 30.9826 111.538 31.9503 111.813 32.8524C112.089 33.7544 112.654 34.5402 113.422 35.0877C114.057 35.5684 114.833 35.8245 115.629 35.8157C115.745 35.8157 115.858 35.7967 115.972 35.7877C115.983 36.0229 116.011 36.2569 116.058 36.4877C116.263 37.3106 116.696 38.059 117.307 38.6473C117.918 39.2355 118.682 39.6398 119.512 39.8137C119.914 39.905 120.325 39.9506 120.737 39.9497C121.819 39.9367 122.882 39.6644 123.837 39.1557C124.956 38.5315 125.968 37.7336 126.837 36.7917C127.742 35.8734 128.466 34.7929 128.971 33.6067C129.286 32.8411 129.836 32.195 130.541 31.7607C133.107 30.1516 135.407 28.1523 137.358 25.8347C137.696 25.4007 138.344 24.5767 138.774 24.4877C139.007 24.4746 139.238 24.534 139.436 24.6577C139.675 24.8601 139.845 25.132 139.923 25.4356C140.001 25.7391 139.982 26.0594 139.869 26.3517C139.414 27.7873 138.739 29.1437 137.869 30.3727C135.331 34.1517 131.357 37.2407 127.899 40.2507C125.391 42.4347 118.825 46.0417 116.781 47.4507C113.836 49.4837 110.86 53.8507 109.349 56.2737C101.449 68.9307 89.476 100.203 83.201 124.562C83.102 124.947 83.1599 125.355 83.362 125.698C83.5642 126.04 83.894 126.288 84.279 126.388C84.4014 126.42 84.5274 126.436 84.654 126.436C84.9866 126.436 85.3097 126.325 85.5726 126.121C85.8354 125.917 86.0231 125.632 86.106 125.31C92.318 101.194 104.128 70.3097 111.894 57.8617C114.222 54.1307 116.686 51.1617 118.484 49.9197C120.403 48.5957 127.118 44.9077 129.869 42.5127C133.339 39.4917 137.269 36.0677 139.824 31.7187C139.998 31.4187 142.581 27.5707 142.702 25.2787C142.705 24.6675 142.554 24.0654 142.262 23.5287C141.969 22.992 141.545 22.5382 141.03 22.2097ZM124.7 34.6997C124.049 35.4123 123.292 36.0195 122.455 36.4997C121.769 36.8921 120.969 37.0336 120.19 36.8997C119.92 36.8504 119.667 36.7306 119.458 36.5524C119.249 36.3741 119.091 36.1438 119 35.8847C118.942 35.5718 118.973 35.2487 119.09 34.9527C119.207 34.6566 119.405 34.3994 119.661 34.2107L119.676 34.1987C121.841 32.5228 123.625 30.4052 124.908 27.9867C125.101 27.6057 126.531 27.7187 126.969 29.7807C127.316 31.4167 126.137 33.2267 124.7 34.6997Z" fill="#BC61F5"/>
</g>
<path d="M40.545 154.24H44.073L46.873 165.412C47.125 166.476 47.461 167.82 47.629 169.024H47.741C47.937 167.82 48.217 166.476 48.469 165.412L51.185 154.24H55.273L57.989 165.44C58.241 166.448 58.521 167.82 58.717 169.052H58.801C59.025 167.848 59.333 166.476 59.585 165.468L62.357 154.24H65.745L60.901 173H56.673L53.985 162.192C53.761 161.296 53.453 159.868 53.257 158.72H53.173C52.949 159.896 52.613 161.24 52.361 162.164L49.617 173H45.361L40.545 154.24ZM79.1979 165.412C79.1979 165.748 79.1699 166.196 79.1419 166.616H69.7619C69.8179 169.192 71.1059 170.452 73.0099 170.452C74.9139 170.452 75.7539 169.332 75.9219 168.072H79.0579C78.8899 170.816 76.7059 173.28 72.9819 173.28C68.9499 173.28 66.2899 170.676 66.2899 165.916C66.2899 161.128 69.2299 158.44 72.8979 158.44C76.6779 158.44 79.1979 161.016 79.1979 165.412ZM72.8979 161.1C71.3299 161.1 70.0699 162.192 69.8179 164.432H75.9219C75.7539 162.136 74.5499 161.1 72.8979 161.1ZM82.083 152.84H85.499V173H82.083V152.84ZM88.3837 165.972C88.3837 161.156 91.3517 158.44 95.1317 158.44C98.9957 158.44 101.264 161.1 101.32 164.376H97.9597C97.8757 162.752 97.0357 161.24 95.1317 161.24C93.2277 161.24 91.8557 162.892 91.8557 165.916C91.8557 168.856 93.1997 170.48 95.0757 170.48C96.9517 170.48 97.7077 169.136 97.9597 167.372H101.32C101.04 170.872 98.8557 173.28 95.0477 173.28C91.2117 173.28 88.3837 170.732 88.3837 165.972ZM103.532 165.916C103.532 161.128 106.556 158.44 110.392 158.44C114.284 158.44 117.196 161.016 117.196 165.804C117.196 170.564 114.144 173.28 110.364 173.28C106.444 173.28 103.532 170.704 103.532 165.916ZM113.724 165.86C113.724 162.892 112.352 161.24 110.392 161.24C108.404 161.24 107.004 162.92 107.004 165.86C107.004 168.828 108.404 170.48 110.364 170.48C112.352 170.48 113.724 168.8 113.724 165.86ZM136.05 158.44C138.934 158.44 140.39 160.4 140.39 163.368V173H137.002V164.152C137.002 162.36 136.302 161.38 134.846 161.38C133.194 161.38 131.962 163.06 131.962 165.496V173H128.574V164.152C128.574 162.36 127.846 161.38 126.418 161.38C124.766 161.38 123.534 163.06 123.534 165.468V173H120.118V158.72H123.478V161.324H123.562C124.01 159.896 125.382 158.44 127.65 158.44C129.834 158.44 131.178 159.56 131.682 161.436H131.766C132.298 159.896 133.698 158.44 136.05 158.44ZM156.007 165.412C156.007 165.748 155.979 166.196 155.951 166.616H146.571C146.627 169.192 147.915 170.452 149.819 170.452C151.723 170.452 152.563 169.332 152.731 168.072H155.867C155.699 170.816 153.515 173.28 149.791 173.28C145.759 173.28 143.099 170.676 143.099 165.916C143.099 161.128 146.039 158.44 149.707 158.44C153.487 158.44 156.007 161.016 156.007 165.412ZM149.707 161.1C148.139 161.1 146.879 162.192 146.627 164.432H152.731C152.563 162.136 151.359 161.1 149.707 161.1ZM165.688 168.884V161.52H163.812V158.86H164.512C165.632 158.86 165.912 158.496 165.912 156.984V154.24H169.076V158.72H172.632V161.52H169.076V168.296C169.076 169.92 169.608 170.424 170.84 170.424C171.54 170.424 172.128 170.256 172.632 170.004V172.804C172.044 173.056 171.176 173.308 169.972 173.308C166.92 173.308 165.688 172.048 165.688 168.884ZM174.216 165.916C174.216 161.128 177.24 158.44 181.076 158.44C184.968 158.44 187.88 161.016 187.88 165.804C187.88 170.564 184.828 173.28 181.048 173.28C177.128 173.28 174.216 170.704 174.216 165.916ZM184.408 165.86C184.408 162.892 183.036 161.24 181.076 161.24C179.088 161.24 177.688 162.92 177.688 165.86C177.688 168.828 179.088 170.48 181.048 170.48C183.036 170.48 184.408 168.8 184.408 165.86ZM197.598 168.884V161.52H195.722V158.86H196.422C197.542 158.86 197.822 158.496 197.822 156.984V154.24H200.986V158.72H204.542V161.52H200.986V168.296C200.986 169.92 201.518 170.424 202.75 170.424C203.45 170.424 204.038 170.256 204.542 170.004V172.804C203.954 173.056 203.086 173.308 201.882 173.308C198.83 173.308 197.598 172.048 197.598 168.884ZM214.747 158.44C217.435 158.44 219.255 160.064 219.255 163.34V173H215.867V164.18C215.867 162.304 215.027 161.38 213.459 161.38C211.639 161.38 210.351 163.06 210.351 165.58V173H206.935V152.84H210.351V158.72C210.351 159.616 210.323 160.484 210.295 161.352H210.351C210.883 159.784 212.283 158.44 214.747 158.44ZM234.866 165.412C234.866 165.748 234.838 166.196 234.81 166.616H225.43C225.486 169.192 226.774 170.452 228.678 170.452C230.582 170.452 231.422 169.332 231.59 168.072H234.726C234.558 170.816 232.374 173.28 228.65 173.28C224.618 173.28 221.958 170.676 221.958 165.916C221.958 161.128 224.898 158.44 228.566 158.44C232.346 158.44 234.866 161.016 234.866 165.412ZM228.566 161.1C226.998 161.1 225.738 162.192 225.486 164.432H231.59C231.422 162.136 230.218 161.1 228.566 161.1ZM2.11611 198.704C2.11611 193.02 5.42011 188.904 10.8241 188.904C16.2281 188.904 19.4201 193.076 19.4201 198.536C19.4201 204.248 16.1441 208.336 10.7401 208.336C5.33611 208.336 2.11611 204.136 2.11611 198.704ZM15.8081 198.62C15.8081 194.84 14.0161 191.956 10.7961 191.956C7.54811 191.956 5.72811 194.84 5.72811 198.62C5.72811 202.4 7.54811 205.284 10.7681 205.284C13.9881 205.284 15.8081 202.4 15.8081 198.62ZM25.6748 200.776L21.0548 193.72H24.9468L27.8868 198.424H27.9708L30.9388 193.72H34.5788L29.9588 200.552L34.7748 208H30.9388L27.7188 202.932H27.6348L24.3308 208H20.7188L25.6748 200.776ZM37.4751 196.52H35.5711V193.72H37.4751V192.208C37.4751 189.1 39.0991 187.56 42.1231 187.56C43.0471 187.56 43.6071 187.644 44.2231 187.784V190.584C43.7191 190.444 43.3551 190.36 42.7671 190.36C41.6471 190.36 40.8631 190.836 40.8631 192.348V193.72H43.8311V196.52H40.8631V208H37.4751V196.52ZM45.0438 200.916C45.0438 196.128 48.0678 193.44 51.9038 193.44C55.7958 193.44 58.7078 196.016 58.7078 200.804C58.7078 205.564 55.6558 208.28 51.8758 208.28C47.9558 208.28 45.0438 205.704 45.0438 200.916ZM55.2358 200.86C55.2358 197.892 53.8638 196.24 51.9038 196.24C49.9158 196.24 48.5158 197.92 48.5158 200.86C48.5158 203.828 49.9158 205.48 51.8758 205.48C53.8638 205.48 55.2358 203.8 55.2358 200.86ZM61.6299 193.72H64.9619V196.884H65.0459C65.6059 194.924 66.9499 193.524 68.9939 193.524C69.4979 193.524 69.9179 193.552 70.3939 193.664V197.136C69.7779 196.968 69.2739 196.912 68.7139 196.912C66.8099 196.912 65.0459 198.256 65.0459 201.56V208H61.6299V193.72ZM81.814 187.84H85.202V208H81.87V205.452H81.786C81.45 206.768 80.106 208.28 77.502 208.28C74.198 208.28 71.622 205.732 71.622 200.972C71.622 196.296 74.114 193.44 77.81 193.44C80.246 193.44 81.394 194.756 81.758 195.708H81.814V187.84ZM81.814 201.056V200.356C81.814 197.696 80.386 196.156 78.566 196.156C76.438 196.156 75.094 197.976 75.094 200.86C75.094 203.884 76.466 205.536 78.454 205.536C80.33 205.536 81.814 203.94 81.814 201.056ZM94.3746 198.704C94.3746 193.104 97.6786 188.904 102.999 188.904C108.011 188.904 110.783 192.432 110.951 196.352H107.451C107.255 194.168 105.911 191.956 103.027 191.956C99.8626 191.956 97.9866 194.868 97.9866 198.704C97.9866 202.596 99.7786 205.312 102.971 205.312C105.771 205.312 107.087 203.324 107.479 200.832H110.951C110.587 205.032 107.899 208.336 102.999 208.336C97.3426 208.336 94.3746 204.416 94.3746 198.704ZM113.266 200.916C113.266 196.128 116.29 193.44 120.126 193.44C124.018 193.44 126.93 196.016 126.93 200.804C126.93 205.564 123.878 208.28 120.098 208.28C116.178 208.28 113.266 205.704 113.266 200.916ZM123.458 200.86C123.458 197.892 122.086 196.24 120.126 196.24C118.138 196.24 116.738 197.92 116.738 200.86C116.738 203.828 118.138 205.48 120.098 205.48C122.086 205.48 123.458 203.8 123.458 200.86ZM145.785 193.44C148.669 193.44 150.125 195.4 150.125 198.368V208H146.737V199.152C146.737 197.36 146.037 196.38 144.581 196.38C142.929 196.38 141.697 198.06 141.697 200.496V208H138.309V199.152C138.309 197.36 137.581 196.38 136.153 196.38C134.501 196.38 133.269 198.06 133.269 200.468V208H129.853V193.72H133.213V196.324H133.297C133.745 194.896 135.117 193.44 137.385 193.44C139.569 193.44 140.913 194.56 141.417 196.436H141.501C142.033 194.896 143.433 193.44 145.785 193.44ZM169.437 193.44C172.321 193.44 173.777 195.4 173.777 198.368V208H170.389V199.152C170.389 197.36 169.689 196.38 168.233 196.38C166.581 196.38 165.349 198.06 165.349 200.496V208H161.961V199.152C161.961 197.36 161.233 196.38 159.805 196.38C158.153 196.38 156.921 198.06 156.921 200.468V208H153.505V193.72H156.865V196.324H156.949C157.397 194.896 158.769 193.44 161.037 193.44C163.221 193.44 164.565 194.56 165.069 196.436H165.153C165.685 194.896 167.085 193.44 169.437 193.44ZM190.967 189.24L184.247 200.496V208H180.747V200.496L173.999 189.24H177.919L182.511 196.912H182.623L187.159 189.24H190.967ZM190.239 200.916C190.239 196.128 193.263 193.44 197.099 193.44C200.991 193.44 203.903 196.016 203.903 200.804C203.903 205.564 200.851 208.28 197.071 208.28C193.151 208.28 190.239 205.704 190.239 200.916ZM200.431 200.86C200.431 197.892 199.059 196.24 197.099 196.24C195.111 196.24 193.711 197.92 193.711 200.86C193.711 203.828 195.111 205.48 197.071 205.48C199.059 205.48 200.431 203.8 200.431 200.86ZM206.629 203.408V193.72H210.017V202.624C210.017 204.416 210.773 205.368 212.257 205.368C213.993 205.368 215.281 203.66 215.281 201.168V193.72H218.697V208H215.337V205.34H215.253C214.665 206.88 213.405 208.28 211.249 208.28C208.365 208.28 206.629 206.824 206.629 203.408ZM222.274 193.72H225.634V196.352H225.718C226.222 194.784 227.622 193.44 230.058 193.44C232.746 193.44 234.594 195.064 234.594 198.34V208H231.206V199.18C231.206 197.304 230.366 196.38 228.798 196.38C226.978 196.38 225.69 198.06 225.69 200.58V208H222.274V193.72ZM237.942 188.092H241.414V191.452H237.942V188.092ZM237.97 193.72H241.386V208H237.97V193.72ZM245.586 203.884V196.52H243.71V193.86H244.41C245.53 193.86 245.81 193.496 245.81 191.984V189.24H248.974V193.72H252.53V196.52H248.974V203.296C248.974 204.92 249.506 205.424 250.738 205.424C251.438 205.424 252.026 205.256 252.53 205.004V207.804C251.942 208.056 251.074 208.308 249.87 208.308C246.818 208.308 245.586 207.048 245.586 203.884ZM253.719 214.02V211.22C254.335 211.416 254.895 211.528 255.595 211.528C257.135 211.528 257.667 210.828 258.283 209.204L258.647 208.224L253.383 193.72H257.023L259.683 201.7C259.935 202.484 260.271 203.464 260.495 204.388H260.551C260.775 203.464 261.083 202.484 261.307 201.728L263.827 193.72H267.439L261.783 208.924C260.551 212.172 259.235 214.384 256.155 214.384C255.119 214.384 254.391 214.272 253.719 214.02ZM269.554 189.24H273.222L272.83 202.736H269.918L269.554 189.24ZM269.582 204.584H273.166V208H269.582V204.584Z" fill="white"/>
<defs>
<clipPath id="clip0_2380_35255">
<rect width="128" height="128" fill="white" transform="translate(74)"/>
</clipPath>
</defs>
</svg>
