<svg width="51" height="49" viewBox="0 0 51 49" fill="none" xmlns="http://www.w3.org/2000/svg">
<g clip-path="url(#clip0_168_3174)">
<path d="M21 0.912964C9.40382 0.912964 0 10.3168 0 21.913C0 33.5091 9.40382 42.913 21 42.913C32.5962 42.913 42 33.5091 42 21.913C42 10.3168 32.5962 0.912964 21 0.912964ZM21.4451 34.1397C21.4448 34.1397 21.4454 34.1397 21.4451 34.1397H21.4399C19.3363 34.1389 17.2692 33.6114 15.4334 32.6103L8.77062 34.3577L10.5538 27.8464C9.45377 25.9411 8.87504 23.7795 8.87603 21.565C8.8789 14.6372 14.5173 9.00108 21.4451 9.00108C24.8071 9.00231 27.9631 10.311 30.3359 12.6858C32.7091 15.0608 34.0151 18.2177 34.0138 21.5749C34.0109 28.503 28.3719 34.1398 21.445 34.1398L21.4451 34.1397Z" fill="#636363"/>
<path d="M21.4493 11.1233C15.6868 11.1233 11.0006 15.8077 10.9979 21.5659C10.9974 23.5392 11.5497 25.4608 12.5953 27.1235L12.8436 27.5187L11.7881 31.3725L15.742 30.3356L16.1236 30.5618C17.7274 31.5135 19.5661 32.0169 21.4406 32.0176H21.4447C27.2026 32.0176 31.889 27.3328 31.8915 21.5743C31.8925 18.7836 30.8069 16.1599 28.8346 14.186C26.8624 12.2121 24.2392 11.1242 21.4493 11.1233ZM27.5939 26.0559C27.3321 26.789 26.0776 27.4584 25.4742 27.5488C24.933 27.6295 24.2486 27.6632 23.4962 27.4244C23.0399 27.2796 22.4551 27.0864 21.7056 26.7631C18.5554 25.4031 16.4979 22.2321 16.3409 22.0225C16.1839 21.813 15.0585 20.3201 15.0585 18.7746C15.0585 17.2295 15.8698 16.4698 16.1576 16.1557C16.4456 15.8413 16.786 15.7628 16.9951 15.7628C17.2044 15.7628 17.414 15.7648 17.597 15.7737C17.7899 15.7833 18.0488 15.7004 18.3035 16.3127C18.5653 16.9415 19.1934 18.4865 19.2719 18.6436C19.3504 18.8009 19.4026 18.9842 19.2982 19.1938C19.1934 19.4033 18.8454 19.8555 18.5131 20.2676C18.3737 20.4403 18.1921 20.5941 18.3753 20.9084C18.5583 21.2224 19.1889 22.2507 20.1223 23.0832C21.3221 24.1528 22.3339 24.4842 22.648 24.6415C22.9617 24.7985 23.1449 24.7722 23.3283 24.563C23.5112 24.3534 24.1133 23.6462 24.3225 23.3319C24.5319 23.0175 24.7414 23.07 25.0291 23.1749C25.3172 23.2793 26.861 24.0391 27.1751 24.1961C27.4891 24.3534 27.6984 24.4319 27.7768 24.563C27.8557 24.694 27.8557 25.3224 27.5939 26.0559Z" fill="#636363"/>
</g>
<path d="M38.4845 46.6407C43.9845 46.6407 48.4845 42.1407 48.4845 36.6407C48.4845 31.1407 43.9845 26.6407 38.4845 26.6407C32.9845 26.6407 28.4845 31.1407 28.4845 36.6407C28.4845 42.1407 32.9845 46.6407 38.4845 46.6407Z" fill="#BC61F5" stroke="#0F0F0F" stroke-width="1.5" stroke-linecap="round" stroke-linejoin="round"/>
<path d="M34.4845 36.6407H42.4845" stroke="white" stroke-width="1.5" stroke-linecap="round" stroke-linejoin="round"/>
<path d="M38.4845 40.6407V32.6407" stroke="white" stroke-width="1.5" stroke-linecap="round" stroke-linejoin="round"/>
<defs>
<clipPath id="clip0_168_3174">
<rect width="42" height="42" fill="white" transform="translate(0 0.912964)"/>
</clipPath>
</defs>
</svg>
