<svg width="41" height="50" viewBox="0 0 36 36" fill="none" xmlns="http://www.w3.org/2000/svg">
<g clip-path="url(#clip0_242_3844)">
<rect x="4.81055" y="6.02832" width="24.871" height="24.871" rx="5" fill="white"/>
<path d="M18 0C8.06041 0 0 8.06041 0 18C0 27.9396 8.06041 36 18 36C27.9396 36 36 27.9396 36 18C36 8.06041 27.9396 0 18 0ZM18.3815 28.4801C18.3812 28.4801 18.3818 28.4801 18.3815 28.4801H18.3771C16.574 28.4794 14.8022 28.0273 13.2287 27.1692L7.51767 28.6669L9.04613 23.0858C8.10324 21.4527 7.60718 19.5999 7.60802 17.7017C7.61048 11.7636 12.4434 6.93267 18.3815 6.93267C21.2632 6.93373 23.9683 8.05542 26.0022 10.091C28.0363 12.1267 29.1558 14.8326 29.1547 17.7102C29.1522 23.6486 24.3188 28.4801 18.3814 28.4801L18.3815 28.4801Z" fill="#08A90F"/>
<path d="M18.3851 8.75195C13.4458 8.75195 9.42901 12.7671 9.42676 17.7027C9.42627 19.3941 9.89975 21.0412 10.796 22.4664L11.0088 22.8051L10.1041 26.1084L13.4931 25.2196L13.8202 25.4136C15.1948 26.2292 16.7709 26.6608 18.3776 26.6613H18.3811C23.3165 26.6613 27.3334 22.6458 27.3356 17.7099C27.3364 15.3179 26.4059 13.069 24.7154 11.3771C23.0248 9.68521 20.7765 8.75273 18.3851 8.75195ZM23.6519 21.5513C23.4275 22.1797 22.3522 22.7535 21.835 22.831C21.3711 22.9001 20.7845 22.929 20.1396 22.7243C19.7484 22.6002 19.2472 22.4346 18.6048 22.1575C15.9046 20.9918 14.141 18.2738 14.0064 18.0941C13.8718 17.9145 12.9072 16.6349 12.9072 15.3102C12.9072 13.9858 13.6026 13.3346 13.8493 13.0654C14.0962 12.796 14.3879 12.7287 14.5672 12.7287C14.7466 12.7287 14.9263 12.7304 15.0831 12.738C15.2484 12.7463 15.4703 12.6752 15.6887 13.2C15.9131 13.7389 16.4515 15.0633 16.5188 15.1979C16.586 15.3327 16.6308 15.4899 16.5413 15.6695C16.4515 15.8491 16.1531 16.2366 15.8684 16.5899C15.7488 16.7379 15.5932 16.8697 15.7502 17.1392C15.907 17.4083 16.4476 18.2897 17.2477 19.0033C18.276 19.9201 19.1433 20.2041 19.4125 20.339C19.6814 20.4735 19.8385 20.451 19.9956 20.2717C20.1524 20.092 20.6685 19.4859 20.8478 19.2164C21.0273 18.947 21.2068 18.992 21.4535 19.0818C21.7004 19.1714 23.0237 19.8226 23.2929 19.9572C23.562 20.092 23.7415 20.1593 23.8087 20.2717C23.8763 20.384 23.8763 20.9226 23.6519 21.5513Z" fill="#08A90F"/>
</g>
<defs>
<clipPath id="clip0_242_3844">
<rect width="36" height="36" fill="white"/>
</clipPath>
</defs>
</svg>
